<svg width="24" height="24" viewBox="0 0 24 24" fill="none" xmlns="http://www.w3.org/2000/svg">
<path d="M16.8 9.60006C16.8 9.15823 16.4419 8.80006 16 8.80006C15.5582 8.80006 15.2 9.15823 15.2 9.60006V17.2686L13.3657 15.4343C13.0533 15.1219 12.5467 15.1219 12.2343 15.4343C11.9219 15.7467 11.9219 16.2532 12.2343 16.5656L15.429 19.7604C15.4545 19.7863 15.4818 19.8106 15.5106 19.8329C15.5419 19.8572 15.5745 19.8788 15.6083 19.8977C15.7241 19.9629 15.8577 20.0001 16 20.0001C16.2256 20.0001 16.4294 19.9067 16.5749 19.7565L19.7657 16.5656C20.0781 16.2532 20.0781 15.7467 19.7657 15.4343C19.4533 15.1219 18.9467 15.1219 18.6343 15.4343L16.8 17.2685V9.60006Z" fill="white" style="fill:white;fill-opacity:1;"/>
<path d="M7.19995 14.4C7.19995 14.8418 7.55812 15.2 7.99995 15.2C8.44178 15.2 8.79995 14.8418 8.79995 14.4L8.79995 6.73142L10.6343 8.56578C10.9467 8.8782 11.4533 8.8782 11.7657 8.56578C12.0781 8.25336 12.0781 7.74683 11.7657 7.43441L8.57094 4.23966C8.54557 4.21381 8.51845 4.18968 8.48979 4.16745C8.45839 4.14308 8.4256 4.12137 8.39171 4.10232C8.27592 4.03717 8.14228 4 7.99995 4C7.77436 4 7.57057 4.09338 7.42514 4.24359L4.23431 7.43441C3.9219 7.74683 3.9219 8.25336 4.23431 8.56578C4.54673 8.8782 5.05327 8.8782 5.36569 8.56578L7.19995 6.73152L7.19995 14.4Z" fill="white" style="fill:white;fill-opacity:1;"/>
</svg>
