<svg width="24" height="24" viewBox="0 0 24 24" fill="none" xmlns="http://www.w3.org/2000/svg">
<path d="M12.5 4C12.3122 4 12.132 4.07463 11.9992 4.20747C11.8663 4.3403 11.7917 4.52047 11.7917 4.70833V20.2917C11.7917 20.4795 11.8663 20.6597 11.9992 20.7925C12.132 20.9254 12.3122 21 12.5 21C12.6879 21 12.8681 20.9254 13.0009 20.7925C13.1337 20.6597 13.2084 20.4795 13.2084 20.2917V4.70833C13.2084 4.52047 13.1337 4.3403 13.0009 4.20747C12.8681 4.07463 12.6879 4 12.5 4Z" fill="white" style="fill:white;fill-opacity:1;"/>
<path d="M9.66664 5.41684C9.47878 5.41684 9.29861 5.49147 9.16577 5.62431C9.03294 5.75714 8.95831 5.93731 8.95831 6.12517V18.8752C8.95831 19.063 9.03294 19.2432 9.16577 19.376C9.29861 19.5089 9.47878 19.5835 9.66664 19.5835C9.8545 19.5835 10.0347 19.5089 10.1675 19.376C10.3003 19.2432 10.375 19.063 10.375 18.8752V6.12517C10.375 5.93731 10.3003 5.75714 10.1675 5.62431C10.0347 5.49147 9.8545 5.41684 9.66664 5.41684Z" fill="white" style="fill:white;fill-opacity:1;"/>
<path d="M6.83333 8.25C6.64547 8.25 6.4653 8.32463 6.33247 8.45747C6.19963 8.5903 6.125 8.77047 6.125 8.95833V16.0417C6.125 16.2295 6.19963 16.4097 6.33247 16.5425C6.4653 16.6754 6.64547 16.75 6.83333 16.75C7.02119 16.75 7.20136 16.6754 7.3342 16.5425C7.46704 16.4097 7.54167 16.2295 7.54167 16.0417V8.95833C7.54167 8.77047 7.46704 8.5903 7.3342 8.45747C7.20136 8.32463 7.02119 8.25 6.83333 8.25Z" fill="white" style="fill:white;fill-opacity:1;"/>
<path d="M4.70833 11.0832C4.52047 11.0832 4.3403 11.1578 4.20747 11.2906C4.07463 11.4235 4 11.6036 4 11.7915V13.2082C4 13.396 4.07463 13.5762 4.20747 13.709C4.3403 13.8419 4.52047 13.9165 4.70833 13.9165C4.89619 13.9165 5.07636 13.8419 5.2092 13.709C5.34204 13.5762 5.41667 13.396 5.41667 13.2082V11.7915C5.41667 11.6036 5.34204 11.4235 5.2092 11.2906C5.07636 11.1578 4.89619 11.0832 4.70833 11.0832Z" fill="white" style="fill:white;fill-opacity:1;"/>
<path d="M15.3333 5.41684C15.1455 5.41684 14.9653 5.49147 14.8325 5.62431C14.6996 5.75714 14.625 5.93731 14.625 6.12517V18.8752C14.625 19.063 14.6996 19.2432 14.8325 19.376C14.9653 19.5089 15.1455 19.5835 15.3333 19.5835C15.5212 19.5835 15.7014 19.5089 15.8342 19.376C15.967 19.2432 16.0417 19.063 16.0417 18.8752V6.12517C16.0417 5.93731 15.967 5.75714 15.8342 5.62431C15.7014 5.49147 15.5212 5.41684 15.3333 5.41684Z" fill="white" style="fill:white;fill-opacity:1;"/>
<path d="M18.1667 8.25C17.9788 8.25 17.7986 8.32463 17.6658 8.45747C17.533 8.5903 17.4583 8.77047 17.4583 8.95833V16.0417C17.4583 16.2295 17.533 16.4097 17.6658 16.5425C17.7986 16.6754 17.9788 16.75 18.1667 16.75C18.3545 16.75 18.5347 16.6754 18.6675 16.5425C18.8004 16.4097 18.875 16.2295 18.875 16.0417V8.95833C18.875 8.77047 18.8004 8.5903 18.6675 8.45747C18.5347 8.32463 18.3545 8.25 18.1667 8.25Z" fill="white" style="fill:white;fill-opacity:1;"/>
<path d="M20.2917 11.0832C20.1038 11.0832 19.9236 11.1578 19.7908 11.2906C19.658 11.4235 19.5833 11.6036 19.5833 11.7915V13.2082C19.5833 13.396 19.658 13.5762 19.7908 13.709C19.9236 13.8419 20.1038 13.9165 20.2917 13.9165C20.4795 13.9165 20.6597 13.8419 20.7925 13.709C20.9254 13.5762 21 13.396 21 13.2082V11.7915C21 11.6036 20.9254 11.4235 20.7925 11.2906C20.6597 11.1578 20.4795 11.0832 20.2917 11.0832Z" fill="white" style="fill:white;fill-opacity:1;"/>
</svg>
