<svg width="24" height="24" viewBox="0 0 24 24" fill="none" xmlns="http://www.w3.org/2000/svg">
<path fill-rule="evenodd" clip-rule="evenodd" d="M10.7501 20.3652C10.8269 20.3652 10.889 20.4274 10.889 20.5041C10.889 20.5808 10.8269 20.643 10.7501 20.643C10.6734 20.643 10.6113 20.5808 10.6113 20.5041C10.6113 20.4274 10.6734 20.3652 10.7501 20.3652ZM12.389 20.5041C12.389 19.599 11.6553 18.8652 10.7501 18.8652C9.84502 18.8652 9.11126 19.599 9.11126 20.5041C9.11126 21.4093 9.84502 22.143 10.7501 22.143C11.6553 22.143 12.389 21.4093 12.389 20.5041Z" fill="white" style="fill:white;fill-opacity:1;"/>
<path fill-rule="evenodd" clip-rule="evenodd" d="M2.74998 10.8652C2.33577 10.8652 1.99998 11.201 1.99998 11.6152V16.9486C1.99998 17.3628 2.33577 17.6986 2.74998 17.6986H8.08331C8.49753 17.6986 8.83331 17.3628 8.83331 16.9486C8.83331 16.5344 8.49753 16.1986 8.08331 16.1986H3.49998V11.6152C3.49998 11.201 3.16419 10.8652 2.74998 10.8652Z" fill="white" style="fill:white;fill-opacity:1;"/>
<path fill-rule="evenodd" clip-rule="evenodd" d="M10.7505 13.2539C12.6732 13.254 14.5171 14.0178 15.8766 15.3774C17.2363 16.737 18.0001 18.5811 18.0001 20.5039C18.0001 20.9181 18.3359 21.2539 18.7501 21.2539C19.1643 21.2539 19.5001 20.9181 19.5001 20.5039C19.5001 18.1833 18.5782 15.9577 16.9373 14.3167C15.2964 12.6758 13.0708 11.7539 10.7501 11.7539H10.7494C8.596 11.7561 6.51908 12.5523 4.91603 13.99L4.91506 13.9909L2.2484 16.3909C1.94052 16.668 1.91556 17.1422 2.19265 17.4501C2.46975 17.758 2.94396 17.7829 3.25185 17.5058L5.91755 15.1067C5.91778 15.1065 5.91801 15.1063 5.91823 15.1061C7.24628 13.9153 8.96672 13.2558 10.7505 13.2539Z" fill="white" style="fill:white;fill-opacity:1;"/>
<path d="M13.4422 9.615V4.467L12.2272 5.214V3.864L13.4422 3.135H14.6932V9.615H13.4422Z" fill="white" style="fill:white;fill-opacity:1;"/>
<path d="M18.8071 9.75C18.3271 9.75 17.9071 9.6495 17.5471 9.4485C17.1871 9.2475 16.9066 8.967 16.7056 8.607C16.5046 8.247 16.4041 7.827 16.4041 7.347V5.403C16.4041 4.923 16.5046 4.503 16.7056 4.143C16.9066 3.783 17.1871 3.5025 17.5471 3.3015C17.9071 3.1005 18.3271 3 18.8071 3C19.2871 3 19.7071 3.1005 20.0671 3.3015C20.4271 3.5025 20.7076 3.783 20.9086 4.143C21.1096 4.503 21.2101 4.923 21.2101 5.403V7.347C21.2101 7.827 21.1096 8.247 20.9086 8.607C20.7076 8.967 20.4271 9.2475 20.0671 9.4485C19.7071 9.6495 19.2871 9.75 18.8071 9.75ZM18.8071 8.589C19.0231 8.589 19.2181 8.538 19.3921 8.436C19.5661 8.334 19.7041 8.196 19.8061 8.022C19.9081 7.848 19.9591 7.653 19.9591 7.437V5.304C19.9591 5.088 19.9081 4.893 19.8061 4.719C19.7041 4.545 19.5661 4.407 19.3921 4.305C19.2181 4.203 19.0231 4.152 18.8071 4.152C18.5911 4.152 18.3961 4.203 18.2221 4.305C18.0481 4.407 17.9101 4.545 17.8081 4.719C17.7061 4.893 17.6551 5.088 17.6551 5.304V7.437C17.6551 7.653 17.7061 7.848 17.8081 8.022C17.9101 8.196 18.0481 8.334 18.2221 8.436C18.3961 8.538 18.5911 8.589 18.8071 8.589Z" fill="white" style="fill:white;fill-opacity:1;"/>
</svg>
