<svg width="24" height="24" viewBox="0 0 24 24" fill="none" xmlns="http://www.w3.org/2000/svg">
<path fill-rule="evenodd" clip-rule="evenodd" d="M2.83331 5.50033C2.83331 5.04009 3.20641 4.66699 3.66665 4.66699H8.66665C9.77171 4.66699 10.8315 5.10598 11.6129 5.88738C12.3943 6.66878 12.8333 7.72859 12.8333 8.83366V20.5003C12.8333 20.9606 12.4602 21.3337 12 21.3337C11.5397 21.3337 11.1666 20.9606 11.1666 20.5003C11.1666 20.0583 10.9911 19.6344 10.6785 19.3218C10.3659 19.0093 9.94201 18.8337 9.49998 18.8337H3.66665C3.20641 18.8337 2.83331 18.4606 2.83331 18.0003V5.50033ZM11.1666 17.6136V8.83366C11.1666 8.17062 10.9033 7.53473 10.4344 7.06589C9.96557 6.59705 9.32969 6.33366 8.66665 6.33366H4.49998V17.167H9.49998C10.0902 17.167 10.6642 17.3235 11.1666 17.6136Z" fill="white" style="fill:white;fill-opacity:1;"/>
<path fill-rule="evenodd" clip-rule="evenodd" d="M12.3871 5.88738C13.1685 5.10598 14.2283 4.66699 15.3334 4.66699H20.3334C20.7936 4.66699 21.1667 5.04009 21.1667 5.50033V18.0003C21.1667 18.4606 20.7936 18.8337 20.3334 18.8337H14.5C14.058 18.8337 13.6341 19.0093 13.3215 19.3218C13.0089 19.6344 12.8334 20.0583 12.8334 20.5003C12.8334 20.9606 12.4603 21.3337 12 21.3337C11.5398 21.3337 11.1667 20.9606 11.1667 20.5003V8.83366C11.1667 7.72859 11.6057 6.66878 12.3871 5.88738ZM12.8334 17.6136C13.3358 17.3235 13.9098 17.167 14.5 17.167H19.5V6.33366H15.3334C14.6703 6.33366 14.0344 6.59705 13.5656 7.06589C13.0967 7.53473 12.8334 8.17062 12.8334 8.83366V17.6136Z" fill="white" style="fill:white;fill-opacity:1;"/>
</svg>
