<svg width="24" height="24" viewBox="0 0 24 24" fill="none" xmlns="http://www.w3.org/2000/svg">
<path d="M9 15.5C9 16.0523 8.55228 16.5 8 16.5C7.44772 16.5 7 16.0523 7 15.5C7 14.9477 7.44772 14.5 8 14.5C8.55228 14.5 9 14.9477 9 15.5Z" fill="#EFF0FA" style="fill:#EFF0FA;fill:color(display-p3 0.9373 0.9412 0.9804);fill-opacity:1;"/>
<path d="M16 16.5C16.5523 16.5 17 16.0523 17 15.5C17 14.9477 16.5523 14.5 16 14.5C15.4477 14.5 15 14.9477 15 15.5C15 16.0523 15.4477 16.5 16 16.5Z" fill="#EFF0FA" style="fill:#EFF0FA;fill:color(display-p3 0.9373 0.9412 0.9804);fill-opacity:1;"/>
<path fill-rule="evenodd" clip-rule="evenodd" d="M9.25 5C9.25 3.48122 10.4812 2.25 12 2.25C13.5188 2.25 14.75 3.48122 14.75 5C14.75 6.34803 13.7801 7.46953 12.5 7.70466V10H18C19.6569 10 21 11.3431 21 13V18C21 19.6569 19.6569 21 18 21H6C4.34315 21 3 19.6569 3 18V13C3 11.3431 4.34315 10 6 10H11.5V7.70466C10.2199 7.46953 9.25 6.34803 9.25 5ZM12 3.75C11.3096 3.75 10.75 4.30964 10.75 5C10.75 5.69036 11.3096 6.25 12 6.25C12.6904 6.25 13.25 5.69036 13.25 5C13.25 4.30964 12.6904 3.75 12 3.75ZM6 11.5C5.17157 11.5 4.5 12.1716 4.5 13V18C4.5 18.8284 5.17157 19.5 6 19.5H18C18.8284 19.5 19.5 18.8284 19.5 18V13C19.5 12.1716 18.8284 11.5 18 11.5H6Z" fill="#EFF0FA" style="fill:#EFF0FA;fill:color(display-p3 0.9373 0.9412 0.9804);fill-opacity:1;"/>
</svg>
