<svg width="24" height="24" viewBox="0 0 24 24" fill="none" xmlns="http://www.w3.org/2000/svg">
<path d="M3 17.2857V7H5.26988C5.76752 7 6.189 7.07223 6.5343 7.21669C6.88977 7.36116 7.17921 7.55377 7.40265 7.79454C7.62608 8.03531 7.7835 8.31461 7.8749 8.63242C7.97646 8.94061 8.02724 9.26324 8.02724 9.60032V9.97592C8.02724 10.2552 8.00185 10.4912 7.95107 10.6838C7.91045 10.8764 7.84443 11.0449 7.75303 11.1894C7.58038 11.4591 7.31632 11.6902 6.96086 11.8828C7.32647 12.0465 7.59561 12.2873 7.76826 12.6051C7.94092 12.923 8.02724 13.3563 8.02724 13.9053V14.4831C8.02724 15.3884 7.79365 16.0819 7.32647 16.5634C6.86945 17.0449 6.13314 17.2857 5.11753 17.2857H3ZM4.55387 12.5185V15.8122H5.22417C5.53901 15.8122 5.78276 15.7689 5.95541 15.6822C6.13822 15.5955 6.27532 15.4751 6.36673 15.321C6.45813 15.1669 6.51399 14.9839 6.5343 14.7721C6.55462 14.5602 6.56477 14.3291 6.56477 14.0787C6.56477 13.8186 6.54954 13.5923 6.51907 13.3997C6.4886 13.2071 6.42766 13.0433 6.33626 12.9085C6.2347 12.7737 6.09759 12.6774 5.92494 12.6196C5.75229 12.5522 5.52378 12.5185 5.23941 12.5185H4.55387ZM4.55387 8.38684V11.2183H5.25464C5.7726 11.2183 6.11791 11.0979 6.29056 10.8571C6.47337 10.6067 6.56477 10.2456 6.56477 9.77367C6.56477 9.3114 6.46321 8.96469 6.26009 8.73355C6.06713 8.50241 5.71166 8.38684 5.19371 8.38684H4.55387Z" fill="white" style="fill:white;fill-opacity:1;"/>
<path d="M11.0403 8.38684V11.5939H11.9238C12.198 11.5939 12.4164 11.5602 12.5789 11.4928C12.7414 11.4157 12.8683 11.3098 12.9597 11.175C13.041 11.0401 13.0969 10.8764 13.1273 10.6838C13.1578 10.4815 13.173 10.2504 13.173 9.99037C13.173 9.73034 13.1578 9.50401 13.1273 9.3114C13.0969 9.10915 13.0359 8.93579 12.9445 8.79133C12.7515 8.52167 12.3859 8.38684 11.8477 8.38684H11.0403ZM9.48638 17.2857V7H11.9848C13.8129 7 14.7269 8.00642 14.7269 10.0193C14.7269 10.626 14.6253 11.1413 14.4222 11.565C14.2293 11.9888 13.8839 12.3307 13.3863 12.5907L15.062 17.2857H13.4168L11.9695 12.8941H11.0403V17.2857H9.48638Z" fill="white" style="fill:white;fill-opacity:1;"/>
<path d="M15.9728 17.2857V7H18.2426C18.7403 7 19.1618 7.07223 19.5071 7.21669C19.8625 7.36116 20.152 7.55377 20.3754 7.79454C20.5988 8.03531 20.7563 8.31461 20.8477 8.63242C20.9492 8.94061 21 9.26324 21 9.60032V9.97592C21 10.2552 20.9746 10.4912 20.9238 10.6838C20.8832 10.8764 20.8172 11.0449 20.7258 11.1894C20.5531 11.4591 20.2891 11.6902 19.9336 11.8828C20.2992 12.0465 20.5684 12.2873 20.741 12.6051C20.9137 12.923 21 13.3563 21 13.9053V14.4831C21 15.3884 20.7664 16.0819 20.2992 16.5634C19.8422 17.0449 19.1059 17.2857 18.0903 17.2857H15.9728ZM17.5266 12.5185V15.8122H18.1969C18.5118 15.8122 18.7555 15.7689 18.9282 15.6822C19.111 15.5955 19.2481 15.4751 19.3395 15.321C19.4309 15.1669 19.4867 14.9839 19.5071 14.7721C19.5274 14.5602 19.5375 14.3291 19.5375 14.0787C19.5375 13.8186 19.5223 13.5923 19.4918 13.3997C19.4614 13.2071 19.4004 13.0433 19.309 12.9085C19.2075 12.7737 19.0704 12.6774 18.8977 12.6196C18.725 12.5522 18.4965 12.5185 18.2122 12.5185H17.5266ZM17.5266 8.38684V11.2183H18.2274C18.7454 11.2183 19.0907 11.0979 19.2633 10.8571C19.4461 10.6067 19.5375 10.2456 19.5375 9.77367C19.5375 9.3114 19.436 8.96469 19.2328 8.73355C19.0399 8.50241 18.6844 8.38684 18.1665 8.38684H17.5266Z" fill="white" style="fill:white;fill-opacity:1;"/>
</svg>
