<svg width="24" height="24" viewBox="0 0 24 24" fill="none" xmlns="http://www.w3.org/2000/svg">
<path fill-rule="evenodd" clip-rule="evenodd" d="M15.9984 4.02519C15.5704 3.9156 15.1345 4.17374 15.0249 4.60176C14.9154 5.02978 15.1735 5.4656 15.6015 5.57519C16.1178 5.70737 16.5753 6.00761 16.9021 6.42858C17.2289 6.84954 17.4062 7.36729 17.4062 7.90019C17.4062 8.43309 17.2289 8.95084 16.9021 9.3718C16.5753 9.79277 16.1178 10.093 15.6015 10.2252C15.1735 10.3348 14.9154 10.7706 15.0249 11.1986C15.1345 11.6266 15.5704 11.8848 15.9984 11.7752C16.8588 11.5549 17.6214 11.0545 18.166 10.3529C18.7106 9.65127 19.0062 8.78836 19.0062 7.90019C19.0062 7.01202 18.7106 6.14911 18.166 5.4475C17.6214 4.74589 16.8588 4.24549 15.9984 4.02519ZM18.2 13.6257C17.7722 13.5152 17.3359 13.7725 17.2254 14.2003C17.115 14.6281 17.3722 15.0644 17.8 15.1749C18.3149 15.3078 18.771 15.608 19.0968 16.0283C19.4226 16.4485 19.5996 16.9652 19.6 17.4969L19.6 19.0963C19.6 19.5381 19.9582 19.8963 20.4 19.8963C20.8419 19.8963 21.2 19.5381 21.2 19.0963V17.4957C21.1994 16.6094 20.9044 15.7485 20.3614 15.048C19.8184 14.3476 19.0582 13.8473 18.2 13.6257Z" fill="white" style="fill:white;fill-opacity:1;"/>
<path fill-rule="evenodd" clip-rule="evenodd" d="M8.20169 4.02519C8.62971 3.9156 9.06553 4.17374 9.17512 4.60176C9.28472 5.02978 9.02658 5.4656 8.59856 5.57519C8.08231 5.70737 7.62473 6.00761 7.29797 6.42858C6.97121 6.84954 6.79385 7.36729 6.79385 7.90019C6.79385 8.43309 6.97121 8.95084 7.29797 9.3718C7.62473 9.79277 8.08231 10.093 8.59856 10.2252C9.02658 10.3348 9.28472 10.7706 9.17512 11.1986C9.06553 11.6266 8.62971 11.8848 8.20169 11.7752C7.34128 11.5549 6.57866 11.0545 6.03406 10.3529C5.48945 9.65127 5.19385 8.78836 5.19385 7.90019C5.19385 7.01202 5.48945 6.14911 6.03406 5.4475C6.57866 4.74589 7.34128 4.24549 8.20169 4.02519ZM6.00005 13.6257C6.42785 13.5152 6.86419 13.7725 6.97465 14.2003C7.0851 14.6281 6.82785 15.0644 6.40005 15.1749C5.88517 15.3078 5.42902 15.608 5.10323 16.0283C4.77749 16.4485 4.6005 16.9652 4.60005 17.4969L4.60005 19.0963C4.60005 19.5381 4.24188 19.8963 3.80005 19.8963C3.35822 19.8963 3.00005 19.5381 3.00005 19.0963V17.4957C3.00071 16.6094 3.2957 15.7485 3.83869 15.048C4.38168 14.3476 5.14192 13.8473 6.00005 13.6257Z" fill="white" style="fill:white;fill-opacity:1;"/>
<path d="M12 4V19.5" stroke="white" style="stroke:white;stroke-opacity:1;" stroke-width="1.75" stroke-linecap="round"/>
</svg>
