<svg width="24" height="24" viewBox="0 0 24 24" fill="none" xmlns="http://www.w3.org/2000/svg">
<path fill-rule="evenodd" clip-rule="evenodd" d="M7.65308 3C7.26554 3 6.89387 3.15395 6.61984 3.42798C6.34581 3.70202 6.19186 4.07368 6.19186 4.46122V19.4388H4.73061C4.32711 19.4388 4 19.7659 4 20.1694C4 20.5729 4.32711 20.9 4.73061 20.9H6.92078C6.92134 20.9 6.92191 20.9 6.92247 20.9H17.8817C17.8822 20.9 17.8828 20.9 17.8833 20.9H20.0735C20.477 20.9 20.8041 20.5729 20.8041 20.1694C20.8041 19.7659 20.477 19.4388 20.0735 19.4388H18.6123V4.46122C18.6123 4.07369 18.4583 3.70202 18.1843 3.42798C17.9103 3.15395 17.5386 3 17.151 3H7.65308ZM17.151 19.4388V4.46122H7.65308L7.65308 19.4388H17.151ZM14.4112 12.224C14.4112 12.1687 14.4173 12.1148 14.429 12.063L14.1372 11.95C14.1372 11.6836 14.2431 11.4281 14.4315 11.2397C14.6199 11.0513 14.8754 10.9454 15.1418 10.9454C15.4082 10.9454 15.6638 11.0513 15.8522 11.2397C16.0406 11.4281 16.1464 11.6836 16.1464 11.95C16.1464 12.2164 16.0406 12.472 15.8522 12.6604C15.6638 12.8488 15.4082 12.9546 15.1418 12.9546C14.7383 12.9546 14.4112 12.6275 14.4112 12.224Z" fill="white" style="fill:white;fill-opacity:1;"/>
</svg>
