<svg width="24" height="24" viewBox="0 0 24 24" fill="none" xmlns="http://www.w3.org/2000/svg">
<path fill-rule="evenodd" clip-rule="evenodd" d="M12 4.63636C7.93318 4.63636 4.63636 7.93318 4.63636 12C4.63636 16.0668 7.93318 19.3636 12 19.3636C16.0668 19.3636 19.3636 16.0668 19.3636 12C19.3636 7.93318 16.0668 4.63636 12 4.63636ZM3 12C3 7.02944 7.02944 3 12 3C16.9706 3 21 7.02944 21 12C21 16.9706 16.9706 21 12 21C7.02944 21 3 16.9706 3 12ZM8.14871 11.4215C8.46823 11.1019 8.98627 11.1019 9.30579 11.4215L11.1818 13.2975V8.72727C11.1818 8.2754 11.5481 7.90909 12 7.90909C12.4519 7.90909 12.8182 8.2754 12.8182 8.72727V13.2975L14.6942 11.4215C15.0137 11.1019 15.5317 11.1019 15.8512 11.4215C16.1708 11.741 16.1708 12.259 15.8512 12.5785L12.5808 15.849C12.5735 15.8564 12.566 15.8636 12.5585 15.8707C12.4074 16.0119 12.2159 16.0852 12.0228 16.0906C12.0067 16.091 11.9906 16.091 11.9745 16.0905C11.8772 16.0875 11.7842 16.0676 11.6983 16.0335C11.5975 15.9936 11.503 15.9328 11.4214 15.8513L8.14871 12.5785C7.82919 12.259 7.82919 11.741 8.14871 11.4215Z" fill="white" style="fill:white;fill-opacity:1;"/>
</svg>
