<svg width="24" height="24" viewBox="0 0 24 24" fill="none" xmlns="http://www.w3.org/2000/svg">
<path d="M4.81477 16.1102C4.02727 16.1102 3.34716 15.9466 2.77443 15.6193C2.20511 15.2886 1.76705 14.8216 1.46023 14.2182C1.15341 13.6114 1 12.8972 1 12.0756C1 11.2676 1.15341 10.5585 1.46023 9.9483C1.77045 9.33466 2.20341 8.85739 2.75909 8.51648C3.31477 8.17216 3.96761 8 4.71761 8C5.2017 8 5.65852 8.07841 6.08807 8.23523C6.52102 8.38864 6.90284 8.62727 7.23352 8.95114C7.56761 9.275 7.83011 9.6875 8.02102 10.1886C8.21193 10.6864 8.30739 11.2795 8.30739 11.9682V12.5358H1.86932V11.2881H6.53296C6.52955 10.9335 6.45284 10.6182 6.30284 10.342C6.15284 10.0625 5.94318 9.84261 5.67386 9.68239C5.40796 9.52216 5.09773 9.44205 4.74318 9.44205C4.36477 9.44205 4.03239 9.53409 3.74602 9.71818C3.45966 9.89886 3.23636 10.1375 3.07614 10.4341C2.91932 10.7273 2.8392 11.0494 2.8358 11.4006V12.4898C2.8358 12.9466 2.91932 13.3386 3.08636 13.6659C3.25341 13.9898 3.48693 14.2386 3.78693 14.4125C4.08693 14.583 4.43807 14.6682 4.84034 14.6682C5.10966 14.6682 5.35341 14.6307 5.57159 14.5557C5.78977 14.4773 5.97898 14.3631 6.1392 14.2131C6.29943 14.0631 6.42045 13.8773 6.50227 13.6557L8.23068 13.85C8.12159 14.3068 7.91364 14.7057 7.60682 15.0466C7.30341 15.3841 6.91477 15.6466 6.44091 15.8341C5.96705 16.0182 5.425 16.1102 4.81477 16.1102Z" fill="white" style="fill:white;fill-opacity:1;"/>
<path d="M15.3614 10.1784L13.6739 10.3625C13.6262 10.192 13.5426 10.0318 13.4233 9.88182C13.3074 9.73182 13.1506 9.6108 12.9529 9.51875C12.7551 9.4267 12.5131 9.38068 12.2267 9.38068C11.8415 9.38068 11.5176 9.4642 11.2551 9.63125C10.9961 9.7983 10.8682 10.0148 10.8716 10.2807C10.8682 10.5091 10.9517 10.6949 11.1222 10.8381C11.2961 10.9813 11.5824 11.0989 11.9813 11.1909L13.3211 11.4773C14.0642 11.6375 14.6165 11.8915 14.9779 12.2392C15.3426 12.5869 15.5267 13.042 15.5301 13.6045C15.5267 14.0989 15.3818 14.5352 15.0955 14.9136C14.8125 15.2886 14.4188 15.5818 13.9142 15.7932C13.4097 16.0045 12.8301 16.1102 12.1756 16.1102C11.2142 16.1102 10.4404 15.9091 9.85401 15.5068C9.26764 15.1011 8.91821 14.5369 8.80571 13.8142L10.6108 13.6403C10.6926 13.9949 10.8665 14.2625 11.1324 14.4432C11.3983 14.6239 11.7443 14.7142 12.1705 14.7142C12.6103 14.7142 12.9631 14.6239 13.229 14.4432C13.4983 14.2625 13.633 14.0392 13.633 13.7733C13.633 13.5483 13.5461 13.3625 13.3722 13.2159C13.2017 13.0693 12.9358 12.9568 12.5745 12.8784L11.2347 12.5972C10.4813 12.4403 9.92389 12.1761 9.56253 11.8045C9.20117 11.4295 9.02219 10.9557 9.0256 10.383C9.02219 9.89886 9.15344 9.47955 9.41935 9.125C9.68867 8.76705 10.062 8.49091 10.5392 8.29659C11.0199 8.09886 11.5739 8 12.2012 8C13.1216 8 13.8461 8.19602 14.3745 8.58807C14.9063 8.98011 15.2353 9.51023 15.3614 10.1784Z" fill="white" style="fill:white;fill-opacity:1;"/>
<path d="M19.7627 16.1102C18.9786 16.1102 18.3053 15.9381 17.7428 15.5938C17.1837 15.2494 16.7525 14.7739 16.4491 14.167C16.1491 13.5568 15.9991 12.8545 15.9991 12.0602C15.9991 11.2625 16.1525 10.5585 16.4593 9.9483C16.7661 9.33466 17.1991 8.85739 17.7582 8.51648C18.3207 8.17216 18.9854 8 19.7525 8C20.39 8 20.9542 8.11761 21.4451 8.35284C21.9394 8.58466 22.3332 8.91364 22.6263 9.33977C22.9195 9.7625 23.0866 10.2568 23.1275 10.8227H21.3582C21.2866 10.4443 21.1161 10.129 20.8468 9.8767C20.5809 9.62102 20.2246 9.49318 19.778 9.49318C19.3996 9.49318 19.0672 9.59545 18.7809 9.8C18.4945 10.0011 18.2712 10.2909 18.111 10.6693C17.9542 11.0477 17.8758 11.5011 17.8758 12.0295C17.8758 12.5648 17.9542 13.025 18.111 13.4102C18.2678 13.792 18.4877 14.0869 18.7707 14.2949C19.057 14.4994 19.3928 14.6017 19.778 14.6017C20.0508 14.6017 20.2945 14.5506 20.5093 14.4483C20.7275 14.3426 20.9099 14.1909 21.0564 13.9932C21.203 13.7955 21.3036 13.5551 21.3582 13.2722H23.1275C23.0832 13.8278 22.9195 14.3205 22.6366 14.75C22.3536 15.1761 21.9684 15.5102 21.4809 15.7523C20.9934 15.9909 20.4207 16.1102 19.7627 16.1102Z" fill="white" style="fill:white;fill-opacity:1;"/>
</svg>
