<svg width="24" height="24" viewBox="0 0 24 24" fill="none" xmlns="http://www.w3.org/2000/svg">
<path fill-rule="evenodd" clip-rule="evenodd" d="M12.4599 20.3652C12.3832 20.3652 12.321 20.4274 12.321 20.5041C12.321 20.5808 12.3832 20.643 12.4599 20.643C12.5366 20.643 12.5988 20.5808 12.5988 20.5041C12.5988 20.4274 12.5366 20.3652 12.4599 20.3652ZM10.821 20.5041C10.821 19.599 11.5548 18.8652 12.4599 18.8652C13.3651 18.8652 14.0988 19.599 14.0988 20.5041C14.0988 21.4093 13.3651 22.143 12.4599 22.143C11.5548 22.143 10.821 21.4093 10.821 20.5041Z" fill="white" style="fill:white;fill-opacity:1;"/>
<path fill-rule="evenodd" clip-rule="evenodd" d="M20.46 10.8652C20.8742 10.8652 21.21 11.201 21.21 11.6152V16.9486C21.21 17.3628 20.8742 17.6986 20.46 17.6986H15.1266C14.7124 17.6986 14.3766 17.3628 14.3766 16.9486C14.3766 16.5344 14.7124 16.1986 15.1266 16.1986H19.71V11.6152C19.71 11.201 20.0458 10.8652 20.46 10.8652Z" fill="white" style="fill:white;fill-opacity:1;"/>
<path fill-rule="evenodd" clip-rule="evenodd" d="M12.4596 13.2539C10.5369 13.254 8.69299 14.0178 7.33344 15.3774C5.9738 16.737 5.20996 18.5811 5.20996 20.5039C5.20996 20.9181 4.87417 21.2539 4.45996 21.2539C4.04575 21.2539 3.70996 20.9181 3.70996 20.5039C3.70996 18.1833 4.63183 15.9577 6.27278 14.3167C7.91372 12.6758 10.1393 11.7539 12.46 11.7539H12.4607C14.6141 11.7561 16.691 12.5523 18.2941 13.99L18.295 13.9909L20.9617 16.3909C21.2696 16.668 21.2945 17.1422 21.0174 17.4501C20.7403 17.758 20.2661 17.7829 19.9582 17.5058L17.2925 15.1067C17.2923 15.1065 17.2921 15.1063 17.2919 15.1061C15.9638 13.9153 14.2434 13.2558 12.4596 13.2539Z" fill="white" style="fill:white;fill-opacity:1;"/>
<path d="M3.215 9.615V4.467L2 5.214V3.864L3.215 3.135H4.466V9.615H3.215Z" fill="white" style="fill:white;fill-opacity:1;"/>
<path d="M8.57991 9.75C8.09991 9.75 7.67991 9.6495 7.31991 9.4485C6.95991 9.2475 6.67941 8.967 6.47841 8.607C6.27741 8.247 6.17691 7.827 6.17691 7.347V5.403C6.17691 4.923 6.27741 4.503 6.47841 4.143C6.67941 3.783 6.95991 3.5025 7.31991 3.3015C7.67991 3.1005 8.09991 3 8.57991 3C9.05991 3 9.47991 3.1005 9.83991 3.3015C10.1999 3.5025 10.4804 3.783 10.6814 4.143C10.8824 4.503 10.9829 4.923 10.9829 5.403V7.347C10.9829 7.827 10.8824 8.247 10.6814 8.607C10.4804 8.967 10.1999 9.2475 9.83991 9.4485C9.47991 9.6495 9.05991 9.75 8.57991 9.75ZM8.57991 8.589C8.79591 8.589 8.99091 8.538 9.16491 8.436C9.33891 8.334 9.47691 8.196 9.57891 8.022C9.68091 7.848 9.73191 7.653 9.73191 7.437V5.304C9.73191 5.088 9.68091 4.893 9.57891 4.719C9.47691 4.545 9.33891 4.407 9.16491 4.305C8.99091 4.203 8.79591 4.152 8.57991 4.152C8.36391 4.152 8.16891 4.203 7.99491 4.305C7.82091 4.407 7.68291 4.545 7.58091 4.719C7.47891 4.893 7.42791 5.088 7.42791 5.304V7.437C7.42791 7.653 7.47891 7.848 7.58091 8.022C7.68291 8.196 7.82091 8.334 7.99491 8.436C8.16891 8.538 8.36391 8.589 8.57991 8.589Z" fill="white" style="fill:white;fill-opacity:1;"/>
</svg>
