<svg width="24" height="24" viewBox="0 0 24 24" fill="none" xmlns="http://www.w3.org/2000/svg">
<path fill-rule="evenodd" clip-rule="evenodd" d="M2.53034 2.46967C2.23745 2.76256 2.23745 3.23744 2.53034 3.53033L5.1556 6.15559C3.81159 7.72806 3.00001 9.76925 3.00001 12C3.00001 16.9706 7.02944 21 12 21C14.2307 21 16.2719 20.1884 17.8444 18.8444L20.6992 21.6992C20.9921 21.9921 21.467 21.9921 21.7599 21.6992C22.0528 21.4063 22.0528 20.9314 21.7599 20.6385L18.9 17.7787C20.2108 16.2153 21 14.1998 21 12C21 7.02943 16.9706 3 12 3C9.8002 3 7.78473 3.78923 6.2213 5.09997L3.591 2.46967C3.29811 2.17678 2.82323 2.17678 2.53034 2.46967ZM6.31704 7.31704C5.43032 8.39188 4.84262 9.72259 4.68131 11.1818H7.95009C8.00307 10.5289 8.10387 9.88347 8.25053 9.25052L6.31704 7.31704ZM8.74026 7.61893L7.38388 6.26255C8.18222 5.61942 9.11756 5.13951 10.1392 4.87349C9.56696 5.73366 9.09804 6.65529 8.74026 7.61893ZM9.65363 10.6536C9.62932 10.8289 9.60896 11.005 9.59259 11.1818H10.1818L9.65363 10.6536ZM12.3031 11.1818L10.0325 8.91114C10.4446 7.53182 11.1097 6.23405 12 5.08702C13.3661 6.84704 14.2019 8.96195 14.4074 11.1818H12.3031ZM11.8182 12.8182H9.59259C9.79811 15.038 10.6339 17.153 12 18.913C12.9105 17.74 13.5854 16.4094 13.9951 14.9951L11.8182 12.8182ZM14.3607 13.2394L13.9395 12.8182H14.4074C14.3944 12.959 14.3788 13.0995 14.3607 13.2394ZM15.2923 16.2923C14.9306 17.2881 14.4506 18.24 13.8608 19.1265C14.9111 18.853 15.8702 18.3535 16.683 17.683L15.2923 16.2923ZM17.7374 16.6161L15.772 14.6507C15.9065 14.0494 15.9997 13.4372 16.0499 12.8182H19.3187C19.1607 14.2473 18.5938 15.5532 17.7374 16.6161ZM13.8608 4.87349C15.1098 6.75089 15.8665 8.92102 16.0499 11.1818H19.3187C18.9807 8.12446 16.771 5.63125 13.8608 4.87349ZM7.95009 12.8182H4.68131C5.01928 15.8755 7.22903 18.3687 10.1392 19.1265C8.89019 17.2491 8.13353 15.079 7.95009 12.8182Z" fill="white" style="fill:white;fill-opacity:1;"/>
</svg>
