<svg width="24" height="24" viewBox="0 0 24 24" fill="none" xmlns="http://www.w3.org/2000/svg">
<path fill-rule="evenodd" clip-rule="evenodd" d="M20.6695 3.25075C21.0038 3.58509 21.0038 4.12715 20.6695 4.46149L19.5626 5.56836L21.5256 7.53136C21.86 7.86569 21.86 8.40776 21.5256 8.7421L18.5292 11.7385C18.1949 12.0729 17.6528 12.0729 17.3185 11.7385L15.3555 9.77553L13.0042 12.1268C13.2674 12.4828 13.4878 12.8698 13.6601 13.2799C13.9444 13.9565 14.092 14.6827 14.0944 15.4166C14.0969 16.1505 13.9541 16.8776 13.6744 17.5562C13.3947 18.2347 12.9835 18.8512 12.4646 19.3701C11.9456 19.8891 11.3291 20.3002 10.6506 20.58C9.97208 20.8597 9.24493 21.0024 8.51102 21C7.77711 20.9975 7.05093 20.8499 6.3743 20.5656C5.69767 20.2814 5.08396 19.8661 4.56849 19.3437L4.56207 19.3372C3.5484 18.2876 2.98753 16.8819 3.00021 15.4228C3.01289 13.9638 3.59813 12.568 4.62989 11.5363C5.66165 10.5045 7.05736 9.91929 8.51643 9.90661C9.69174 9.8964 10.8324 10.2584 11.7802 10.9293L19.4588 3.25075C19.7931 2.91642 20.3352 2.91642 20.6695 3.25075ZM18.3519 6.7791L16.5662 8.56479L17.9238 9.92241L19.7095 8.13673L18.3519 6.7791ZM5.79054 18.1443C5.09076 17.4181 4.70362 16.4463 4.71239 15.4377C4.72117 14.4276 5.12633 13.4613 5.84063 12.747C6.55492 12.0327 7.52119 11.6276 8.53131 11.6188C9.54144 11.61 10.5146 11.9983 11.2412 12.7001C11.6072 13.0536 11.8859 13.4774 12.0815 13.943C12.2783 14.4115 12.3805 14.9142 12.3822 15.4223C12.3839 15.9304 12.2851 16.4338 12.0914 16.9036C11.8978 17.3733 11.6131 17.8001 11.2538 18.1594C10.8945 18.5187 10.4678 18.8033 9.99801 18.997C9.52826 19.1906 9.02485 19.2894 8.51676 19.2877C8.00867 19.286 7.50593 19.1838 7.03749 18.987C6.57047 18.7908 6.14673 18.5045 5.79054 18.1443ZM5.79054 18.1443L5.7937 18.1476L5.78731 18.1411L5.79054 18.1443Z" fill="white" style="fill:white;fill-opacity:1;"/>
</svg>
