<svg width="24" height="24" viewBox="0 0 24 24" fill="none" xmlns="http://www.w3.org/2000/svg">
<path fill-rule="evenodd" clip-rule="evenodd" d="M3.61225 2.37445C3.27054 2.03274 2.71652 2.03274 2.37481 2.37445C2.0331 2.71615 2.0331 3.27017 2.37481 3.61188L5.66407 6.90114C4.92649 7.16495 4.24875 7.59016 3.68426 8.15465C2.68174 9.15717 2.11853 10.5169 2.11853 11.9347C2.11853 13.3524 2.68174 14.7122 3.68426 15.7147C4.68679 16.7172 6.0465 17.2804 7.46428 17.2804H9.25258C9.73583 17.2804 10.1276 16.8887 10.1276 16.4054C10.1276 15.9222 9.73583 15.5304 9.25258 15.5304H7.46428C6.51063 15.5304 5.59603 15.1516 4.9217 14.4772C4.24737 13.8029 3.86853 12.8883 3.86853 11.9347C3.86853 10.981 4.24737 10.0664 4.9217 9.39209C5.51404 8.79975 6.29176 8.43541 7.1185 8.35557L9.8226 11.0597H8.35846C7.87521 11.0597 7.48346 11.4514 7.48346 11.9347C7.48346 12.4179 7.87521 12.8097 8.35846 12.8097H11.5726L20.2578 21.4949C20.5995 21.8366 21.1535 21.8366 21.4952 21.4949C21.837 21.1532 21.837 20.5992 21.4952 20.2574L12.5574 11.3196C12.555 11.3172 12.5526 11.3147 12.5501 11.3123L3.61225 2.37445ZM14.6174 6.58892C14.1342 6.58892 13.7424 6.98067 13.7424 7.46392C13.7424 7.94716 14.1342 8.33891 14.6174 8.33891H16.4057C17.0735 8.33891 17.7281 8.52487 18.2961 8.87594C18.8642 9.22701 19.3232 9.72932 19.6219 10.3266C19.9205 10.9239 20.0469 11.5925 19.987 12.2576C19.927 12.9227 19.683 13.5579 19.2823 14.0921C18.9924 14.4787 19.0707 15.0272 19.4573 15.3171C19.8439 15.6071 20.3924 15.5287 20.6823 15.1421C21.278 14.3479 21.6407 13.4035 21.7299 12.4147C21.819 11.426 21.6311 10.4319 21.1871 9.54397C20.7431 8.65601 20.0607 7.90923 19.2162 7.3873C18.3717 6.86537 17.3985 6.58892 16.4057 6.58892H14.6174Z" fill="white" style="fill:white;fill-opacity:1;"/>
</svg>
