<svg width="24" height="24" viewBox="0 0 24 24" fill="none" xmlns="http://www.w3.org/2000/svg">
<path d="M13.4027 11.7053C13.224 11.5294 12.9832 11.4308 12.7324 11.4308C12.481 11.4308 12.2397 11.53 12.0608 11.7067L12.0582 11.7093C11.9247 11.8427 11.8337 12.0127 11.7968 12.1978C11.7599 12.3829 11.7787 12.5748 11.8509 12.7492C11.9231 12.9236 12.0453 13.0727 12.2023 13.1775C12.3592 13.2824 12.5437 13.3384 12.7324 13.3384C12.9212 13.3384 13.1057 13.2824 13.2626 13.1775C13.4195 13.0727 13.5418 12.9236 13.614 12.7492C13.6862 12.5748 13.705 12.3829 13.6681 12.1978C13.6314 12.0135 13.541 11.8442 13.4085 11.7111L13.4067 11.7093L13.4027 11.7053Z" fill="white" style="fill:white;fill-opacity:1;"/>
<path fill-rule="evenodd" clip-rule="evenodd" d="M15.0037 4.33011C15.5298 4.11217 16.0937 4 16.6633 4C17.2328 4 17.7967 4.11217 18.3228 4.33011C18.849 4.54806 19.3271 4.8675 19.7298 5.2702C20.1325 5.6729 20.4519 6.15098 20.6699 6.67714C20.8878 7.20329 21 7.76722 21 8.33673C21 8.90624 20.8878 9.47017 20.6699 9.99633C20.5411 10.3072 20.3769 10.6014 20.1809 10.8731L20.4658 11.1579C20.7368 11.4289 20.7368 11.8683 20.4658 12.1392C20.1948 12.4102 19.7555 12.4102 19.4845 12.1392L19.1997 11.8544C18.9279 12.0503 18.6338 12.2146 18.3228 12.3433C17.8633 12.5337 17.3749 12.6434 16.8792 12.6681L9.68169 18.6407C9.3488 18.9089 8.92858 19.0446 8.50173 19.022C8.09716 19.0005 7.7136 18.8382 7.41693 18.5644L5.18452 20.7968C4.91355 21.0677 4.47421 21.0677 4.20323 20.7968C3.93226 20.5258 3.93226 20.0865 4.20323 19.8155L6.43431 17.5844C6.16126 17.2879 5.99945 16.905 5.97805 16.5011C5.95542 16.0742 6.09119 15.654 6.35931 15.3211L6.3656 15.3133L12.3319 8.12087C12.3566 7.62511 12.4663 7.13671 12.6566 6.67714C12.7854 6.3662 12.9497 6.07205 13.1456 5.80033L12.8607 5.51548C12.5898 5.2445 12.5898 4.80517 12.8607 4.53419C13.1317 4.26321 13.5711 4.26321 13.842 4.53419L14.1269 4.81905C14.3986 4.62314 14.6927 4.4589 15.0037 4.33011ZM12.6312 9.93365L7.43782 16.1945C7.38571 16.2606 7.35939 16.3435 7.36385 16.4276C7.36836 16.5127 7.40402 16.5931 7.46402 16.6536L8.34852 17.5353C8.40906 17.5957 8.48981 17.6316 8.57518 17.6362C8.65931 17.6406 8.74215 17.6143 8.80826 17.5622L15.0666 12.3689C15.0456 12.3605 15.0246 12.352 15.0037 12.3433C14.4775 12.1254 13.9994 11.806 13.5967 11.4033C13.194 11.0006 12.8746 10.5225 12.6566 9.99633C12.648 9.97549 12.6395 9.9546 12.6312 9.93365ZM19.3878 9.46526C19.3292 9.60657 19.2599 9.74279 19.1806 9.87277L15.1272 5.81938C15.2572 5.74007 15.3934 5.67077 15.5347 5.61223C15.8925 5.46403 16.276 5.38775 16.6633 5.38775C17.0505 5.38775 17.434 5.46403 17.7918 5.61223C18.1496 5.76043 18.4747 5.97765 18.7485 6.25149C19.0223 6.52533 19.2396 6.85042 19.3878 7.20821C19.536 7.56599 19.6122 7.94947 19.6122 8.33673C19.6122 8.724 19.536 9.10747 19.3878 9.46526ZM13.9388 7.20821C13.9973 7.06688 14.0666 6.93065 14.1459 6.80066L18.1993 10.8541C18.0693 10.9334 17.9331 11.0027 17.7918 11.0612C17.434 11.2094 17.0505 11.2857 16.6633 11.2857C16.276 11.2857 15.8925 11.2094 15.5347 11.0612C15.1769 10.913 14.8518 10.6958 14.578 10.422C14.3042 10.1481 14.087 9.82304 13.9388 9.46526C13.7906 9.10747 13.7143 8.724 13.7143 8.33673C13.7143 7.94947 13.7906 7.56599 13.9388 7.20821Z" fill="white" style="fill:white;fill-opacity:1;"/>
</svg>
