<svg width="24" height="24" viewBox="0 0 24 24" fill="none" xmlns="http://www.w3.org/2000/svg">
<path fill-rule="evenodd" clip-rule="evenodd" d="M6.85127 8.96718C7.17079 9.2867 7.17079 9.80474 6.85127 10.1243L4.97527 12.0003L6.85127 13.8763C7.17079 14.1958 7.17079 14.7138 6.85127 15.0334C6.53175 15.3529 6.01371 15.3529 5.69419 15.0334L3.23964 12.5788C2.92012 12.2593 2.92012 11.7412 3.23964 11.4217L5.69419 8.96718C6.01371 8.64766 6.53175 8.64766 6.85127 8.96718Z" fill="white" style="fill:white;fill-opacity:1;"/>
<path fill-rule="evenodd" clip-rule="evenodd" d="M11.4215 3.23964C11.741 2.92012 12.259 2.92012 12.5786 3.23964L15.0331 5.69419C15.3526 6.01371 15.3526 6.53175 15.0331 6.85127C14.7136 7.17079 14.1955 7.17079 13.876 6.85127L12 4.97527L10.124 6.85127C9.8045 7.17079 9.28645 7.17079 8.96693 6.85127C8.64741 6.53175 8.64741 6.01371 8.96693 5.69419L11.4215 3.23964Z" fill="white" style="fill:white;fill-opacity:1;"/>
<path fill-rule="evenodd" clip-rule="evenodd" d="M8.96693 17.1488C9.28645 16.8293 9.8045 16.8293 10.124 17.1488L12 19.0248L13.876 17.1488C14.1955 16.8293 14.7136 16.8293 15.0331 17.1488C15.3526 17.4683 15.3526 17.9864 15.0331 18.3059L12.5786 20.7604C12.259 21.08 11.741 21.08 11.4215 20.7604L8.96693 18.3059C8.64741 17.9864 8.64741 17.4683 8.96693 17.1488Z" fill="white" style="fill:white;fill-opacity:1;"/>
<path fill-rule="evenodd" clip-rule="evenodd" d="M17.1487 8.96718C17.4682 8.64766 17.9863 8.64766 18.3058 8.96718L20.7603 11.4217C21.0798 11.7412 21.0798 12.2593 20.7603 12.5788L18.3058 15.0334C17.9863 15.3529 17.4682 15.3529 17.1487 15.0334C16.8292 14.7138 16.8292 14.1958 17.1487 13.8763L19.0247 12.0003L17.1487 10.1243C16.8292 9.80474 16.8292 9.2867 17.1487 8.96718Z" fill="white" style="fill:white;fill-opacity:1;"/>
<path fill-rule="evenodd" clip-rule="evenodd" d="M3 11.9998C3 11.548 3.36631 11.1816 3.81818 11.1816H20.1818C20.6337 11.1816 21 11.548 21 11.9998C21 12.4517 20.6337 12.818 20.1818 12.818H3.81818C3.36631 12.818 3 12.4517 3 11.9998Z" fill="white" style="fill:white;fill-opacity:1;"/>
<path fill-rule="evenodd" clip-rule="evenodd" d="M11.9999 3C12.4518 3 12.8181 3.36631 12.8181 3.81818V20.1818C12.8181 20.6337 12.4518 21 11.9999 21C11.5481 21 11.1818 20.6337 11.1818 20.1818V3.81818C11.1818 3.36631 11.5481 3 11.9999 3Z" fill="white" style="fill:white;fill-opacity:1;"/>
</svg>
