<svg width="24" height="24" viewBox="0 0 24 24" fill="none" xmlns="http://www.w3.org/2000/svg">
<path fill-rule="evenodd" clip-rule="evenodd" d="M20.7051 12C20.7111 11.2689 20.4878 10.5539 20.0662 9.95705C19.7918 9.56849 19.4432 9.24202 19.0427 8.99566C19.1588 8.538 19.1839 8.05831 19.1138 7.58562C19.0046 6.85857 18.6751 6.1826 18.1694 5.64983C17.6657 5.11906 17.0017 4.76956 16.2797 4.65339C15.83 4.58128 15.3734 4.60231 14.9377 4.71247C14.7134 4.3159 14.409 3.9664 14.0414 3.68699C13.4546 3.24135 12.7376 3 12.0005 3C11.2634 3 10.5464 3.24135 9.95955 3.68699C9.59202 3.9664 9.28758 4.3159 9.06325 4.71247C8.62763 4.60231 8.17097 4.58128 7.72132 4.65339C6.99827 4.76956 6.33431 5.11906 5.83059 5.64983C5.32485 6.1836 4.99538 6.85958 4.88722 7.58663C4.81612 8.06031 4.84216 8.54201 4.95933 9.00167C4.56175 9.24903 4.21525 9.5745 3.94186 9.96206C3.52125 10.5579 3.29492 11.2699 3.29492 12C3.29492 12.7291 3.52125 13.4411 3.94186 14.0369C4.21525 14.4245 4.56175 14.751 4.95933 14.9983C4.84216 15.458 4.81612 15.9387 4.88722 16.4134C4.99538 17.1404 5.32485 17.8164 5.83059 18.3492C6.33431 18.8799 6.99827 19.2304 7.72031 19.3466C8.17097 19.4187 8.62763 19.3977 9.06325 19.2875C9.28758 19.6841 9.59202 20.0336 9.95955 20.313C10.5464 20.7587 11.2634 21 12.0005 21C12.7376 21 13.4546 20.7587 14.0414 20.313C14.409 20.0336 14.7134 19.6841 14.9377 19.2875C15.3734 19.3977 15.83 19.4187 16.2797 19.3466C17.0017 19.2304 17.6657 18.8799 18.1694 18.3492C18.6751 17.8164 19.0046 17.1404 19.1138 16.4134C19.1839 15.9407 19.1588 15.462 19.0427 15.0033C19.4432 14.758 19.7918 14.4315 20.0662 14.043C20.4878 13.4461 20.7111 12.7311 20.7051 12ZM19.2039 11.992C19.2029 11.997 19.2029 12.003 19.2039 12.008C19.2079 12.4256 19.0797 12.8352 18.8394 13.1767C18.598 13.5182 18.2555 13.7756 17.86 13.9108C17.6547 13.9819 17.4904 14.1371 17.4083 14.3374C17.3262 14.5377 17.3352 14.763 17.4313 14.9573C17.6226 15.3388 17.6907 15.7694 17.6276 16.1921C17.5645 16.6137 17.3733 17.0052 17.0798 17.3147V17.3157C16.8024 17.6071 16.4379 17.7994 16.0413 17.8635C15.6448 17.9266 15.2382 17.8585 14.8847 17.6682C14.6834 17.56 14.444 17.549 14.2337 17.6381C14.0244 17.7283 13.8662 17.9075 13.8051 18.1279C13.6949 18.5214 13.4586 18.8689 13.1331 19.1163C12.8077 19.3636 12.4091 19.4978 12.0005 19.4978C11.5909 19.4978 11.1933 19.3636 10.8679 19.1163C10.5414 18.8689 10.306 18.5214 10.1959 18.1279C10.1348 17.9075 9.97657 17.7283 9.76627 17.6381C9.55697 17.549 9.31762 17.56 9.11633 17.6682C8.76282 17.8585 8.35623 17.9266 7.95866 17.8635C7.56209 17.7994 7.19756 17.6071 6.92016 17.3157C6.62673 17.0062 6.43546 16.6137 6.37237 16.1921C6.31028 15.7694 6.37838 15.3388 6.56865 14.9573C6.66479 14.765 6.6738 14.5407 6.59369 14.3414C6.51357 14.1411 6.35134 13.9859 6.14904 13.9138C5.75347 13.7736 5.41098 13.5142 5.16963 13.1707C4.92728 12.8282 4.79709 12.4196 4.79709 12C4.79709 11.5804 4.92728 11.1708 5.16963 10.8283C5.41098 10.4858 5.75347 10.2264 6.14904 10.0852C6.35134 10.0131 6.51357 9.85791 6.59369 9.65862C6.6738 9.45933 6.66479 9.23501 6.56865 9.04173C6.37838 8.66018 6.31028 8.22955 6.37237 7.80795C6.43546 7.38533 6.62673 6.99377 6.92016 6.68432C7.19756 6.3929 7.56209 6.20062 7.95866 6.13653C8.35623 6.07344 8.76282 6.14154 9.11633 6.33181C9.31762 6.43997 9.55697 6.45098 9.76627 6.36186C9.97657 6.27173 10.1348 6.09247 10.1959 5.87215C10.306 5.47858 10.5414 5.13108 10.8679 4.88372C11.1933 4.63636 11.5909 4.50217 12.0005 4.50217C12.4091 4.50217 12.8077 4.63636 13.1331 4.88372C13.4586 5.13108 13.6949 5.47858 13.8051 5.87215C13.8662 6.09247 14.0244 6.27273 14.2347 6.36186C14.444 6.45098 14.6834 6.43997 14.8847 6.33181C15.2382 6.14154 15.6448 6.07244 16.0413 6.13653C16.4379 6.20062 16.8034 6.3929 17.0798 6.68432C17.3733 6.99377 17.5645 7.38533 17.6276 7.80795C17.6907 8.22955 17.6226 8.66018 17.4313 9.04273C17.3352 9.23601 17.3262 9.46133 17.4083 9.66262C17.4904 9.86291 17.6547 10.0181 17.859 10.0882C18.2555 10.2244 18.598 10.4808 18.8394 10.8233C19.0807 11.1648 19.2079 11.5734 19.2039 11.992ZM15.7719 8.52298C16.0654 8.8164 16.0654 9.29209 15.7719 9.58551L9.88043 15.477C9.58701 15.7704 9.11132 15.7704 8.8179 15.477C8.52448 15.1836 8.52448 14.7079 8.8179 14.4145L14.7094 8.52298C15.0028 8.22955 15.4785 8.22955 15.7719 8.52298ZM13.8181 15.1896C13.5978 14.9693 13.4736 14.6689 13.4736 14.3564C13.4736 14.044 13.5978 13.7445 13.8181 13.5232C14.0394 13.3029 14.3389 13.1787 14.6513 13.1787C14.9638 13.1787 15.2642 13.3029 15.4845 13.5232C15.7058 13.7445 15.83 14.044 15.83 14.3564C15.83 14.6689 15.7058 14.9693 15.4845 15.1896C15.2642 15.4109 14.9638 15.5351 14.6513 15.5351C14.3389 15.5351 14.0394 15.4109 13.8181 15.1896ZM8.75982 9.6436C8.75982 9.95605 8.884 10.2555 9.10532 10.4768C9.32563 10.6971 9.62607 10.8213 9.93852 10.8213C10.251 10.8213 10.5504 10.6971 10.7717 10.4768C10.992 10.2555 11.1162 9.95605 11.1162 9.6436C11.1162 9.33115 10.992 9.03071 10.7717 8.81039C10.5504 8.58907 10.251 8.46489 9.93852 8.46489C9.62607 8.46489 9.32563 8.58907 9.10532 8.81039C8.884 9.03071 8.75982 9.33115 8.75982 9.6436Z" fill="white" style="fill:white;fill-opacity:1;"/>
</svg>
