<svg width="24" height="24" viewBox="0 0 24 24" fill="none" xmlns="http://www.w3.org/2000/svg">
<path d="M6.42 11.37L3 21L12.63 17.589M4.8 3.9H4.809M21 8.4H21.009M14.7 3H14.709M21 19.2H21.009M21 3L18.984 3.675C18.4101 3.86615 17.9205 4.25068 17.5987 4.76285C17.277 5.27503 17.1431 5.88305 17.22 6.483C17.31 7.257 16.707 7.95 15.915 7.95H15.573C14.799 7.95 14.133 8.49 13.989 9.246L13.8 10.2M21 12.9L20.262 12.603C19.488 12.297 18.624 12.783 18.48 13.602C18.381 14.232 17.832 14.7 17.193 14.7H16.5M11.1 3L11.397 3.738C11.703 4.512 11.217 5.376 10.398 5.52C9.768 5.61 9.3 6.168 9.3 6.807V7.5M11.1 12.9C12.837 14.637 13.647 16.653 12.9 17.4C12.153 18.147 10.137 17.337 8.4 15.6C6.663 13.863 5.853 11.847 6.6 11.1C7.347 10.353 9.363 11.163 11.1 12.9Z" stroke="white" style="stroke:white;stroke-opacity:1;" stroke-width="1.5" stroke-linecap="round" stroke-linejoin="round"/>
</svg>
