<svg width="24" height="24" viewBox="0 0 24 24" fill="none" xmlns="http://www.w3.org/2000/svg">
<path fill-rule="evenodd" clip-rule="evenodd" d="M17.815 4.89463C17.9861 4.72352 18.2182 4.62739 18.4602 4.62739C18.7022 4.62739 18.9343 4.72352 19.1054 4.89463C19.2765 5.06574 19.3726 5.29781 19.3726 5.5398C19.3726 5.78179 19.2765 6.01386 19.1054 6.18497L11.5346 13.7557L9.81418 14.1858L10.2443 12.4654L17.815 4.89463ZM18.4602 3C17.7866 3 17.1406 3.26759 16.6643 3.74389L8.93419 11.474C8.82991 11.5783 8.75593 11.7089 8.72016 11.852L7.90646 15.1068C7.83714 15.3841 7.91839 15.6774 8.12049 15.8795C8.3226 16.0816 8.61593 16.1628 8.89321 16.0935L12.148 15.2798C12.2911 15.2441 12.4217 15.1701 12.526 15.0658L20.2561 7.33571C20.7324 6.8594 21 6.2134 21 5.5398C21 4.8662 20.7324 4.22019 20.2561 3.74389C19.7798 3.26759 19.1338 3 18.4602 3ZM5.44108 4.72612C4.79367 4.72612 4.17277 4.9833 3.71498 5.4411C3.25718 5.89889 3 6.51979 3 7.1672V18.5589C3 19.2063 3.25718 19.8272 3.71498 20.285C4.17277 20.7428 4.79367 21 5.44108 21H16.8328C17.4802 21 18.1011 20.7428 18.5589 20.285C19.0167 19.8272 19.2739 19.2063 19.2739 18.5589V12.8631C19.2739 12.4137 18.9096 12.0494 18.4602 12.0494C18.0108 12.0494 17.6465 12.4137 17.6465 12.8631V18.5589C17.6465 18.7747 17.5608 18.9817 17.4082 19.1343C17.2556 19.2869 17.0486 19.3726 16.8328 19.3726H5.44108C5.22528 19.3726 5.01831 19.2869 4.86571 19.1343C4.71312 18.9817 4.62739 18.7747 4.62739 18.5589V7.1672C4.62739 6.9514 4.71312 6.74443 4.86571 6.59183C5.01831 6.43924 5.22528 6.35351 5.44108 6.35351H11.1369C11.5863 6.35351 11.9506 5.9892 11.9506 5.53981C11.9506 5.09042 11.5863 4.72612 11.1369 4.72612H5.44108Z" fill="white" style="fill:white;fill-opacity:1;"/>
</svg>
