<svg width="24" height="24" viewBox="0 0 24 24" fill="none" xmlns="http://www.w3.org/2000/svg">
<path fill-rule="evenodd" clip-rule="evenodd" d="M3.23964 3.23964C3.45258 3.0267 3.7537 2.95567 4.02546 3.02655L15.8738 5.88649C16.1835 5.96125 16.4216 6.20897 16.4841 6.52138L17.4275 11.2385C17.7213 11.1231 18.0684 11.1841 18.3058 11.4215L20.7604 13.8761C21.0799 14.1956 21.0799 14.7136 20.7604 15.0331L15.0331 20.7604C14.7136 21.0799 14.1955 21.0799 13.876 20.7604L11.4215 18.3059C11.184 18.0684 11.123 17.7213 11.2385 17.4276L6.52135 16.4841C6.20894 16.4216 5.96122 16.1835 5.88646 15.8738L3.02601 4.02336C3.01598 3.98447 3.00885 3.94498 3.00462 3.90525C2.97936 3.66788 3.0577 3.42158 3.23964 3.23964ZM8.96649 10.1236L5.29581 6.45289L7.35456 14.982L12.5493 16.0209L16.0209 12.5493L14.982 7.35459L6.45294 5.29586L10.1236 8.96649C10.444 8.81316 10.8029 8.72729 11.1818 8.72729C12.5374 8.72729 13.6364 9.82623 13.6364 11.1818C13.6364 12.5374 12.5374 13.6364 11.1818 13.6364C9.8262 13.6364 8.72727 12.5374 8.72727 11.1818C8.72727 10.8029 8.81314 10.444 8.96649 10.1236ZM10.5933 10.6134C10.4511 10.7606 10.3636 10.961 10.3636 11.1818C10.3636 11.6337 10.7299 12 11.1818 12C11.6337 12 12 11.6337 12 11.1818C12 10.73 11.6337 10.3637 11.1818 10.3637C10.961 10.3637 10.7606 10.4511 10.6134 10.5934C10.6101 10.5967 10.6068 10.6001 10.6035 10.6035C10.6001 10.6068 10.5967 10.6101 10.5933 10.6134ZM14.4545 19.0248L13.1571 17.7273L17.7273 13.1571L19.0247 14.4546L14.4545 19.0248Z" fill="white" style="fill:white;fill-opacity:1;"/>
</svg>
