<svg width="24" height="24" viewBox="0 0 24 24" fill="none" xmlns="http://www.w3.org/2000/svg">
<path fill-rule="evenodd" clip-rule="evenodd" d="M18.7478 2.59961C18.1013 2.59961 17.4813 2.85642 17.0242 3.31354L9.76944 10.5683L9.76792 10.5698L9.7664 10.5713L8.58445 11.7533C8.53843 11.7975 8.49774 11.848 8.46383 11.904C8.4283 11.9624 8.40147 12.0246 8.38334 12.0887L7.34278 15.5062C7.26209 15.7712 7.33405 16.0591 7.52993 16.255C7.72581 16.4508 8.01371 16.5228 8.27872 16.4421L11.6969 15.4013C11.7574 15.3842 11.8161 15.3593 11.8715 15.3267C11.9314 15.2915 11.9853 15.2487 12.0322 15.1999L20.4713 6.7607C20.9285 6.30358 21.1853 5.68359 21.1853 5.03712C21.1853 4.39065 20.9285 3.77066 20.4713 3.31354C20.0142 2.85642 19.3942 2.59961 18.7478 2.59961ZM9.76789 12.6911L10.2983 12.1608L11.6241 13.4866L11.0937 14.017L9.18747 14.5974L9.76789 12.6911ZM11.3589 11.1001L12.6847 12.426L19.4107 5.70004C19.5865 5.52422 19.6853 5.28576 19.6853 5.03712C19.6853 4.78848 19.5865 4.55002 19.4107 4.3742C19.2349 4.19838 18.9964 4.09961 18.7478 4.09961C18.4991 4.09961 18.2607 4.19838 18.0848 4.3742L11.3589 11.1001Z" fill="white" style="fill:white;fill-opacity:1;"/>
<path d="M5.25 16.0996C4.60353 16.0996 3.98355 16.3564 3.52643 16.8135C3.06931 17.2707 2.8125 17.8906 2.8125 18.5371C2.8125 19.1836 3.06931 19.8036 3.52643 20.2607C3.98355 20.7178 4.60353 20.9746 5.25 20.9746H17.0625C17.4767 20.9746 17.8125 20.6388 17.8125 20.2246C17.8125 19.8104 17.4767 19.4746 17.0625 19.4746H5.25C5.00136 19.4746 4.7629 19.3758 4.58709 19.2C4.41127 19.0242 4.3125 18.7857 4.3125 18.5371C4.3125 18.2885 4.41127 18.05 4.58709 17.8742C4.7629 17.6984 5.00136 17.5996 5.25 17.5996H5.81025C6.22446 17.5996 6.56025 17.2638 6.56025 16.8496C6.56025 16.4354 6.22446 16.0996 5.81025 16.0996H5.25Z" fill="white" style="fill:white;fill-opacity:1;"/>
</svg>
