<svg width="24" height="24" viewBox="0 0 24 24" fill="none" xmlns="http://www.w3.org/2000/svg">
<path d="M15.6667 20V18.3333C15.6667 17.4493 15.3155 16.6014 14.6904 15.9763C14.0652 15.3512 13.2174 15 12.3333 15H7.33333C6.44928 15 5.60143 15.3512 4.97631 15.9763C4.35119 16.6014 4 17.4493 4 18.3333V20" stroke="white" style="stroke:white;stroke-opacity:1;" stroke-width="1.5" stroke-linecap="round" stroke-linejoin="round"/>
<path d="M9.83339 11.6667C11.6743 11.6667 13.1667 10.1743 13.1667 8.33333C13.1667 6.49238 11.6743 5 9.83339 5C7.99244 5 6.50006 6.49238 6.50006 8.33333C6.50006 10.1743 7.99244 11.6667 9.83339 11.6667Z" stroke="white" style="stroke:white;stroke-opacity:1;" stroke-width="1.5" stroke-linecap="round" stroke-linejoin="round"/>
<path d="M18.1666 13.3333C19.0871 13.3333 19.8333 12.5871 19.8333 11.6667C19.8333 10.7462 19.0871 10 18.1666 10C17.2461 10 16.4999 10.7462 16.4999 11.6667C16.4999 12.5871 17.2461 13.3333 18.1666 13.3333Z" stroke="white" style="stroke:white;stroke-opacity:1;" stroke-width="1.5" stroke-linecap="round" stroke-linejoin="round"/>
<path d="M18.1665 9.16699V10.0003" stroke="white" style="stroke:white;stroke-opacity:1;" stroke-width="1.5" stroke-linecap="round" stroke-linejoin="round"/>
<path d="M18.1665 13.333V14.1663" stroke="white" style="stroke:white;stroke-opacity:1;" stroke-width="1.5" stroke-linecap="round" stroke-linejoin="round"/>
<path d="M20.3334 10.417L19.6084 10.8337" stroke="white" style="stroke:white;stroke-opacity:1;" stroke-width="1.5" stroke-linecap="round" stroke-linejoin="round"/>
<path d="M16.7248 12.5L15.9998 12.9167" stroke="white" style="stroke:white;stroke-opacity:1;" stroke-width="1.5" stroke-linecap="round" stroke-linejoin="round"/>
<path d="M20.3334 12.9167L19.6084 12.5" stroke="white" style="stroke:white;stroke-opacity:1;" stroke-width="1.5" stroke-linecap="round" stroke-linejoin="round"/>
<path d="M16.7248 10.8337L15.9998 10.417" stroke="white" style="stroke:white;stroke-opacity:1;" stroke-width="1.5" stroke-linecap="round" stroke-linejoin="round"/>
</svg>
