<svg width="24" height="24" viewBox="0 0 24 24" fill="none" xmlns="http://www.w3.org/2000/svg">
<path d="M11.95 16.75V21M6 16.75H17.9V15.254C17.8998 14.9377 17.8114 14.6278 17.6448 14.359C17.4781 14.0902 17.2397 13.8732 16.9565 13.7325L15.4435 12.9675C15.1603 12.8268 14.9219 12.6098 14.7552 12.341C14.5886 12.0722 14.5002 11.7623 14.5 11.446V7.4H15.35C15.8009 7.4 16.2333 7.22089 16.5521 6.90208C16.8709 6.58327 17.05 6.15087 17.05 5.7C17.05 5.24913 16.8709 4.81673 16.5521 4.49792C16.2333 4.17911 15.8009 4 15.35 4H8.55C8.09913 4 7.66673 4.17911 7.34792 4.49792C7.02911 4.81673 6.85 5.24913 6.85 5.7C6.85 6.15087 7.02911 6.58327 7.34792 6.90208C7.66673 7.22089 8.09913 7.4 8.55 7.4H9.4V11.446C9.39983 11.7623 9.31144 12.0722 9.14476 12.341C8.97808 12.6098 8.73973 12.8268 8.4565 12.9675L6.9435 13.7325C6.66027 13.8732 6.42192 14.0902 6.25524 14.359C6.08856 14.6278 6.00017 14.9377 6 15.254V16.75Z" stroke="white" style="stroke:white;stroke-opacity:1;" stroke-width="1.5" stroke-linecap="round" stroke-linejoin="round"/>
</svg>
