<svg width="24" height="24" viewBox="0 0 24 24" fill="none" xmlns="http://www.w3.org/2000/svg">
<path d="M5.02564 6.05129H18.9744C19.2464 6.05129 19.5073 5.94323 19.6997 5.75088C19.892 5.55854 20.0001 5.29766 20.0001 5.02564C20.0001 4.75363 19.892 4.49275 19.6997 4.3004C19.5073 4.10806 19.2464 4 18.9744 4H5.02564C4.75363 4 4.49275 4.10806 4.3004 4.3004C4.10806 4.49275 4 4.75363 4 5.02564C4 5.29766 4.10806 5.55854 4.3004 5.75088C4.49275 5.94323 4.75363 6.05129 5.02564 6.05129Z" fill="white" style="fill:white;fill-opacity:1;"/>
<path d="M18.9744 8.51285H12C11.728 8.51285 11.4671 8.62091 11.2748 8.81325C11.0824 9.0056 10.9744 9.26648 10.9744 9.5385C10.9744 9.81051 11.0824 10.0714 11.2748 10.2637C11.4671 10.4561 11.728 10.5641 12 10.5641H18.9744C19.2464 10.5641 19.5073 10.4561 19.6997 10.2637C19.892 10.0714 20.0001 9.81051 20.0001 9.5385C20.0001 9.26648 19.892 9.0056 19.6997 8.81325C19.5073 8.62091 19.2464 8.51285 18.9744 8.51285Z" fill="white" style="fill:white;fill-opacity:1;"/>
<path d="M18.9744 13.4359H12C11.728 13.4359 11.4671 13.544 11.2748 13.7363C11.0824 13.9287 10.9744 14.1896 10.9744 14.4616C10.9744 14.7336 11.0824 14.9945 11.2748 15.1868C11.4671 15.3792 11.728 15.4872 12 15.4872H18.9744C19.2464 15.4872 19.5073 15.3792 19.6997 15.1868C19.892 14.9945 20.0001 14.7336 20.0001 14.4616C20.0001 14.1896 19.892 13.9287 19.6997 13.7363C19.5073 13.544 19.2464 13.4359 18.9744 13.4359Z" fill="white" style="fill:white;fill-opacity:1;"/>
<path d="M18.9744 17.9487H5.02564C4.75363 17.9487 4.49275 18.0568 4.3004 18.2491C4.10806 18.4415 4 18.7023 4 18.9744C4 19.2464 4.10806 19.5073 4.3004 19.6996C4.49275 19.8919 4.75363 20 5.02564 20H18.9744C19.2464 20 19.5073 19.8919 19.6997 19.6996C19.892 19.5073 20.0001 19.2464 20.0001 18.9744C20.0001 18.7023 19.892 18.4415 19.6997 18.2491C19.5073 18.0568 19.2464 17.9487 18.9744 17.9487Z" fill="white" style="fill:white;fill-opacity:1;"/>
<path d="M5.12247 8.78035C4.97242 8.84237 4.84415 8.94751 4.75388 9.08247C4.66362 9.21743 4.61542 9.37614 4.61539 9.5385V14.4616C4.61542 14.624 4.66362 14.7827 4.75388 14.9176C4.84415 15.0526 4.97242 15.1577 5.12247 15.2198C5.22177 15.2612 5.32832 15.2824 5.43591 15.2821C5.54373 15.2823 5.65054 15.2612 5.75022 15.2201C5.8499 15.179 5.9405 15.1187 6.01683 15.0425L8.47838 12.581C8.55479 12.5048 8.61542 12.4142 8.65678 12.3145C8.69815 12.2148 8.71944 12.108 8.71944 12C8.71944 11.8921 8.69815 11.7853 8.65678 11.6856C8.61542 11.5859 8.55479 11.4953 8.47838 11.4191L6.01683 8.95758C5.902 8.8429 5.75573 8.76485 5.59654 8.7333C5.43734 8.70176 5.27236 8.71813 5.12247 8.78035Z" fill="white" style="fill:white;fill-opacity:1;"/>
</svg>
