<svg width="24" height="24" viewBox="0 0 24 24" fill="none" xmlns="http://www.w3.org/2000/svg">
<path fill-rule="evenodd" clip-rule="evenodd" d="M20.2286 7C20.6547 7 21.0001 7.33579 21.0001 7.75V13.0833C21.0001 13.4975 20.6547 13.8333 20.2286 13.8333H14.743C14.3169 13.8333 13.9716 13.4975 13.9716 13.0833C13.9716 12.6691 14.3169 12.3333 14.743 12.3333H19.4572V7.75C19.4572 7.33579 19.8026 7 20.2286 7Z" fill="white" style="fill:white;fill-opacity:1;"/>
<path fill-rule="evenodd" clip-rule="evenodd" d="M11.9996 9.38867C10.022 9.38877 8.12536 10.1526 6.72697 11.5121C5.3285 12.8718 4.54284 14.7159 4.54284 16.6387C4.54284 17.0529 4.19747 17.3887 3.77142 17.3887C3.34538 17.3887 3 17.0529 3 16.6387C3 14.318 3.9482 12.0924 5.63602 10.4515C7.32383 8.81054 9.613 7.88867 11.9999 7.88867H12.0007C14.2156 7.89087 16.3518 8.68702 18.0007 10.1248L18.0017 10.1256L20.7445 12.5256C21.0612 12.8027 21.0868 13.277 20.8018 13.5848C20.5168 13.8927 20.0291 13.9177 19.7124 13.6406L16.9705 11.2414C16.9703 11.2412 16.9701 11.241 16.9698 11.2408C15.6038 10.05 13.8343 9.39059 11.9996 9.38867Z" fill="white" style="fill:white;fill-opacity:1;"/>
</svg>
