<svg width="24" height="24" viewBox="0 0 24 24" fill="none" xmlns="http://www.w3.org/2000/svg">
<path d="M13 20H12C11.2044 20 10.4413 19.6839 9.87868 19.1213C9.31607 18.5587 9 17.7956 9 17M9 17V7M9 17C9 17.7956 8.68393 18.5587 8.12132 19.1213C7.55871 19.6839 6.79565 20 6 20H5M9 7C9 6.20435 9.31607 5.44129 9.87868 4.87868C10.4413 4.31607 11.2044 4 12 4H13M9 7C9 6.20435 8.68393 5.44129 8.12132 4.87868C7.55871 4.31607 6.79565 4 6 4H5M13.1 7.9H19.9C20.4506 7.91986 20.9733 8.14749 21.3629 8.53709C21.7525 8.92669 21.9801 9.44937 22 10V14C21.9974 14.5561 21.7753 15.0888 21.382 15.482C20.9888 15.8753 20.4561 16.0974 19.9 16.1H13.1M4.8 16.1H4.1C3.54937 16.0801 3.02669 15.8525 2.63709 15.4629C2.24749 15.0733 2.01986 14.5506 2 14V10C2.01986 9.44937 2.24749 8.92669 2.63709 8.53709C3.02669 8.14749 3.54937 7.91986 4.1 7.9H4.8" stroke="white" style="stroke:white;stroke-opacity:1;" stroke-width="1.5" stroke-linecap="round" stroke-linejoin="round"/>
</svg>
