<svg width="24" height="24" viewBox="0 0 24 24" fill="none" xmlns="http://www.w3.org/2000/svg">
<path fill-rule="evenodd" clip-rule="evenodd" d="M11.9992 2.46282C12.5107 2.44252 13.0158 2.58688 13.4397 2.87527C13.717 3.06391 13.9497 3.30746 14.1249 3.58863H14.25C14.5981 3.58863 14.9319 3.72691 15.1781 3.97305C15.3796 4.17456 15.5088 4.43485 15.549 4.71362H17.0625C17.5598 4.71362 18.0367 4.91117 18.3883 5.2628C18.74 5.61443 18.9375 6.09134 18.9375 6.58862V12.2136C18.9375 12.6278 18.6017 12.9636 18.1875 12.9636C17.7733 12.9636 17.4375 12.6278 17.4375 12.2136V6.58862C17.4375 6.48917 17.398 6.39379 17.3277 6.32346C17.2573 6.25313 17.162 6.21362 17.0625 6.21362H15.5625V7.15113C15.5625 7.49923 15.4242 7.83307 15.1781 8.07921C14.9319 8.32535 14.5981 8.46363 14.25 8.46363H9.75C9.4019 8.46363 9.06806 8.32535 8.82192 8.07921C8.57578 7.83307 8.4375 7.49923 8.4375 7.15113V6.21362H6.9375C6.83804 6.21362 6.74266 6.25313 6.67233 6.32346C6.60201 6.39378 6.5625 6.48917 6.5625 6.58862V12.2136C6.5625 12.6278 6.22671 12.9636 5.8125 12.9636C5.39829 12.9636 5.0625 12.6278 5.0625 12.2136V6.58862C5.0625 6.09134 5.26004 5.61443 5.61167 5.2628C5.96331 4.91117 6.44022 4.71362 6.9375 4.71362H8.45096C8.49119 4.43485 8.62041 4.17456 8.82192 3.97305C9.06806 3.72691 9.4019 3.58863 9.75 3.58863H9.87895C10.0536 3.30826 10.2856 3.0653 10.5619 2.8769C10.9847 2.58861 11.4885 2.4437 11.9992 2.46282ZM9.9375 6.96363H14.0625V5.08863H13.6537C13.3301 5.08863 13.043 4.88103 12.9415 4.5737C12.8799 4.38709 12.7585 4.22603 12.596 4.1155C12.4335 4.00497 12.2391 3.95115 12.0429 3.9624C12.0149 3.96401 11.9868 3.96404 11.9588 3.9625C11.7629 3.95171 11.569 4.00574 11.4069 4.11624C11.2448 4.22673 11.1237 4.38754 11.0622 4.5738C10.9607 4.88108 10.6736 5.08863 10.35 5.08863H9.9375V6.96363ZM9.64111 12.9837L11.0551 16.8734C11.1237 17.0674 11.2487 17.2365 11.4142 17.359C11.582 17.4831 11.7835 17.5533 11.9921 17.5605C12.2007 17.5676 12.4065 17.5113 12.5825 17.399C12.7558 17.2883 12.8921 17.1283 12.9737 16.9397L14.2931 13.9711L14.6291 14.6435L14.63 14.6455C14.716 14.8163 14.8478 14.9599 15.0106 15.0603C15.1734 15.1605 15.3608 15.2136 15.552 15.2136C15.5519 15.2136 15.5521 15.2136 15.552 15.2136H20.4375C20.8517 15.2136 21.1875 14.8778 21.1875 14.4636C21.1875 14.0494 20.8517 13.7136 20.4375 13.7136H15.8413L15.1909 12.4117C15.1036 12.2369 14.9683 12.0904 14.801 11.9895C14.6336 11.8885 14.441 11.8372 14.2456 11.8416C14.0502 11.8459 13.8601 11.9057 13.6973 12.0139C13.5346 12.1221 13.406 12.2744 13.3264 12.4529L12.071 15.2776L10.6784 11.4466C10.6094 11.2571 10.4862 11.0917 10.3244 10.9714C10.1625 10.8511 9.96893 10.7809 9.76758 10.7695C9.56623 10.7581 9.36596 10.8059 9.19154 10.9072C9.01723 11.0083 8.87637 11.1584 8.7864 11.3388C8.78635 11.3389 8.78645 11.3387 8.7864 11.3388L7.59931 13.7136H3.5625C3.14829 13.7136 2.8125 14.0494 2.8125 14.4636C2.8125 14.8778 3.14829 15.2136 3.5625 15.2136H7.88826C7.88818 15.2136 7.88834 15.2136 7.88826 15.2136C8.07945 15.2136 8.26712 15.1605 8.4299 15.0603C8.59274 14.9599 8.7245 14.8163 8.81047 14.6455L8.81136 14.6437L9.64111 12.9837ZM5.8125 15.9636C6.22671 15.9636 6.5625 16.2994 6.5625 16.7136V18.9636C6.5625 19.0631 6.60201 19.1585 6.67233 19.2288C6.74266 19.2991 6.83805 19.3386 6.9375 19.3386H17.0625C17.162 19.3386 17.2573 19.2991 17.3277 19.2288C17.398 19.1585 17.4375 19.0631 17.4375 18.9636V16.7136C17.4375 16.2994 17.7733 15.9636 18.1875 15.9636C18.6017 15.9636 18.9375 16.2994 18.9375 16.7136V18.9636C18.9375 19.4609 18.74 19.9378 18.3883 20.2894C18.0367 20.6411 17.5598 20.8386 17.0625 20.8386H6.9375C6.44022 20.8386 5.9633 20.6411 5.61167 20.2894C5.26004 19.9378 5.0625 19.4609 5.0625 18.9636V16.7136C5.0625 16.2994 5.39829 15.9636 5.8125 15.9636Z" fill="white" style="fill:white;fill-opacity:1;"/>
</svg>
