<svg width="24" height="24" viewBox="0 0 24 24" fill="none" xmlns="http://www.w3.org/2000/svg">
<path fill-rule="evenodd" clip-rule="evenodd" d="M14.6372 3C12.6629 3 10.7694 3.78395 9.37293 5.17953C9.07994 5.47232 9.07978 5.9472 9.37258 6.24019C9.66538 6.53317 10.1403 6.53333 10.4332 6.24053C11.5485 5.12605 13.0606 4.5 14.6372 4.5C16.2138 4.5 17.726 5.12605 18.8412 6.24053C19.1342 6.53333 19.609 6.53317 19.9018 6.24019C20.1946 5.9472 20.1945 5.47232 19.9015 5.17953C18.505 3.78395 16.6115 3 14.6372 3ZM13.0719 6.65952C13.5695 6.45326 14.1028 6.3471 14.6415 6.3471C15.1801 6.3471 15.7134 6.45326 16.211 6.65952C16.7086 6.86578 17.1606 7.16809 17.5412 7.54917C17.834 7.84222 17.8337 8.3171 17.5406 8.60983C17.2476 8.90256 16.7727 8.90229 16.48 8.60924C16.2386 8.36763 15.952 8.17595 15.6366 8.04518C15.3211 7.91441 14.983 7.8471 14.6415 7.8471C14.3 7.8471 13.9618 7.91441 13.6463 8.04518C13.3309 8.17595 13.0443 8.36763 12.8029 8.60924C12.5102 8.90229 12.0353 8.90256 11.7423 8.60983C11.4492 8.3171 11.4489 7.84222 11.7417 7.54917C12.1223 7.16809 12.5744 6.86578 13.0719 6.65952ZM15.383 10.4484C15.383 10.0342 15.0473 9.69838 14.633 9.69838C14.2188 9.69838 13.883 10.0342 13.883 10.4484V13.047H5.42431C4.0854 13.047 3 14.1324 3 15.4713V18.82C3 20.1589 4.0854 21.2443 5.42431 21.2443H18.8188C20.1577 21.2443 21.2431 20.1589 21.2431 18.82V15.4713C21.2431 14.1324 20.1577 13.047 18.8188 13.047H15.383V10.4484ZM14.633 14.547H5.42431C4.91383 14.547 4.5 14.9608 4.5 15.4713V18.82C4.5 19.3304 4.91383 19.7443 5.42431 19.7443H18.8188C19.3293 19.7443 19.7431 19.3304 19.7431 18.82V15.4713C19.7431 14.9608 19.3293 14.547 18.8188 14.547H14.633ZM7.09863 16.3956C6.68441 16.3956 6.34863 16.7314 6.34863 17.1456C6.34863 17.5598 6.68441 17.8956 7.09863 17.8956H7.107C7.52121 17.8956 7.857 17.5598 7.857 17.1456C7.857 16.7314 7.52121 16.3956 7.107 16.3956H7.09863ZM9.69726 17.1456C9.69726 16.7314 10.033 16.3956 10.4473 16.3956H10.4556C10.8698 16.3956 11.2056 16.7314 11.2056 17.1456C11.2056 17.5598 10.8698 17.8956 10.4556 17.8956H10.4473C10.033 17.8956 9.69726 17.5598 9.69726 17.1456Z" fill="white" style="fill:white;fill-opacity:1;"/>
</svg>
