<svg width="24" height="24" viewBox="0 0 24 24" fill="none" xmlns="http://www.w3.org/2000/svg">
<path d="M12 4L10.3004 9.16711C10.2135 9.43156 10.0656 9.67189 9.86874 9.86874C9.67189 10.0656 9.43156 10.2135 9.16711 10.3004L4 12L9.16711 13.6996C9.43156 13.7865 9.67189 13.9344 9.86874 14.1313C10.0656 14.3281 10.2135 14.5684 10.3004 14.8329L12 20L13.6996 14.8329C13.7865 14.5684 13.9344 14.3281 14.1313 14.1313C14.3281 13.9344 14.5684 13.7865 14.8329 13.6996L20 12L14.8329 10.3004C14.5684 10.2135 14.3281 10.0656 14.1313 9.86874C13.9344 9.67189 13.7865 9.43156 13.6996 9.16711L12 4Z" stroke="white" style="stroke:white;stroke-opacity:1;" stroke-width="1.5" stroke-linecap="round" stroke-linejoin="round"/>
<path d="M5.77783 4V7.55556" stroke="white" style="stroke:white;stroke-opacity:1;" stroke-width="1.5" stroke-linecap="round" stroke-linejoin="round"/>
<path d="M18.2222 16.4443V19.9999" stroke="white" style="stroke:white;stroke-opacity:1;" stroke-width="1.5" stroke-linecap="round" stroke-linejoin="round"/>
<path d="M4 5.77734H7.55556" stroke="white" style="stroke:white;stroke-opacity:1;" stroke-width="1.5" stroke-linecap="round" stroke-linejoin="round"/>
<path d="M16.4445 18.2227H20" stroke="white" style="stroke:white;stroke-opacity:1;" stroke-width="1.5" stroke-linecap="round" stroke-linejoin="round"/>
</svg>
