<svg width="24" height="24" viewBox="0 0 24 24" fill="none" xmlns="http://www.w3.org/2000/svg">
<path fill-rule="evenodd" clip-rule="evenodd" d="M12.1499 3.61719C10.5729 3.61719 9.06046 4.24365 7.94536 5.35875C7.00542 6.29869 6.41267 7.52092 6.24964 8.82617C6.54087 8.86666 6.813 9.0009 7.0233 9.2112C7.27811 9.46601 7.42126 9.81161 7.42126 10.172V16.2593C7.42126 16.6197 7.27811 16.9653 7.0233 17.2201C6.76848 17.4749 6.42288 17.618 6.06253 17.618H5.45379C4.6091 17.618 3.799 17.2825 3.20171 16.6852C2.60441 16.0879 2.26886 15.2778 2.26886 14.4331V11.9982C2.26886 11.1535 2.60441 10.3434 3.20171 9.74608C3.62622 9.32156 4.15823 9.02926 4.73376 8.89568C4.88943 7.16562 5.64652 5.53627 6.8847 4.29809C8.28111 2.90168 10.175 2.11719 12.1499 2.11719C14.1247 2.11719 16.0186 2.90168 17.415 4.29809C18.6532 5.53627 19.4103 7.16562 19.566 8.89568C20.1415 9.02927 20.6735 9.32156 21.098 9.74608C21.6953 10.3434 22.0309 11.1535 22.0309 11.9982V14.4331C22.0309 15.2778 21.6953 16.0879 21.098 16.6852C20.6808 17.1024 20.1597 17.3919 19.5955 17.5286C19.5821 18.3545 19.2482 19.1438 18.6631 19.7289C18.0658 20.3262 17.2557 20.6617 16.411 20.6617H15.1863C15.0883 20.8993 14.9438 21.1177 14.7585 21.303C14.3896 21.6719 13.8891 21.8792 13.3673 21.8792H12.1499C11.6281 21.8792 11.1276 21.6719 10.7587 21.303C10.3897 20.934 10.1824 20.4335 10.1824 19.9117C10.1824 19.3899 10.3897 18.8895 10.7587 18.5205C11.1276 18.1516 11.6281 17.9443 12.1499 17.9443H13.3673C13.8891 17.9443 14.3896 18.1516 14.7585 18.5205C14.9438 18.7058 15.0883 18.9241 15.1862 19.1617H16.411C16.8579 19.1617 17.2865 18.9842 17.6024 18.6682C17.8868 18.3838 18.0591 18.0082 18.0907 17.6101C17.7842 17.5769 17.4965 17.4401 17.2764 17.2201C17.0216 16.9653 16.8785 16.6197 16.8785 16.2593V10.172C16.8785 9.81161 17.0216 9.46601 17.2764 9.2112C17.4867 9.0009 17.7589 8.86666 18.0501 8.82618C17.8871 7.52092 17.2943 6.29869 16.3544 5.35875C15.2393 4.24365 13.7269 3.61719 12.1499 3.61719ZM5.4538 10.3133L5.44882 10.3132C5.00375 10.3146 4.57718 10.4919 4.26237 10.8067C3.94638 11.1227 3.76886 11.5513 3.76886 11.9982V14.4331C3.76886 14.88 3.94638 15.3085 4.26237 15.6245C4.57835 15.9405 5.00692 16.118 5.45379 16.118H5.92126V10.3132H5.45984L5.4538 10.3133ZM18.8459 10.3133L18.8399 10.3132H18.3785V16.118H18.8459C19.2928 16.118 19.7214 15.9405 20.0374 15.6245C20.3533 15.3085 20.5309 14.88 20.5309 14.4331V11.9982C20.5309 11.5513 20.3533 11.1227 20.0374 10.8067C19.7225 10.4919 19.296 10.3146 18.8509 10.3132L18.8459 10.3133ZM12.1499 19.4443C12.0259 19.4443 11.907 19.4935 11.8193 19.5812C11.7317 19.6689 11.6824 19.7878 11.6824 19.9117C11.6824 20.0357 11.7317 20.1546 11.8193 20.2423C11.907 20.33 12.0259 20.3792 12.1499 20.3792H13.3673C13.4913 20.3792 13.6102 20.33 13.6979 20.2423C13.7856 20.1546 13.8348 20.0357 13.8348 19.9117C13.8348 19.7878 13.7856 19.6689 13.6979 19.5812C13.6102 19.4935 13.4913 19.4443 13.3673 19.4443H12.1499Z" fill="white" style="fill:white;fill-opacity:1;"/>
<path d="M10.2201 14.2375C9.91393 13.9585 9.43956 13.9805 9.16057 14.2867C8.88158 14.5929 8.9036 15.0672 9.20976 15.3462C10.0137 16.0788 11.0622 16.4849 12.1499 16.4849C13.2375 16.4849 14.286 16.0788 15.09 15.3462C15.3961 15.0672 15.4181 14.5929 15.1392 14.2867C14.8602 13.9805 14.3858 13.9585 14.0796 14.2375C13.552 14.7184 12.8638 14.9849 12.1499 14.9849C11.436 14.9849 10.7478 14.7184 10.2201 14.2375Z" fill="white" style="fill:white;fill-opacity:1;"/>
<path d="M9.71494 9.61267C10.1291 9.61267 10.4649 9.94846 10.4649 10.3627V11.4275C10.4649 11.8418 10.1291 12.1775 9.71494 12.1775C9.30072 12.1775 8.96494 11.8418 8.96494 11.4275V10.3627C8.96494 9.94846 9.30072 9.61267 9.71494 9.61267Z" fill="white" style="fill:white;fill-opacity:1;"/>
<path d="M15.3348 10.3627C15.3348 9.94846 14.999 9.61267 14.5848 9.61267C14.1706 9.61267 13.8348 9.94846 13.8348 10.3627V11.4275C13.8348 11.8418 14.1706 12.1775 14.5848 12.1775C14.999 12.1775 15.3348 11.8418 15.3348 11.4275V10.3627Z" fill="white" style="fill:white;fill-opacity:1;"/>
</svg>
