<svg width="24" height="24" viewBox="0 0 24 24" fill="none" xmlns="http://www.w3.org/2000/svg">
<path d="M6.59082 2C4.06113 2 2 4.06113 2 6.59082V17.4092C2 19.9389 4.06113 22 6.59082 22H17.4092C19.9389 22 22 19.9389 22 17.4092V6.59082C22 4.06113 19.9389 2 17.4092 2H6.59082ZM6.59082 3H17.4092C19.3985 3 21 4.60151 21 6.59082V17.4092C21 19.3985 19.3985 21 17.4092 21H6.59082C4.60151 21 3 19.3985 3 17.4092V6.59082C3 4.60151 4.60151 3 6.59082 3ZM12.999 6.0166C14.038 8.0946 14.6403 9.26638 14.1523 12.1299C13.0393 11.3869 8.9275 8.076 8 7C8.668 8.1875 10.5898 10.7929 11.2578 11.4609C10.0703 10.6449 6.24805 7.63867 6.24805 7.63867C6.24805 7.63867 9.51377 12.5741 12.2598 14.2441C11.2208 14.5781 8.96475 15.9432 5.03125 13.5312C6.03325 14.9043 7.80694 17.6589 12.1484 17.3994C13.6699 17.3254 14.5967 16.8428 15.4502 16.5088C16.3037 16.1748 17.1202 16.2116 17.8252 17.4736C17.9737 16.3231 18.0107 15.247 16.8232 14.0225C16.8232 14.0225 17.997 9.5476 12.999 6.0166Z" fill="white" style="fill:white;fill-opacity:1;"/>
</svg>
