<svg width="24" height="24" viewBox="0 0 24 24" fill="none" xmlns="http://www.w3.org/2000/svg">
<path d="M16 13.6L16 4M9.6 16.896L10.4 13.6L5.736 13.6C5.48761 13.6 5.24263 13.5422 5.02046 13.4311C4.79829 13.32 4.60504 13.1587 4.456 12.96C4.30697 12.7613 4.20624 12.5306 4.16181 12.2862C4.11738 12.0418 4.13045 11.7905 4.2 11.552L6.064 5.152C6.16094 4.81965 6.36305 4.52771 6.64 4.32C6.91696 4.11228 7.25381 4 7.6 4L18.4 4C18.8243 4 19.2313 4.16857 19.5314 4.46863C19.8314 4.76869 20 5.17565 20 5.6L20 12C20 12.4243 19.8314 12.8313 19.5314 13.1314C19.2313 13.4314 18.8243 13.6 18.4 13.6L16.192 13.6C15.8943 13.6002 15.6026 13.6834 15.3496 13.8402C15.0967 13.9971 14.8925 14.2214 14.76 14.488L12 20C11.6227 19.9953 11.2514 19.9055 10.9138 19.7371C10.5761 19.5688 10.2809 19.3263 10.0501 19.0278C9.8193 18.7294 9.65895 18.3826 9.58101 18.0134C9.50308 17.6443 9.50957 17.2623 9.6 16.896Z" stroke="white" style="stroke:white;stroke-opacity:1;" stroke-width="1.5" stroke-linecap="round" stroke-linejoin="round"/>
</svg>
