<svg width="24" height="24" viewBox="0 0 24 24" fill="none" xmlns="http://www.w3.org/2000/svg">
<path d="M8 10.4V20M14.4 7.104L13.6 10.4H18.264C18.5124 10.4 18.7574 10.4578 18.9795 10.5689C19.2017 10.68 19.395 10.8413 19.544 11.04C19.693 11.2387 19.7938 11.4694 19.8382 11.7138C19.8826 11.9582 19.8695 12.2095 19.8 12.448L17.936 18.848C17.8391 19.1803 17.637 19.4723 17.36 19.68C17.083 19.8877 16.7462 20 16.4 20H5.6C5.17565 20 4.76869 19.8314 4.46863 19.5314C4.16857 19.2313 4 18.8243 4 18.4V12C4 11.5757 4.16857 11.1687 4.46863 10.8686C4.76869 10.5686 5.17565 10.4 5.6 10.4H7.808C8.10567 10.3998 8.39739 10.3166 8.65036 10.1598C8.90334 10.0029 9.10754 9.77857 9.24 9.512L12 4C12.3773 4.00467 12.7486 4.09454 13.0862 4.26288C13.4239 4.43122 13.7191 4.67369 13.9499 4.97216C14.1807 5.27064 14.3411 5.61741 14.419 5.98656C14.4969 6.35571 14.4904 6.73771 14.4 7.104Z" stroke="white" style="stroke:white;stroke-opacity:1;" stroke-width="1.5" stroke-linecap="round" stroke-linejoin="round"/>
</svg>
