<svg width="24" height="24" viewBox="0 0 24 24" fill="none" xmlns="http://www.w3.org/2000/svg">
<path d="M10.0625 14.125L6 10.0625L10.0625 6" stroke="white" style="stroke:white;stroke-opacity:1;" stroke-width="1.5" stroke-linecap="round" stroke-linejoin="round"/>
<path d="M6 10.0625H14.5312C15.1181 10.0625 15.6992 10.1781 16.2414 10.4027C16.7835 10.6272 17.2762 10.9564 17.6911 11.3714C18.1061 11.7863 18.4353 12.279 18.6598 12.8211C18.8844 13.3633 19 13.9444 19 14.5312C19 15.1181 18.8844 15.6992 18.6598 16.2414C18.4353 16.7835 18.1061 17.2762 17.6911 17.6911C17.2762 18.1061 16.7835 18.4353 16.2414 18.6598C15.6992 18.8844 15.1181 19 14.5312 19H11.6875" stroke="white" style="stroke:white;stroke-opacity:1;" stroke-width="1.5" stroke-linecap="round" stroke-linejoin="round"/>
</svg>
