<svg width="24" height="24" viewBox="0 0 24 24" fill="none" xmlns="http://www.w3.org/2000/svg">
<path fill-rule="evenodd" clip-rule="evenodd" d="M3.77135 7C3.34531 7 2.99993 7.33579 2.99993 7.75V13.0833C2.99993 13.4975 3.34531 13.8333 3.77135 13.8333H9.25702C9.68306 13.8333 10.0284 13.4975 10.0284 13.0833C10.0284 12.6691 9.68306 12.3333 9.25702 12.3333H4.54277V7.75C4.54277 7.33579 4.1974 7 3.77135 7Z" fill="white" style="fill:white;fill-opacity:1;"/>
<path fill-rule="evenodd" clip-rule="evenodd" d="M12.0004 9.38867C13.978 9.38877 15.8746 10.1526 17.273 11.5121C18.6715 12.8718 19.4572 14.7159 19.4572 16.6387C19.4572 17.0529 19.8025 17.3887 20.2286 17.3887C20.6546 17.3887 21 17.0529 21 16.6387C21 14.318 20.0518 12.0924 18.364 10.4515C16.6762 8.81054 14.387 7.88867 12.0001 7.88867H11.9993C9.78443 7.89087 7.64818 8.68702 5.99934 10.1248L5.99835 10.1256L3.25551 12.5256C2.93884 12.8027 2.91317 13.277 3.19817 13.5848C3.48318 13.8927 3.97095 13.9177 4.28762 13.6406L7.02947 11.2414C7.0297 11.2412 7.02994 11.241 7.03017 11.2408C8.39615 10.05 10.1657 9.39059 12.0004 9.38867Z" fill="white" style="fill:white;fill-opacity:1;"/>
</svg>
