<svg width="24" height="24" viewBox="0 0 24 24" fill="none" xmlns="http://www.w3.org/2000/svg">
<path d="M15.8151 6.5137C15.656 6.35465 15.656 6.09677 15.8151 5.93771L17.6169 4.13589C17.7759 3.97684 18.0338 3.97684 18.1929 4.13589C18.3519 4.29495 18.3519 4.55283 18.1929 4.71189L16.391 6.5137C16.232 6.67276 15.9741 6.67276 15.8151 6.5137Z" fill="white" style="fill:white;fill-opacity:1;"/>
<path d="M3.12933 8.94677C2.97027 9.10583 2.97027 9.36371 3.12933 9.52276C3.28838 9.68182 3.54627 9.68182 3.70532 9.52276L8.49012 4.73796C8.64918 4.57891 8.64918 4.32102 8.49012 4.16197C8.33107 4.00291 8.07319 4.00291 7.91413 4.16197L3.12933 8.94677Z" fill="white" style="fill:white;fill-opacity:1;"/>
<path d="M3.16711 5.68346C3.00805 5.84252 3.00805 6.1004 3.16711 6.25946C3.32616 6.41851 3.58405 6.41851 3.7431 6.25946L5.25934 4.74322C5.41839 4.58416 5.41839 4.32628 5.25934 4.16723C5.10028 4.00817 4.8424 4.00817 4.68334 4.16723L3.16711 5.68346Z" fill="white" style="fill:white;fill-opacity:1;"/>
<path d="M3.11929 12.7583C2.96024 12.5992 2.96024 12.3413 3.11929 12.1823L11.1135 4.18813C11.2725 4.02907 11.5304 4.02907 11.6894 4.18813C11.8485 4.34719 11.8485 4.60507 11.6894 4.76412L3.69529 12.7583C3.53623 12.9173 3.27835 12.9173 3.11929 12.7583Z" fill="white" style="fill:white;fill-opacity:1;"/>
<path d="M13.3867 5.14059C13.2277 5.29965 13.2277 5.55753 13.3867 5.71659C13.5458 5.87564 13.8037 5.87564 13.9627 5.71659L14.9377 4.74162C15.0967 4.58257 15.0967 4.32468 14.9377 4.16563C14.7786 4.00657 14.5208 4.00657 14.3617 4.16563L13.3867 5.14059Z" fill="white" style="fill:white;fill-opacity:1;"/>
<path d="M3.132 15.9713C2.97295 15.8122 2.97295 15.5543 3.132 15.3953L7.07593 11.4514C7.23499 11.2923 7.49287 11.2923 7.65193 11.4514C7.81098 11.6104 7.81098 11.8683 7.65193 12.0273L3.708 15.9713C3.54894 16.1303 3.29106 16.1303 3.132 15.9713Z" fill="white" style="fill:white;fill-opacity:1;"/>
<path d="M3.12231 18.6305C2.96325 18.7895 2.96325 19.0474 3.12231 19.2065C3.28137 19.3655 3.53925 19.3655 3.6983 19.2065L8.2786 14.6262C8.43765 14.4671 8.43765 14.2093 8.2786 14.0502C8.11954 13.8911 7.86166 13.8911 7.70261 14.0502L3.12231 18.6305Z" fill="white" style="fill:white;fill-opacity:1;"/>
<path d="M16.8573 8.12098C16.6982 8.28004 16.6982 8.53792 16.8573 8.69698C17.0163 8.85603 17.2742 8.85603 17.4333 8.69698L21.3047 4.82552C21.4638 4.66646 21.4638 4.40858 21.3047 4.24952C21.1457 4.09047 20.8878 4.09047 20.7287 4.24952L16.8573 8.12098Z" fill="white" style="fill:white;fill-opacity:1;"/>
<path d="M16.8383 11.9416C16.6793 11.7825 16.6793 11.5247 16.8383 11.3656L20.7429 7.46105C20.9019 7.30199 21.1598 7.30199 21.3189 7.46105C21.4779 7.62011 21.4779 7.87799 21.3189 8.03704L17.4143 11.9416C17.2553 12.1006 16.9974 12.1006 16.8383 11.9416Z" fill="white" style="fill:white;fill-opacity:1;"/>
<path d="M17.1439 14.2856C16.9849 14.4446 16.9849 14.7025 17.1439 14.8616C17.303 15.0206 17.5609 15.0206 17.7199 14.8616L21.3264 11.255C21.4855 11.096 21.4855 10.8381 21.3264 10.679C21.1674 10.52 20.9095 10.52 20.7505 10.679L17.1439 14.2856Z" fill="white" style="fill:white;fill-opacity:1;"/>
<path d="M18.1589 17.0722C17.9998 16.9131 17.9998 16.6553 18.1589 16.4962L20.8047 13.8504C20.9638 13.6913 21.2217 13.6913 21.3807 13.8504C21.5398 14.0094 21.5398 14.2673 21.3807 14.4264L18.7349 17.0722C18.5758 17.2313 18.318 17.2313 18.1589 17.0722Z" fill="white" style="fill:white;fill-opacity:1;"/>
<path d="M18.9746 18.6753C18.8156 18.8343 18.8156 19.0922 18.9746 19.2513C19.1337 19.4103 19.3916 19.4103 19.5506 19.2513L21.3379 17.464C21.497 17.305 21.497 17.0471 21.3379 16.888C21.1788 16.729 20.921 16.729 20.7619 16.888L18.9746 18.6753Z" fill="white" style="fill:white;fill-opacity:1;"/>
<path fill-rule="evenodd" clip-rule="evenodd" d="M9.86444 7.83115C10.5048 7.1908 11.3733 6.83106 12.2789 6.83106C13.1845 6.83106 14.053 7.1908 14.6933 7.83115C15.3337 8.47151 15.6934 9.34001 15.6934 10.2456C15.6934 11.1512 15.3337 12.0197 14.6933 12.6601C14.053 13.3004 13.1845 13.6602 12.2789 13.6602C11.3733 13.6602 10.5048 13.3004 9.86444 12.6601C9.22409 12.0197 8.86435 11.1512 8.86435 10.2456C8.86435 9.34001 9.22409 8.47151 9.86444 7.83115ZM12.2789 8.05292C11.6974 8.05292 11.1396 8.28394 10.7284 8.69514C10.3172 9.10635 10.0862 9.66407 10.0862 10.2456C10.0862 10.8271 10.3172 11.3849 10.7284 11.7961C11.1396 12.2073 11.6974 12.4383 12.2789 12.4383C12.8604 12.4383 13.4182 12.2073 13.8294 11.7961C14.2406 11.3849 14.4716 10.8271 14.4716 10.2456C14.4716 9.66407 14.2406 9.10635 13.8294 8.69514C13.4182 8.28394 12.8604 8.05292 12.2789 8.05292Z" fill="white" style="fill:white;fill-opacity:1;"/>
<path d="M9.53059 16.634C10.2595 15.9051 11.2481 15.4956 12.2789 15.4956C13.3097 15.4956 14.2983 15.9051 15.0272 16.634C15.6743 17.2811 16.0697 18.1329 16.1503 19.0372C16.1802 19.3732 16.4769 19.6214 16.813 19.5914C17.1491 19.5615 17.3973 19.2648 17.3673 18.9287C17.2614 17.7401 16.7418 16.6205 15.8912 15.77C14.9332 14.8119 13.6338 14.2737 12.2789 14.2737C10.924 14.2737 9.62465 14.8119 8.6666 15.77C7.81606 16.6205 7.29642 17.7401 7.1905 18.9287C7.16055 19.2648 7.40872 19.5615 7.7448 19.5914C8.08087 19.6214 8.3776 19.3732 8.40754 19.0372C8.48813 18.1329 8.8835 17.2811 9.53059 16.634Z" fill="white" style="fill:white;fill-opacity:1;"/>
</svg>
