<svg width="142" height="26" viewBox="0 0 142 26" fill="none" xmlns="http://www.w3.org/2000/svg">
<rect x="0.5" y="0.5" width="141" height="25" rx="4.5" stroke="#9747FF" style="stroke:#9747FF;stroke:color(display-p3 0.5922 0.2784 1.0000);stroke-opacity:1;" stroke-dasharray="10 5"/>
<path d="M77.7403 7.23001C77.4338 6.9234 76.9367 6.92332 76.6301 7.22984C76.3235 7.53636 76.3234 8.0334 76.6299 8.34001C77.9544 9.6649 78.6985 11.4616 78.6985 13.335C78.6985 15.2084 77.9544 17.0051 76.6299 18.33C76.3234 18.6366 76.3235 19.1336 76.6301 19.4402C76.9367 19.7467 77.4338 19.7466 77.7403 19.44C79.3591 17.8207 80.2685 15.6247 80.2685 13.335C80.2685 11.0453 79.3591 8.84932 77.7403 7.23001Z" fill="white" style="fill:white;fill-opacity:1;"/>
<path d="M74.9692 10.0011C74.6627 9.69447 74.1657 9.69439 73.859 10.0009C73.5524 10.3074 73.5524 10.8045 73.8589 11.1111C74.4475 11.6999 74.7782 12.4985 74.7782 13.3311C74.7782 14.1637 74.4475 14.9622 73.8589 15.5511C73.5524 15.8577 73.5524 16.3547 73.859 16.6612C74.1657 16.9678 74.6627 16.9677 74.9692 16.6611C75.8522 15.7778 76.3482 14.58 76.3482 13.3311C76.3482 12.0821 75.8522 10.8843 74.9692 10.0011Z" fill="white" style="fill:white;fill-opacity:1;"/>
<path fill-rule="evenodd" clip-rule="evenodd" d="M71.6351 7.83992C71.6351 7.53816 71.4621 7.26311 71.1901 7.13239C70.9181 7.00167 70.5953 7.03843 70.3597 7.22693L66.6497 10.1949H63.785C63.3515 10.1949 63 10.5464 63 10.9799V15.69C63 16.1235 63.3515 16.475 63.785 16.475H66.6497L70.3597 19.443C70.5953 19.6315 70.9181 19.6683 71.1901 19.5375C71.4621 19.4068 71.6351 19.1318 71.6351 18.83V7.83992ZM67.4154 11.5929L70.0651 9.47322V17.1967L67.4154 15.077C67.2762 14.9656 67.1033 14.905 66.925 14.905H64.57V11.765H66.925C67.1033 11.765 67.2762 11.7043 67.4154 11.5929Z" fill="white" style="fill:white;fill-opacity:1;"/>
<path fill-rule="evenodd" clip-rule="evenodd" d="M130.326 7.75688C130.326 7.46593 130.159 7.20074 129.897 7.07471C129.634 6.94867 129.323 6.98411 129.096 7.16586L125.519 10.0275H122.757C122.339 10.0275 122 10.3664 122 10.7844V15.3256C122 15.7436 122.339 16.0825 122.757 16.0825H125.519L129.096 18.9441C129.323 19.1259 129.634 19.1613 129.897 19.0353C130.159 18.9093 130.326 18.6441 130.326 18.3531V7.75688ZM126.257 11.3754L128.812 9.33165V16.7783L126.257 14.7346C126.123 14.6272 125.956 14.5687 125.784 14.5687H123.514V11.5413H125.784C125.956 11.5413 126.123 11.4828 126.257 11.3754Z" fill="white" style="fill:white;fill-opacity:1;"/>
<path d="M133.54 9.84052C133.245 9.5449 132.766 9.54483 132.47 9.84036C132.174 10.1359 132.174 10.6151 132.47 10.9107C133.037 11.4785 133.356 12.2484 133.356 13.0512C133.356 13.854 133.037 14.6239 132.47 15.1916C132.174 15.4872 132.174 15.9665 132.47 16.262C132.766 16.5575 133.245 16.5575 133.54 16.2618C134.392 15.4102 134.87 14.2554 134.87 13.0512C134.87 11.847 134.392 10.6921 133.54 9.84052Z" fill="white" style="fill:white;fill-opacity:1;"/>
<path fill-rule="evenodd" clip-rule="evenodd" d="M15.2618 7.07816C15.5361 7.21003 15.7106 7.48748 15.7106 7.79188V18.8781C15.7106 19.1825 15.5361 19.46 15.2618 19.5918C14.9874 19.7237 14.6618 19.6866 14.4241 19.4965L10.6816 16.5025H7.79187C7.35453 16.5025 7 16.148 7 15.7106V10.9594C7 10.522 7.35453 10.1675 7.79187 10.1675H10.6816L14.4241 7.17353C14.6618 6.98337 14.9874 6.9463 15.2618 7.07816ZM14.1269 9.43947L11.454 11.5777C11.3136 11.6901 11.1392 11.7513 10.9594 11.7513H8.58375V14.9187H10.9594C11.1392 14.9187 11.3136 14.9799 11.454 15.0923L14.1269 17.2305V9.43947Z" fill="white" style="fill:white;fill-opacity:1;"/>
<path d="M24.9812 10.3995C25.2904 10.7087 25.2904 11.2101 24.9812 11.5193L23.1655 13.335L24.9812 15.1507C25.2904 15.4599 25.2904 15.9613 24.9812 16.2706C24.6719 16.5798 24.1705 16.5798 23.8613 16.2706L22.0456 14.4549L20.2299 16.2706C19.9207 16.5798 19.4193 16.5798 19.1101 16.2706C18.8008 15.9613 18.8008 15.4599 19.1101 15.1507L20.9257 13.335L19.1101 11.5193C18.8008 11.2101 18.8008 10.7087 19.1101 10.3995C19.4193 10.0902 19.9207 10.0902 20.2299 10.3995L22.0456 12.2151L23.8613 10.3995C24.1705 10.0902 24.6719 10.0902 24.9812 10.3995Z" fill="white" style="fill:white;fill-opacity:1;"/>
</svg>
