<svg width="24" height="24" viewBox="0 0 24 24" fill="none" xmlns="http://www.w3.org/2000/svg">
<path d="M17.6 16.7336H12.5085C11.5735 16.7336 10.851 17.5326 10.4005 18.3486C10.0439 19.0177 9.47382 19.5485 8.78093 19.8564C8.08803 20.1644 7.31208 20.2319 6.57641 20.0482C5.84074 19.8646 5.18758 19.4403 4.72076 18.8427C4.25393 18.2452 4.00024 17.5088 4 16.7506C4.0085 16.1556 4.17 15.5606 4.4845 15.0506M7.4 16.7506L10.0605 11.8376C10.511 11.0131 10.1455 9.98457 9.6355 9.20257C9.39479 8.8176 9.23362 8.38833 9.16151 7.94007C9.08939 7.49181 9.10778 7.03365 9.21559 6.59261C9.32341 6.15158 9.51846 5.7366 9.78925 5.37217C10.06 5.00774 10.4011 4.70123 10.7922 4.47074C11.1834 4.24024 11.6168 4.09042 12.0668 4.03012C12.5168 3.96982 12.9743 4.00026 13.4123 4.11964C13.8504 4.23902 14.2601 4.44493 14.6173 4.72521C14.9744 5.00549 15.2719 5.35448 15.492 5.75157M12.5 7.40057L15.1605 12.2711C15.611 13.0956 16.665 13.3506 17.6 13.3506C18.5017 13.3506 19.3665 13.7088 20.0042 14.3464C20.6418 14.984 21 15.8488 21 16.7506C21 17.6523 20.6418 18.5171 20.0042 19.1547C19.3665 19.7924 18.5017 20.1506 17.6 20.1506" stroke="#EFF0FA" style="stroke:#EFF0FA;stroke:color(display-p3 0.9373 0.9412 0.9804);stroke-opacity:1;" stroke-width="1.78934" stroke-linecap="round" stroke-linejoin="round"/>
</svg>
