<svg width="24" height="24" viewBox="0 0 24 24" fill="none" xmlns="http://www.w3.org/2000/svg">
<path d="M17.1773 16.4839H15.6451V13.1901L17.5564 9.63983C17.7094 9.35636 17.7902 9.03611 17.7902 8.71404C17.7902 8.11182 17.5053 7.53296 17.0281 7.16621L13.7533 4.64716L13.3092 3.53725C13.1784 3.21083 12.867 3 12.5159 3C12.3063 3 12.1167 3.0788 11.9677 3.20439C11.8187 3.0788 11.6291 3 11.4195 3C11.0683 3 10.7569 3.21082 10.6258 3.53725L10.1819 4.64691L6.90717 7.16596C6.43013 7.533 6.14515 8.11158 6.14515 8.71407C6.14515 9.03612 6.226 9.35639 6.37868 9.63987L8.29029 13.1901V16.4839H6.75804C5.23714 16.4839 4 17.7213 4 19.242C4 20.7626 5.23714 22 6.75804 22H17.1773C18.6982 22 19.9354 20.7626 19.9354 19.242C19.9354 17.7213 18.6982 16.4839 17.1773 16.4839L17.1773 16.4839ZM12.5158 3.613C12.6151 3.613 12.7034 3.67279 12.7402 3.765L13.2461 5.03061L16.6541 7.65225C16.9818 7.90356 17.1773 8.30073 17.1773 8.71414C17.1773 8.93508 17.1219 9.15479 17.0169 9.34948L16.3798 10.533L15.576 10.1312C15.6174 10.0079 15.645 9.87865 15.645 9.74198V9.12909C15.645 7.2049 14.1587 5.62401 12.2741 5.46745V3.8549C12.2741 3.72165 12.3826 3.61316 12.5158 3.61316L12.5158 3.613ZM11.9676 12.1936C10.785 12.1936 9.82247 11.2313 9.82247 10.0484V9.25591C9.82247 9.05822 9.89936 8.87259 10.0392 8.73274C10.1789 8.59306 10.3649 8.51617 10.5622 8.51617C11.0807 8.51617 11.5723 8.33942 11.9676 8.01479C12.3633 8.3397 12.8548 8.51617 13.3731 8.51617C13.5708 8.51617 13.7564 8.59306 13.8962 8.73315C14.0359 8.87256 14.1128 9.05834 14.1128 9.2559V10.0484C14.1128 11.2313 13.1502 12.1936 11.9677 12.1936L11.9676 12.1936ZM12.7362 12.6953C12.5719 12.9462 12.2894 13.1129 11.9676 13.1129C11.6459 13.1129 11.3633 12.9462 11.199 12.6953C11.4432 12.7664 11.7007 12.8065 11.9676 12.8065C12.2345 12.8065 12.492 12.7664 12.7362 12.6953ZM13.373 7.90344C12.944 7.90344 12.5405 7.73639 12.2367 7.43241L11.9676 7.16427L11.6983 7.43269C11.3948 7.7364 10.9912 7.90343 10.5622 7.90343C10.2009 7.90343 9.86132 8.04407 9.60575 8.29936C9.53653 8.36859 9.47729 8.44493 9.42558 8.52523C9.25115 8.53809 9.08849 8.5868 8.94195 8.66532C9.16659 7.19559 10.4359 6.06474 11.9676 6.06474C13.4993 6.06474 14.7686 7.19559 14.9933 8.6656C14.8467 8.58721 14.6841 8.53837 14.5096 8.52551C14.4578 8.44521 14.3987 8.36887 14.3295 8.29964C14.0739 8.04409 13.7343 7.90347 13.373 7.90347L13.373 7.90344ZM9.2211 10.2759C9.0323 10.1714 8.90302 9.97251 8.90302 9.74213C8.90302 9.51448 9.0293 9.31804 9.21371 9.21227C9.21316 9.22705 9.20947 9.24114 9.20947 9.25605V10.0486C9.20947 10.1255 9.21467 10.2008 9.2211 10.2759ZM14.7214 9.21227C14.9058 9.31802 15.0321 9.51448 15.0321 9.74213C15.0321 9.97252 14.9028 10.1714 14.714 10.2759C14.7205 10.2008 14.7257 10.1255 14.7257 10.0486V9.25604C14.7257 9.24113 14.722 9.22705 14.7214 9.21227ZM6.75795 8.71428C6.75795 8.30084 6.95344 7.90396 7.2807 7.65211L10.6887 5.03073L11.1944 3.76539C11.2319 3.67291 11.3201 3.61312 11.4194 3.61312C11.5527 3.61312 11.6612 3.72161 11.6612 3.85486V5.46741C9.77653 5.62406 8.29023 7.205 8.29023 9.12904V9.74194C8.29023 9.87861 8.31787 10.0079 8.35946 10.1309L7.55558 10.5329L6.9182 9.34913C6.8134 9.15445 6.758 8.93502 6.758 8.71406L6.75795 8.71428ZM7.8461 11.073L8.69677 10.6476C8.87886 10.8122 9.10899 10.9207 9.3648 10.9529C9.5655 11.529 9.95048 12.019 10.4512 12.35C10.5307 13.1207 11.1763 13.726 11.9676 13.726C12.7589 13.726 13.4045 13.1207 13.484 12.35C13.9847 12.019 14.3697 11.529 14.5704 10.9529C14.8259 10.921 15.0565 10.8125 15.2384 10.6476L16.0891 11.073L15.0321 13.0359V16.484H8.90309V13.0359L7.8461 11.073ZM10.6247 19.5485L11.1652 18.4677C11.2097 18.3781 11.2996 18.3227 11.3994 18.3227C11.5435 18.3227 11.6611 18.4401 11.6611 18.5844V21.3872H9.82245V19.5485L10.6247 19.5485ZM12.274 18.5844C12.274 18.4401 12.3917 18.3227 12.5357 18.3227C12.6353 18.3227 12.7251 18.3781 12.7698 18.4673L13.3105 19.5485H14.1127V21.3872H12.274L12.274 18.5844ZM14.7256 21.3872V19.5485H16.5643V18.9356H13.6892L13.318 18.193C13.1689 17.8949 12.8689 17.7098 12.5357 17.7098C12.3178 17.7098 12.1208 17.7929 11.9676 17.9249C11.8143 17.7929 11.6173 17.7098 11.3994 17.7098C11.0663 17.7098 10.7665 17.8949 10.617 18.1934L10.2459 18.9356H6.14512V19.5485H9.20961V21.3872H6.75802C5.57544 21.3872 4.61287 20.4249 4.61287 19.2421C4.61287 18.0592 5.57544 17.0969 6.75802 17.0969H17.1773C18.3599 17.0969 19.3224 18.0592 19.3224 19.2421C19.3224 20.4249 18.3599 21.3872 17.1773 21.3872H14.7256Z" fill="white" style="fill:white;fill-opacity:1;"/>
<path d="M17.1773 18.9355H17.7902V19.5484H17.1773V18.9355Z" fill="white" style="fill:white;fill-opacity:1;"/>
<path d="M12.887 9.12909H13.4999V9.74199H12.887V9.12909Z" fill="white" style="fill:white;fill-opacity:1;"/>
<path d="M10.4354 9.12909H11.0483V9.74199H10.4354V9.12909Z" fill="white" style="fill:white;fill-opacity:1;"/>
<path d="M11.9677 10.9678C11.6296 10.9678 11.3548 10.6929 11.3548 10.3549H10.7419C10.7419 11.0309 11.2917 11.5807 11.9677 11.5807C12.6437 11.5807 13.1935 11.0309 13.1935 10.3549H12.5806C12.5806 10.6929 12.3057 10.9678 11.9677 10.9678Z" fill="white" style="fill:white;fill-opacity:1;"/>
</svg>
