<svg width="24" height="24" viewBox="0 0 24 24" fill="none" xmlns="http://www.w3.org/2000/svg">
<path d="M7.18601 9.18601L5.03478 9.39913C4.82175 9.41797 4.61839 9.49688 4.44837 9.62676C4.27678 9.75784 4.14634 9.93535 4.0725 10.1383C3.99865 10.3412 3.9845 10.561 4.03172 10.7717C4.07893 10.9824 4.18554 11.1752 4.33891 11.3272L7.39905 14.3579L6.2662 18.4731L6.26472 18.4785C6.2086 18.6899 6.21473 18.913 6.28238 19.1209C6.35002 19.3289 6.47631 19.5128 6.64604 19.6507C6.81577 19.7886 7.02172 19.8745 7.23912 19.8981C7.45578 19.9216 7.67461 19.8823 7.86948 19.7848L7.87147 19.7838L11.6717 17.9017L15.4776 19.7863L15.4797 19.7873C15.6745 19.8848 15.8933 19.9241 16.1099 19.9006C16.3273 19.877 16.5333 19.7911 16.703 19.6532C16.8727 19.5154 16.999 19.3314 17.0667 19.1234C17.0714 19.109 17.0758 19.0945 17.0799 19.0799L15.5217 17.5217L15.8052 18.5515L11.9495 16.6422C11.7744 16.5555 11.5689 16.5555 11.3939 16.6422L7.54387 18.5489L8.70335 14.337C8.7634 14.1189 8.70107 13.8853 8.54031 13.7261L5.40464 10.6206L8.33072 10.3307L7.18601 9.18601Z" fill="white" style="fill:white;fill-opacity:1;"/>
<path d="M15.3926 13.15L17.942 10.6231L14.1609 10.2485C13.9478 10.2274 13.7603 10.0988 13.6638 9.90766L11.6718 5.96111L10.5091 8.2665L9.57704 7.3344L10.6582 5.19061C10.7537 5.00402 10.8989 4.84743 11.0777 4.73809C11.2565 4.62874 11.4621 4.57088 11.6717 4.57088C11.8813 4.57088 12.0869 4.62874 12.2657 4.73809C12.4445 4.84743 12.5897 5.00402 12.6853 5.19061L12.6869 5.19383L14.6265 9.03654L18.3118 9.40164C18.5248 9.42047 18.7282 9.49938 18.8982 9.62926C19.0698 9.76035 19.2002 9.93785 19.2741 10.1408C19.3479 10.3437 19.362 10.5635 19.3148 10.7742C19.2676 10.9849 19.161 11.1777 19.0076 11.3297L16.2779 14.0352L15.3926 13.15Z" fill="white" style="fill:white;fill-opacity:1;"/>
<path d="M20.5775 13.3157C20.5775 13.0364 20.3511 12.8099 20.0718 12.8099C19.7924 12.8099 19.566 13.0364 19.566 13.3157V14.2324H18.6493C18.37 14.2324 18.1435 14.4588 18.1435 14.7382C18.1435 15.0175 18.37 15.2439 18.6493 15.2439H19.566V16.1606C19.566 16.4399 19.7924 16.6664 20.0718 16.6664C20.3511 16.6664 20.5775 16.4399 20.5775 16.1606V15.2439H21.4942C21.7736 15.2439 22 15.0175 22 14.7382C22 14.4588 21.7736 14.2324 21.4942 14.2324H20.5775V13.3157Z" fill="white" style="fill:white;fill-opacity:1;"/>
<path d="M4.43399 15.0641C4.43399 14.7847 4.20755 14.5583 3.92823 14.5583C3.6489 14.5583 3.42246 14.7847 3.42246 15.0641V15.9808H2.50576C2.22644 15.9808 2 16.2072 2 16.4865C2 16.7658 2.22644 16.9923 2.50576 16.9923H3.42246V17.909C3.42246 18.1883 3.6489 18.4147 3.92823 18.4147C4.20755 18.4147 4.43399 18.1883 4.43399 17.909V16.9923H5.35069C5.63002 16.9923 5.85645 16.7658 5.85645 16.4865C5.85645 16.2072 5.63002 15.9808 5.35069 15.9808H4.43399V15.0641Z" fill="white" style="fill:white;fill-opacity:1;"/>
<path d="M2.53033 3.53033C2.23744 3.23744 2.23744 2.76256 2.53033 2.46967C2.82322 2.17678 3.2981 2.17678 3.59099 2.46967L21.7599 20.6385C22.0528 20.9314 22.0528 21.4063 21.7599 21.6992C21.467 21.9921 20.9921 21.9921 20.6992 21.6992L2.53033 3.53033Z" fill="white" style="fill:white;fill-opacity:1;"/>
</svg>
