<svg width="24" height="24" viewBox="0 0 24 24" fill="none" xmlns="http://www.w3.org/2000/svg">
<path fill-rule="evenodd" clip-rule="evenodd" d="M5.35069 4C5.63002 4 5.85645 4.22644 5.85645 4.50576V5.42246H6.77315C7.05248 5.42246 7.27892 5.6489 7.27892 5.92823C7.27892 6.20755 7.05248 6.43399 6.77315 6.43399H5.85645V7.35069C5.85645 7.63002 5.63002 7.85645 5.35069 7.85645C5.07136 7.85645 4.84493 7.63002 4.84493 7.35069V6.43399H3.92823C3.6489 6.43399 3.42246 6.20755 3.42246 5.92823C3.42246 5.6489 3.6489 5.42246 3.92823 5.42246H4.84493V4.50576C4.84493 4.22644 5.07136 4 5.35069 4ZM20.0718 12.8099C20.3511 12.8099 20.5775 13.0364 20.5775 13.3157V14.2324H21.4942C21.7736 14.2324 22 14.4588 22 14.7382C22 15.0175 21.7736 15.2439 21.4942 15.2439H20.5775V16.1606C20.5775 16.4399 20.3511 16.6664 20.0718 16.6664C19.7924 16.6664 19.566 16.4399 19.566 16.1606V15.2439H18.6493C18.37 15.2439 18.1435 15.0175 18.1435 14.7382C18.1435 14.4588 18.37 14.2324 18.6493 14.2324H19.566V13.3157C19.566 13.0364 19.7924 12.8099 20.0718 12.8099ZM4.43399 15.0641C4.43399 14.7847 4.20755 14.5583 3.92823 14.5583C3.6489 14.5583 3.42246 14.7847 3.42246 15.0641V15.9808H2.50576C2.22644 15.9808 2 16.2072 2 16.4865C2 16.7658 2.22644 16.9923 2.50576 16.9923H3.42246V17.909C3.42246 18.1883 3.6489 18.4147 3.92823 18.4147C4.20755 18.4147 4.43399 18.1883 4.43399 17.909V16.9923H5.35069C5.63002 16.9923 5.85645 16.7658 5.85645 16.4865C5.85645 16.2072 5.63002 15.9808 5.35069 15.9808H4.43399V15.0641ZM9.68287 9.90495L11.6718 5.96111L13.6638 9.90766C13.7603 10.0988 13.9478 10.2274 14.1609 10.2485L17.942 10.6231L14.8086 13.7288C14.6479 13.888 14.5857 14.1215 14.6457 14.3395L15.8052 18.5515L11.9495 16.6422C11.7744 16.5555 11.5689 16.5555 11.3939 16.6422L7.54387 18.5489L8.70335 14.337C8.7634 14.1189 8.70107 13.8853 8.54031 13.7261L5.40464 10.6206L9.18564 10.246C9.39883 10.2249 9.5864 10.0962 9.68287 9.90495ZM12.6869 5.19383L12.7929 5.40382L14.6265 9.03654L18.3118 9.40164C18.5248 9.42047 18.7282 9.49938 18.8982 9.62926C19.0698 9.76035 19.2002 9.93785 19.2741 10.1408C19.3479 10.3437 19.362 10.5635 19.3148 10.7742C19.2676 10.9849 19.161 11.1777 19.0076 11.3297L15.95 14.3603L17.0843 18.4811C17.1405 18.6924 17.1343 18.9155 17.0667 19.1234C16.999 19.3314 16.8727 19.5153 16.703 19.6532C16.5333 19.7911 16.3273 19.877 16.1099 19.9006C15.8933 19.9241 15.6745 19.8848 15.4797 19.7873L15.4776 19.7863L11.6717 17.9017L7.87147 19.7838L7.86948 19.7848C7.67461 19.8823 7.45578 19.9216 7.23912 19.8981C7.02172 19.8745 6.81577 19.7886 6.64604 19.6507C6.47631 19.5128 6.35002 19.3289 6.28238 19.1209C6.21473 18.913 6.2086 18.6899 6.26472 18.4785L6.2662 18.4731L7.39905 14.3579L4.33891 11.3272C4.18554 11.1752 4.07893 10.9824 4.03172 10.7717C3.9845 10.561 3.99865 10.3412 4.0725 10.1383C4.14634 9.93535 4.27678 9.75784 4.44837 9.62676C4.61839 9.49688 4.82175 9.41797 5.03478 9.39913L8.71989 9.03405L10.6582 5.19061C10.7537 5.00402 10.8989 4.84743 11.0777 4.73809C11.2565 4.62874 11.4621 4.57088 11.6717 4.57088C11.8813 4.57088 12.0869 4.62874 12.2657 4.73809C12.4445 4.84743 12.5897 5.00402 12.6853 5.19061L12.6869 5.19383Z" fill="white" style="fill:white;fill-opacity:1;"/>
</svg>
