<svg width="24" height="24" viewBox="0 0 24 24" fill="none" xmlns="http://www.w3.org/2000/svg">
<path d="M11.9999 17.2725C11.5481 17.2725 11.1818 17.6388 11.1818 18.0906C11.1818 18.5425 11.5481 18.9088 11.9999 18.9088H12.0081C12.46 18.9088 12.8263 18.5425 12.8263 18.0906C12.8263 17.6388 12.46 17.2725 12.0081 17.2725H11.9999Z" fill="white" style="fill:white;fill-opacity:1;"/>
<path d="M9.70915 15.8112C10.3209 15.2115 11.1434 14.8756 12.0001 14.8756C12.8567 14.8756 13.6792 15.2115 14.291 15.8112C14.6137 16.1275 15.1317 16.1223 15.448 15.7996C15.7643 15.4769 15.7591 14.9589 15.4364 14.6426C14.5188 13.7431 13.285 13.2393 12.0001 13.2393C10.7151 13.2393 9.48134 13.7431 8.56369 14.6426C8.24099 14.9589 8.23581 15.4769 8.55212 15.7996C8.86843 16.1223 9.38645 16.1275 9.70915 15.8112Z" fill="white" style="fill:white;fill-opacity:1;"/>
<path d="M6.8455 12.9474C8.22197 11.5981 10.0726 10.8424 12 10.8424C13.9275 10.8424 15.7781 11.5981 17.1546 12.9474C17.4773 13.2637 17.9953 13.2585 18.3116 12.9358C18.6279 12.6131 18.6227 12.0951 18.3 11.7788C16.6177 10.1297 14.3558 9.20605 12 9.20605C9.64427 9.20605 7.3824 10.1297 5.70004 11.7788C5.37735 12.0951 5.37216 12.6131 5.68847 12.9358C6.00478 13.2585 6.5228 13.2637 6.8455 12.9474Z" fill="white" style="fill:white;fill-opacity:1;"/>
<path d="M12 6.63636C9.18244 6.63636 6.46373 7.67482 4.36364 9.55319C4.02684 9.85444 3.5096 9.82561 3.20835 9.48881C2.90711 9.15201 2.93593 8.63476 3.27273 8.33352C5.67283 6.18681 8.77993 5 12 5C15.2201 5 18.3272 6.18681 20.7273 8.33352C21.0641 8.63476 21.0929 9.15201 20.7916 9.48881C20.4904 9.82561 19.9732 9.85444 19.6364 9.55319C17.5363 7.67482 14.8176 6.63636 12 6.63636Z" fill="white" style="fill:white;fill-opacity:1;"/>
</svg>
