<svg width="24" height="24" viewBox="0 0 24 24" fill="none" xmlns="http://www.w3.org/2000/svg">
<path d="M12 14.6667C10.5272 14.6667 9.33333 15.8606 9.33333 17.3333C9.33333 18.8061 10.5272 20 12 20C13.4728 20 14.6667 18.8061 14.6667 17.3333C14.6667 15.8606 13.4728 14.6667 12 14.6667ZM12 14.6667V12M6.66667 9.33333C8.13943 9.33333 9.33333 8.13943 9.33333 6.66667C9.33333 5.19391 8.13943 4 6.66667 4C5.19391 4 4 5.19391 4 6.66667C4 8.13943 5.19391 9.33333 6.66667 9.33333ZM6.66667 9.33333V10.2222C6.66667 10.6937 6.85397 11.1459 7.18737 11.4793C7.52076 11.8127 7.97295 12 8.44444 12H15.5556C16.0271 12 16.4792 11.8127 16.8126 11.4793C17.146 11.1459 17.3333 10.6937 17.3333 10.2222V9.33333M17.3333 9.33333C18.8061 9.33333 20 8.13943 20 6.66667C20 5.19391 18.8061 4 17.3333 4C15.8606 4 14.6667 5.19391 14.6667 6.66667C14.6667 8.13943 15.8606 9.33333 17.3333 9.33333Z" stroke="white" style="stroke:white;stroke-opacity:1;" stroke-width="1.5" stroke-linecap="round" stroke-linejoin="round"/>
</svg>
