<svg width="24" height="24" viewBox="0 0 24 24" fill="none" xmlns="http://www.w3.org/2000/svg">
<path d="M18.45 19.3C18.6755 19.3 18.8917 19.2104 19.0511 19.051C19.2105 18.8916 19.3 18.6754 19.3 18.45L19.3 6.55C19.3 6.32457 19.2105 6.10837 19.0511 5.94896C18.8917 5.78955 18.6755 5.7 18.45 5.7L15.05 5.7C14.5806 5.7 14.2 5.31944 14.2 4.85C14.2 4.38056 14.5806 4 15.05 4L18.45 4C19.1263 4 19.7749 4.26866 20.2531 4.74688C20.7314 5.2251 21 5.8737 21 6.55V18.45C21 19.1263 20.7314 19.7749 20.2531 20.2531C19.7749 20.7313 19.1263 21 18.45 21H15.05C14.5806 21 14.2 20.6194 14.2 20.15C14.2 19.6806 14.5806 19.3 15.05 19.3H18.45Z" fill="white" style="fill:white;fill-opacity:1;"/>
<path d="M9.70105 17.351C9.36911 17.683 8.83092 17.683 8.49897 17.351L4.25162 13.1037C4.24262 13.0948 4.23381 13.0856 4.22521 13.0763C4.15851 13.0041 4.10662 12.9231 4.06955 12.8373C4.0248 12.7339 4 12.6198 4 12.5C4 12.38 4.02488 12.2657 4.06976 12.1622C4.10647 12.0773 4.15768 11.9972 4.22337 11.9257C4.2326 11.9156 4.24206 11.9058 4.25175 11.8962L8.49897 7.64895C8.83092 7.31701 9.36911 7.31701 9.70105 7.64895C10.033 7.9809 10.033 8.51909 9.70105 8.85104L6.90209 11.65L15.05 11.65C15.5194 11.65 15.9 12.0306 15.9 12.5C15.9 12.9694 15.5194 13.35 15.05 13.35H6.90209L9.70105 16.149C10.033 16.4809 10.033 17.0191 9.70105 17.351Z" fill="white" style="fill:white;fill-opacity:1;"/>
</svg>
