<svg width="24" height="24" viewBox="0 0 24 24" fill="none" xmlns="http://www.w3.org/2000/svg">
<path d="M19.9952 12.3826C20.0437 12.2655 20.0707 12.1373 20.0711 12.0028V11.9968C20.0703 11.7419 19.9727 11.4872 19.7782 11.2927L12.7071 4.2216C12.3166 3.83108 11.6834 3.83108 11.2929 4.2216C10.9024 4.61213 10.9024 5.24529 11.2929 5.63582L16.6569 10.9998L4.92896 10.9998C4.37667 10.9998 3.92895 11.4475 3.92896 11.9998C3.92895 12.5521 4.37667 12.9998 4.92896 12.9998H16.6569L11.2929 18.3637C10.9024 18.7543 10.9024 19.3874 11.2929 19.778C11.6834 20.1685 12.3166 20.1685 12.7071 19.778L19.7777 12.7074L19.7803 12.7048C19.8751 12.6094 19.9468 12.4996 19.9952 12.3826Z" fill="white" style="fill:white;fill-opacity:1;"/>
</svg>
