<svg width="24" height="24" viewBox="0 0 24 24" fill="none" xmlns="http://www.w3.org/2000/svg">
<path d="M4.00483 11.617C3.9563 11.734 3.92935 11.8623 3.92896 11.9968L3.92896 12.0028C3.92972 12.2577 4.02734 12.5124 4.22184 12.7069L11.2929 19.778C11.6834 20.1685 12.3166 20.1685 12.7071 19.778C13.0976 19.3874 13.0976 18.7543 12.7071 18.3637L7.34316 12.9998H19.0711C19.6234 12.9998 20.0711 12.5521 20.0711 11.9998C20.0711 11.4475 19.6234 10.9998 19.0711 10.9998L7.34316 10.9998L12.7071 5.63582C13.0976 5.24529 13.0976 4.61213 12.7071 4.2216C12.3166 3.83108 11.6834 3.83108 11.2929 4.2216L4.22233 11.2922L4.21973 11.2948C4.1249 11.3902 4.05327 11.4999 4.00483 11.617Z" fill="white" style="fill:white;fill-opacity:1;"/>
</svg>
