<svg width="24" height="24" viewBox="0 0 24 24" fill="none" xmlns="http://www.w3.org/2000/svg">
<path d="M11.6172 19.9954C11.7342 20.0439 11.8625 20.0709 11.997 20.0713C11.999 20.0713 12.001 20.0713 12.003 20.0713C12.2579 20.0705 12.5126 19.9729 12.7071 19.7784L19.7782 12.7073C20.1687 12.3168 20.1687 11.6836 19.7782 11.2931C19.3876 10.9026 18.7545 10.9026 18.3639 11.2931L13 16.6571L13 4.92915C13 4.37687 12.5523 3.92915 12 3.92915C11.4477 3.92915 11 4.37687 11 4.92915L11 16.6571L5.63602 11.2931C5.24549 10.9026 4.61233 10.9026 4.2218 11.2931C3.83128 11.6836 3.83128 12.3168 4.2218 12.7073L11.2924 19.7779C11.2931 19.7786 11.2943 19.7798 11.295 19.7805C11.3904 19.8753 11.5001 19.947 11.6172 19.9954Z" fill="white" style="fill:white;fill-opacity:1;"/>
</svg>
