<svg width="24" height="24" viewBox="0 0 24 24" fill="none" xmlns="http://www.w3.org/2000/svg">
<path d="M8.14871 11.4215C8.46823 11.102 8.98627 11.102 9.30579 11.4215L11.1818 13.2975V8.72734C11.1818 8.27547 11.5481 7.90915 12 7.90915C12.4519 7.90915 12.8182 8.27547 12.8182 8.72734V13.2975L14.6942 11.4215C15.0137 11.102 15.5317 11.102 15.8512 11.4215C16.1708 11.741 16.1708 12.2591 15.8512 12.5786L12.5827 15.8472C12.5679 15.8621 12.5526 15.8765 12.5368 15.8903C12.4759 15.9434 12.4089 15.9859 12.3383 16.018C12.2352 16.0649 12.1207 16.091 12 16.091C11.8845 16.091 11.7746 16.0671 11.675 16.0239C11.5888 15.9866 11.5078 15.9339 11.436 15.8656C11.4306 15.8604 11.4252 15.8552 11.42 15.8498L8.14871 12.5786C7.82919 12.2591 7.82919 11.741 8.14871 11.4215Z" fill="white" style="fill:white;fill-opacity:1;"/>
<path fill-rule="evenodd" clip-rule="evenodd" d="M3 12C3 7.02944 7.02944 3 12 3C16.9706 3 21 7.02944 21 12C21 16.9706 16.9706 21 12 21C7.02944 21 3 16.9706 3 12ZM12 4.63636C7.93318 4.63636 4.63636 7.93318 4.63636 12C4.63636 16.0668 7.93318 19.3636 12 19.3636C16.0668 19.3636 19.3636 16.0668 19.3636 12C19.3636 7.93318 16.0668 4.63636 12 4.63636Z" fill="white" style="fill:white;fill-opacity:1;"/>
</svg>
