<svg width="24" height="24" viewBox="0 0 24 24" fill="none" xmlns="http://www.w3.org/2000/svg">
<path d="M8.15153 11.4187C8.1428 11.4274 8.13427 11.4362 8.12593 11.4453C8.06054 11.5161 8.00993 11.5956 7.97413 11.6799C7.9323 11.7782 7.90915 11.8864 7.90915 12C7.90915 12.1083 7.93019 12.2117 7.96841 12.3063C8.00835 12.4054 8.06847 12.4982 8.14879 12.5786L11.4215 15.8513C11.741 16.1708 12.2591 16.1708 12.5786 15.8513C12.8981 15.5318 12.8981 15.0137 12.5786 14.6942L10.7026 12.8182H15.2728C15.7247 12.8182 16.091 12.4519 16.091 12C16.091 11.5481 15.7247 11.1818 15.2728 11.1818H10.7026L12.5786 9.30584C12.8981 8.98632 12.8981 8.46827 12.5786 8.14875C12.2591 7.82923 11.741 7.82923 11.4215 8.14875L8.15153 11.4187Z" fill="white" style="fill:white;fill-opacity:1;"/>
<path fill-rule="evenodd" clip-rule="evenodd" d="M12 21C7.02944 21 3 16.9706 3 12C3 7.02944 7.02944 3 12 3C16.9706 3 21 7.02944 21 12C21 16.9706 16.9706 21 12 21ZM4.63636 12C4.63636 16.0668 7.93318 19.3636 12 19.3636C16.0668 19.3636 19.3636 16.0668 19.3636 12C19.3636 7.93318 16.0668 4.63636 12 4.63636C7.93318 4.63636 4.63636 7.93318 4.63636 12Z" fill="white" style="fill:white;fill-opacity:1;"/>
</svg>
