<svg width="24" height="24" viewBox="0 0 24 24" fill="none" xmlns="http://www.w3.org/2000/svg">
<path d="M11.4215 15.8513C11.102 15.5318 11.102 15.0137 11.4215 14.6942L13.2975 12.8182H8.72734C8.27547 12.8182 7.90915 12.4519 7.90915 12C7.90915 11.5481 8.27547 11.1818 8.72734 11.1818H13.2975L11.4215 9.30584C11.102 8.98632 11.102 8.46827 11.4215 8.14875C11.741 7.82923 12.2591 7.82923 12.5786 8.14875L15.8472 11.4173C15.8621 11.4321 15.8765 11.4474 15.8903 11.4632C15.9434 11.5241 15.9859 11.5911 16.018 11.6617C16.0649 11.7648 16.091 11.8793 16.091 12C16.091 12.1155 16.0671 12.2254 16.0239 12.325C15.9866 12.4112 15.9339 12.4922 15.8656 12.564C15.8604 12.5694 15.8552 12.5748 15.8498 12.58L12.5786 15.8513C12.2591 16.1708 11.741 16.1708 11.4215 15.8513Z" fill="white" style="fill:white;fill-opacity:1;"/>
<path fill-rule="evenodd" clip-rule="evenodd" d="M12 21C7.02944 21 3 16.9706 3 12C3 7.02944 7.02944 3 12 3C16.9706 3 21 7.02944 21 12C21 16.9706 16.9706 21 12 21ZM4.63636 12C4.63636 16.0668 7.93318 19.3636 12 19.3636C16.0668 19.3636 19.3636 16.0668 19.3636 12C19.3636 7.93318 16.0668 4.63636 12 4.63636C7.93318 4.63636 4.63636 7.93318 4.63636 12Z" fill="white" style="fill:white;fill-opacity:1;"/>
</svg>
