<svg width="24" height="24" viewBox="0 0 24 24" fill="none" xmlns="http://www.w3.org/2000/svg">
<path d="M8.36368 4C7.96202 4 7.63641 4.32561 7.63641 4.72727C7.63641 5.12893 7.96202 5.45455 8.36368 5.45455H17.8182C18.0111 5.45455 18.1961 5.53117 18.3325 5.66756C18.4689 5.80395 18.5455 5.98893 18.5455 6.18182V9.09091C18.5455 9.28379 18.4689 9.46878 18.3325 9.60517C18.1961 9.74156 18.0111 9.81818 17.8182 9.81818H14.1819C13.7802 9.81818 13.4546 10.1438 13.4546 10.5455C13.4546 10.9471 13.7802 11.2727 14.1819 11.2727H17.8182C18.3969 11.2727 18.9518 11.0429 19.361 10.6337C19.7702 10.2245 20 9.66956 20 9.09091V6.18182C20 5.60316 19.7702 5.04821 19.361 4.63904C18.9518 4.22987 18.3969 4 17.8182 4H8.36368Z" fill="white" style="fill:white;fill-opacity:1;"/>
<path d="M6.90913 16.3637C6.90913 15.9621 7.23474 15.6365 7.6364 15.6365H7.64368C8.04534 15.6365 8.37095 15.9621 8.37095 16.3637C8.37095 16.7654 8.04534 17.091 7.64368 17.091H7.6364C7.23474 17.091 6.90913 16.7654 6.90913 16.3637Z" fill="white" style="fill:white;fill-opacity:1;"/>
<path fill-rule="evenodd" clip-rule="evenodd" d="M4.0624 5.02243C3.94398 4.7555 3.99419 4.43187 4.21304 4.21301C4.49706 3.929 4.95755 3.929 5.24156 4.21301L5.59394 4.56539C5.5978 4.5692 5.60155 4.57292 5.60519 4.57657L11.0597 10.0311C11.0618 10.0332 11.0639 10.0353 11.0659 10.0373L13.9592 12.9307C13.9625 12.9338 13.9657 12.9369 13.9688 12.9401L19.787 18.7583C19.9091 18.8803 19.9787 19.035 19.9958 19.1942C19.9986 19.2202 20 19.2464 20 19.2725C20.0001 19.4587 19.9291 19.6449 19.787 19.787C19.5053 20.0687 19.05 20.071 18.7654 19.7938L18.5071 19.923C18.4061 19.9735 18.2947 19.9998 18.1818 19.9998H6.18183C5.60318 19.9998 5.04823 19.7699 4.63906 19.3608C4.22989 18.9516 4.00002 18.3966 4.00002 17.818V14.9089C4.00002 14.3302 4.22989 13.7753 4.63906 13.3661C5.04823 12.957 5.60318 12.7271 6.18183 12.7271H11.6986L10.2442 11.2726H6.18184C5.60319 11.2726 5.04823 11.0428 4.63906 10.6336C4.22989 10.2244 4.00002 9.66948 4.00002 9.09083L4.00001 6.79109C3.99989 5.98618 3.99979 5.39566 4.05537 5.06218C4.05746 5.04964 4.05979 5.03636 4.0624 5.02243ZM5.45491 6.4834C5.45465 6.61294 5.45457 6.75448 5.45457 6.90901V9.09083C5.45457 9.28371 5.53119 9.4687 5.66758 9.60509C5.80397 9.74148 5.98896 9.8181 6.18184 9.8181H8.78961L5.45491 6.4834ZM13.1531 14.1816H6.18183C5.98895 14.1816 5.80397 14.2583 5.66758 14.3946C5.53118 14.531 5.45456 14.716 5.45456 14.9089V17.818C5.45456 18.0109 5.53118 18.1959 5.66758 18.3323C5.80397 18.4686 5.98895 18.5453 6.18183 18.5453H17.5168L13.1531 14.1816Z" fill="white" style="fill:white;fill-opacity:1;"/>
<path d="M16.3637 13.4544C16.3637 13.0527 16.6893 12.7271 17.091 12.7271H17.8182C18.3969 12.7271 18.9518 12.957 19.361 13.3661C19.7702 13.7753 20.0001 14.3302 20.0001 14.9089V15.6362C20.0001 16.0378 19.6744 16.3634 19.2728 16.3634C18.8711 16.3634 18.5455 16.0378 18.5455 15.6362V14.9089C18.5455 14.716 18.4689 14.531 18.3325 14.3946C18.1961 14.2583 18.0111 14.1816 17.8182 14.1816H17.091C16.6893 14.1816 16.3637 13.856 16.3637 13.4544Z" fill="white" style="fill:white;fill-opacity:1;"/>
</svg>
