<svg width="24" height="24" viewBox="0 0 24 24" fill="none" xmlns="http://www.w3.org/2000/svg">
<path d="M12.5813 8.15153C12.5726 8.1428 12.5638 8.13427 12.5547 8.12593C12.4839 8.06054 12.4044 8.00993 12.3201 7.97413C12.2218 7.9323 12.1136 7.90915 12 7.90915C11.8917 7.90915 11.7883 7.93019 11.6937 7.96841C11.5946 8.00835 11.5018 8.06847 11.4214 8.14879L8.14871 11.4215C7.82919 11.741 7.82919 12.2591 8.14871 12.5786C8.46823 12.8981 8.98627 12.8981 9.30579 12.5786L11.1818 10.7026V15.2728C11.1818 15.7247 11.5481 16.091 12 16.091C12.4519 16.091 12.8182 15.7247 12.8182 15.2728V10.7026L14.6942 12.5786C15.0137 12.8981 15.5317 12.8981 15.8512 12.5786C16.1708 12.2591 16.1708 11.741 15.8512 11.4215L12.5813 8.15153Z" fill="white" style="fill:white;fill-opacity:1;"/>
<path fill-rule="evenodd" clip-rule="evenodd" d="M3 12C3 7.02944 7.02944 3 12 3C16.9706 3 21 7.02944 21 12C21 16.9706 16.9706 21 12 21C7.02944 21 3 16.9706 3 12ZM12 4.63636C7.93318 4.63636 4.63636 7.93318 4.63636 12C4.63636 16.0668 7.93318 19.3636 12 19.3636C16.0668 19.3636 19.3636 16.0668 19.3636 12C19.3636 7.93318 16.0668 4.63636 12 4.63636Z" fill="white" style="fill:white;fill-opacity:1;"/>
</svg>
