<svg width="24" height="24" viewBox="0 0 24 24" fill="none" xmlns="http://www.w3.org/2000/svg">
<path d="M16.2929 17.7071C16.6834 18.0976 17.3166 18.0976 17.7071 17.7071C18.0976 17.3166 18.0976 16.6834 17.7071 16.2929L9.41421 8L17 8C17.5523 8 18 7.55229 18 7C18 6.44772 17.5523 6 17 6L7.00069 6C6.99969 6 6.998 6 6.997 6C6.8625 6.0004 6.73425 6.02735 6.61722 6.07588C6.50195 6.12357 6.3938 6.19374 6.29945 6.2864C6.29506 6.29071 6.29071 6.29506 6.2864 6.29945C6.1099 6.47921 6.0008 6.72537 6 6.997C6 6.998 6 6.999 6 7L6 17C6 17.5523 6.44771 18 7 18C7.55229 18 8 17.5523 8 17L8 9.41421L16.2929 17.7071Z" fill="white" style="fill:white;fill-opacity:1;"/>
</svg>
