<svg width="24" height="24" viewBox="0 0 24 24" fill="none" xmlns="http://www.w3.org/2000/svg">
<path d="M12.3828 4.00459C12.2658 3.95605 12.1375 3.92911 12.003 3.92871L11.997 3.92871C11.7421 3.92947 11.4874 4.0271 11.2929 4.2216L4.22185 11.2927C3.83132 11.6832 3.83132 12.3164 4.22185 12.7069C4.61237 13.0974 5.24554 13.0974 5.63606 12.7069L11 7.34292V19.0708C11 19.6231 11.4477 20.0708 12 20.0708C12.5523 20.0708 13 19.6231 13 19.0708V7.34292L18.364 12.7069C18.7545 13.0974 19.3877 13.0974 19.7782 12.7069C20.1687 12.3164 20.1687 11.6832 19.7782 11.2927L12.7076 4.22209L12.705 4.21948C12.6096 4.12466 12.4999 4.05303 12.3828 4.00459Z" fill="white" style="fill:white;fill-opacity:1;"/>
</svg>
