<svg width="24" height="24" viewBox="0 0 24 24" fill="none" xmlns="http://www.w3.org/2000/svg">
<path fill-rule="evenodd" clip-rule="evenodd" d="M12.0532 4.12871C11.9513 4.12871 11.8504 4.14878 11.7563 4.18778C11.6621 4.22678 11.5766 4.28394 11.5045 4.356C11.4325 4.42805 11.3753 4.5136 11.3363 4.60774C11.2973 4.70189 11.2772 4.8028 11.2772 4.9047V8.03088C11.2772 8.03131 11.2772 8.03175 11.2772 8.03218C11.2772 8.03226 11.2772 8.03235 11.2772 8.03243C11.2771 8.34407 11.0244 8.59661 10.7127 8.59653C10.4011 8.59646 10.1485 8.34381 10.1485 8.03218V8.03192C10.1485 8.03162 10.1485 8.03131 10.1485 8.03101C10.1485 7.91888 10.1302 7.47116 10.0929 7.01933C10.0743 6.79432 10.052 6.57992 10.0267 6.4132C10.014 6.32917 10.0019 6.26666 9.99158 6.22515C9.99134 6.22422 9.99111 6.2233 9.99089 6.22241C9.90793 6.11298 9.79722 6.02729 9.66987 5.97446C9.52812 5.91566 9.37211 5.9002 9.22158 5.93006C9.07104 5.95991 8.93274 6.03373 8.82416 6.14217C8.60362 6.36243 8.24629 6.36221 8.02604 6.14168C7.80578 5.92115 7.806 5.56382 8.02653 5.34356C8.29306 5.07737 8.63253 4.89618 9.00202 4.8229C9.37151 4.74963 9.75443 4.78756 10.1024 4.9319C10.1179 4.93832 10.1332 4.94494 10.1485 4.95176V4.9047C10.1485 4.65457 10.1978 4.40689 10.2935 4.1758C10.3892 3.94472 10.5295 3.73474 10.7064 3.55787C10.8833 3.38101 11.0932 3.24071 11.3243 3.14499C11.5554 3.04927 11.8031 3 12.0532 3C12.3033 3 12.551 3.04927 12.7821 3.14499C13.0132 3.24071 13.2232 3.38101 13.4 3.55787C13.5769 3.73474 13.7172 3.94472 13.8129 4.1758C13.9087 4.40689 13.9579 4.65457 13.9579 4.9047V4.95237C14.1998 4.84446 14.4639 4.78713 14.7339 4.78713C15.2391 4.78713 15.7235 4.9878 16.0807 5.345C16.4379 5.7022 16.6386 6.18667 16.6386 6.69183V6.7395C16.8805 6.63158 17.1446 6.57426 17.4146 6.57426C17.9198 6.57426 18.4042 6.77493 18.7614 7.13213C19.1186 7.48933 19.3193 7.9738 19.3193 8.47896V16.0743C19.3193 17.0193 19.0936 17.941 18.672 18.7674L20.0476 20.143C20.268 20.3634 20.268 20.7207 20.0476 20.9411C19.8272 21.1615 19.4699 21.1615 19.2495 20.9411L18.0489 19.7406C17.905 19.9233 17.7498 20.0983 17.5837 20.2644C16.4724 21.3757 14.9652 22 13.3936 22H11.6064C11.5806 22 11.5548 21.9982 11.5292 21.9947C9.49921 21.7143 7.69884 20.6493 6.66571 19.0629C6.65521 19.0468 6.64554 19.0302 6.63674 19.0131L4.24243 14.3575C3.93713 13.9172 3.81281 13.3756 3.89656 12.8452C3.98274 12.2994 4.28223 11.8101 4.72914 11.4851C5.17604 11.1601 5.73376 11.0259 6.2796 11.1121C6.73631 11.1842 7.1534 11.4056 7.46782 11.7378V9.1595L3.1653 4.85698C2.9449 4.63659 2.9449 4.27926 3.1653 4.05886C3.38569 3.83847 3.74302 3.83847 3.96342 4.05886L17.8222 17.9177C18.0631 17.339 18.1906 16.7132 18.1906 16.0743V8.47896C18.1906 8.27316 18.1088 8.07578 17.9633 7.93025C17.8178 7.78473 17.6204 7.70297 17.4146 7.70297C17.2088 7.70297 17.0114 7.78473 16.8659 7.93025C16.7209 8.0752 16.6393 8.2716 16.6386 8.47652C16.6386 8.47733 16.6386 8.47815 16.6386 8.47896L16.6386 13.3936C16.6386 13.7052 16.386 13.9579 16.0743 13.9579C15.7626 13.9579 15.5099 13.7053 15.5099 13.3936L15.5099 8.48106C15.5099 8.48036 15.5099 8.47966 15.5099 8.47896C15.5099 8.47769 15.5099 8.47642 15.5099 8.47514L15.5099 6.69183C15.5099 6.48603 15.4281 6.28865 15.2826 6.14312C15.1371 5.9976 14.9397 5.91584 14.7339 5.91584C14.5613 5.91584 14.3946 5.97335 14.2595 6.07775C14.2568 6.09001 14.2538 6.10398 14.2507 6.11981C14.2274 6.23718 14.2033 6.40639 14.1797 6.6199C14.1327 7.04392 14.0922 7.59741 14.059 8.16255C13.9925 9.29538 13.9579 10.4318 13.9579 10.593C13.9579 10.9046 13.7052 11.1573 13.3936 11.1573C13.0819 11.1573 12.8292 10.9046 12.8292 10.593V4.9047C12.8292 4.8028 12.8091 4.70189 12.7701 4.60774C12.7311 4.5136 12.674 4.42805 12.6019 4.356C12.5299 4.28394 12.4443 4.22678 12.3502 4.18778C12.256 4.14878 12.1551 4.12871 12.0532 4.12871ZM14.2762 6.01293C14.2816 5.99666 14.2822 5.99968 14.2757 6.0146C14.2759 6.01402 14.2761 6.01346 14.2762 6.01293ZM17.2439 18.9355L11.1568 12.8485C11.0535 12.9799 10.893 13.0644 10.7129 13.0644C10.4012 13.0644 10.1485 12.8117 10.1485 12.5V11.8402L8.59653 10.2882V13.8403C8.59653 14.152 8.34386 14.4047 8.03218 14.4047C8.02524 14.4047 8.01834 14.4046 8.01147 14.4043C7.79847 14.4132 7.58953 14.3005 7.48562 14.0985L6.70362 12.5779C6.55509 12.3901 6.34101 12.2645 6.10356 12.227C5.85342 12.1875 5.59782 12.249 5.39301 12.3979C5.1882 12.5469 5.05095 12.7711 5.01146 13.0212C4.97196 13.2714 5.03345 13.527 5.1824 13.7318C5.19943 13.7552 5.21463 13.7799 5.22786 13.8056L7.6269 18.4704C8.4564 19.7274 9.92496 20.6236 11.646 20.8713H13.3936C14.6658 20.8713 15.886 20.3659 16.7856 19.4663C16.9521 19.2998 17.1051 19.1223 17.2439 18.9355ZM9.98227 6.19256C9.98229 6.1925 9.98281 6.19383 9.98375 6.19676C9.98272 6.19409 9.98225 6.19262 9.98227 6.19256Z" fill="white" style="fill:white;fill-opacity:1;"/>
</svg>
