<svg width="24" height="24" viewBox="0 0 24 24" fill="none" xmlns="http://www.w3.org/2000/svg">
<path fill-rule="evenodd" clip-rule="evenodd" d="M17.2082 5.66851L15.1188 7.89077L12.0044 6.75009L3.09846 10.0087C3.03933 10.0304 3 10.0866 3 10.1496V16.2589L2.29223 16.5844C1.82173 16.8008 1.51483 17.2654 1.50052 17.7831C1.48621 18.3008 1.76698 18.7817 2.2248 19.0237L3.45661 19.675L3.61798 21.0592C3.67796 21.5737 4.02486 22.0095 4.51281 22.1834C5.00076 22.3573 5.54512 22.2391 5.91698 21.8785L6.91791 20.9078L8.2849 21.1824C8.79276 21.2844 9.3145 21.0892 9.63072 20.6789C9.8814 20.3537 9.96845 19.938 9.88018 19.5479L11.9484 20.3049C11.9817 20.3171 12.0183 20.3171 12.0516 20.3049L20.9016 17.0656C20.9607 17.0439 21 16.9877 21 16.9247V11.4413L21.7759 10.6161C22.1271 10.2425 22.2327 9.70226 22.0542 9.22605C21.8746 8.74691 21.4322 8.40301 20.9061 8.36566L19.2024 8.2447L19.4758 6.8422C19.5864 6.27486 19.3212 5.6852 18.794 5.40487C18.2615 5.12172 17.6141 5.23683 17.2082 5.66851ZM17.0783 11.2614L14.28 11.0627C14.142 11.0529 14.0222 10.9623 13.9727 10.8303C13.9233 10.6984 13.953 10.5488 14.0491 10.4466L17.9159 6.3339C18.0258 6.21702 18.1977 6.18797 18.3379 6.26255C18.4782 6.33714 18.5533 6.49751 18.5224 6.65636L18.039 9.13593L20.8373 9.33461C20.9754 9.34441 21.0951 9.43498 21.1446 9.56696C21.194 9.69894 21.1643 9.84851 21.0682 9.95067L17.2014 14.0634C17.0915 14.1803 16.9196 14.2093 16.7794 14.1347C16.6391 14.0602 16.564 13.8998 16.595 13.7409L17.0783 11.2614ZM14.2112 12.0316L14.2869 12.037L12.0514 12.8553C12.0181 12.8675 11.9816 12.8675 11.9483 12.8553L5.7565 10.5888C5.62525 10.5408 5.62525 10.3552 5.75649 10.3071L11.9483 8.04007C11.9816 8.02788 12.0181 8.02788 12.0514 8.04007L14.2289 8.83731L13.3414 9.78124C12.9902 10.1548 12.8847 10.695 13.0631 11.1712C13.2427 11.6504 13.6851 11.9943 14.2112 12.0316ZM7.96566 17.9642L8.82422 19.7152C8.87485 19.8185 8.86245 19.9416 8.79223 20.0327C8.72202 20.1238 8.60616 20.1671 8.49338 20.1445L6.58057 19.7603L5.17999 21.1185C5.09742 21.1986 4.97654 21.2248 4.86818 21.1862C4.75983 21.1476 4.6828 21.0508 4.66948 20.9366L4.44364 18.9993L2.71957 18.0878C2.61791 18.0341 2.55556 17.9273 2.55874 17.8124C2.56192 17.6974 2.63007 17.5942 2.73454 17.5462L4.50747 16.731L4.84263 14.8089C4.86238 14.6956 4.94475 14.6034 5.05509 14.5709C5.16543 14.5385 5.28463 14.5715 5.36255 14.6561L6.68435 16.0909L8.61657 15.8171C8.73043 15.8009 8.84358 15.8508 8.90846 15.9458C8.97334 16.0407 8.97871 16.1642 8.9223 16.2645L7.96566 17.9642ZM9.17091 18.0174L11.2007 18.7604C11.2986 18.7962 11.4022 18.7238 11.4022 18.6195V14.0322C11.4022 13.9692 11.3629 13.913 11.3038 13.8913L4.39738 11.3631C4.2995 11.3273 4.19582 11.3998 4.19582 11.504V13.8812C4.35085 13.7317 4.54194 13.6184 4.75652 13.5553C5.25344 13.4092 5.7902 13.5579 6.14114 13.9388L7.08626 14.9647L8.46804 14.7689C8.98078 14.6962 9.49032 14.9209 9.7825 15.3485C10.0747 15.7761 10.0988 16.3324 9.84483 16.7837L9.1614 17.9979L9.17091 18.0174ZM17.9091 14.7288L19.8043 12.7131V16.0913C19.8043 16.1543 19.765 16.2105 19.7058 16.2322L12.7994 18.7604C12.7015 18.7962 12.5979 18.7238 12.5979 18.6195V14.0322C12.5979 13.9692 12.6372 13.913 12.6963 13.8913L15.7972 12.7562L15.6415 13.5551C15.5309 14.1224 15.7961 14.7121 16.3233 14.9924C16.8558 15.2756 17.5032 15.1605 17.9091 14.7288Z" fill="white" style="fill:white;fill-opacity:1;"/>
</svg>
