<svg width="24" height="24" viewBox="0 0 24 24" fill="none" xmlns="http://www.w3.org/2000/svg">
<path d="M12.0044 7.5C12.0043 7.5 12.0043 7.50007 12.0044 7.50009L20.9016 10.7587C20.9607 10.7804 21 10.8366 21 10.8996V17.6747C21 17.7377 20.9607 17.7939 20.9016 17.8156L12.0516 21.0549C12.0183 21.0671 11.9817 21.0671 11.9484 21.0549L3.09844 17.8156C3.03932 17.7939 3 17.7377 3 17.6747V10.8996C3 10.8366 3.03933 10.7804 3.09846 10.7587L12.0044 7.50009C12.0044 7.50007 12.0044 7.5 12.0044 7.5ZM12.6963 14.6413C12.6372 14.663 12.5979 14.7192 12.5979 14.7822V19.3695C12.5979 19.4738 12.7015 19.5462 12.7994 19.5104L19.7058 16.9822C19.765 16.9605 19.8043 16.9043 19.8043 16.8413V12.254C19.8043 12.1498 19.7006 12.0773 19.6027 12.1131L12.6963 14.6413ZM11.2007 19.5104C11.2986 19.5462 11.4022 19.4738 11.4022 19.3695V14.7822C11.4022 14.7192 11.3629 14.663 11.3038 14.6413L4.39738 12.1131C4.2995 12.0773 4.19582 12.1498 4.19582 12.254V16.8413C4.19582 16.9043 4.23513 16.9605 4.29425 16.9822L11.2007 19.5104ZM5.75649 11.0571C5.62525 11.1052 5.62525 11.2908 5.7565 11.3388L11.9483 13.6053C11.9816 13.6175 12.0181 13.6175 12.0514 13.6053L18.2432 11.3388C18.3744 11.2908 18.3744 11.1052 18.2432 11.0571L12.0514 8.79007C12.0181 8.77788 11.9816 8.77788 11.9483 8.79007L5.75649 11.0571Z" fill="white" style="fill:white;fill-opacity:1;"/>
<path fill-rule="evenodd" clip-rule="evenodd" d="M17.4439 7.51283C17.4773 7.3419 17.3964 7.16933 17.2455 7.08907C17.0946 7.00881 16.9096 7.04008 16.7914 7.16585L12.6305 11.5914C12.5271 11.7013 12.4951 11.8622 12.5483 12.0042C12.6015 12.1463 12.7304 12.2437 12.8789 12.2543L15.89 12.468L15.37 15.1362C15.3366 15.3071 15.4175 15.4797 15.5684 15.5599C15.7193 15.6402 15.9043 15.6089 16.0225 15.4832L20.1834 11.0577C20.2868 10.9477 20.3188 10.7868 20.2656 10.6448C20.2124 10.5028 20.0835 10.4053 19.935 10.3948L16.9239 10.181L17.4439 7.51283Z" fill="#26C5C5" style="fill:#26C5C5;fill:color(display-p3 0.1490 0.7725 0.7725);fill-opacity:1;"/>
<path fill-rule="evenodd" clip-rule="evenodd" d="M15.8901 12.4685L12.879 12.2547C12.7305 12.2442 12.6016 12.1467 12.5484 12.0047C12.4952 11.8627 12.5272 11.7018 12.6306 11.5918L16.7915 7.16634C16.9097 7.04057 17.0946 7.0093 17.2456 7.08956C17.3965 7.16982 17.4773 7.34239 17.444 7.51332L16.924 10.1815L19.9351 10.3953C20.0836 10.4058 20.2124 10.5033 20.2657 10.6453C20.3189 10.7873 20.2869 10.9482 20.1835 11.0582L16.0226 15.4837C15.9044 15.6094 15.7194 15.6407 15.5685 15.5604C15.4175 15.4802 15.3367 15.3076 15.37 15.1367L15.8901 12.4685ZM18.1758 9.22245L20.0091 9.35261C20.5752 9.3928 21.0512 9.76285 21.2445 10.2784C21.4365 10.7909 21.323 11.3722 20.9451 11.7742L16.7842 16.1997C16.3474 16.6642 15.6508 16.788 15.0778 16.4834C14.5104 16.1817 14.2251 15.5472 14.3441 14.9367L14.6382 13.4275L12.805 13.2974C12.2389 13.2572 11.7629 12.8872 11.5696 12.3716C11.3776 11.8591 11.4911 11.2778 11.869 10.8758L16.0299 6.45034C16.4667 5.98583 17.1633 5.86197 17.7363 6.16664C18.3037 6.4683 18.589 7.1028 18.47 7.71329L18.1758 9.22245Z" fill="white" style="fill:white;fill-opacity:1;"/>
<path fill-rule="evenodd" clip-rule="evenodd" d="M6.44196 3.50517C6.35738 3.41337 6.22802 3.37753 6.10826 3.41274C5.9885 3.44794 5.89911 3.54808 5.87767 3.67105L5.51402 5.75686L3.58973 6.64182C3.47634 6.69397 3.40238 6.80596 3.39893 6.93072C3.39548 7.05548 3.46315 7.17138 3.57348 7.22971L5.44465 8.21893L5.68975 10.3215C5.70421 10.4455 5.78781 10.5505 5.90541 10.5924C6.02301 10.6343 6.1542 10.6058 6.24382 10.5189L7.7639 9.0448L9.83991 9.46181C9.9623 9.4864 10.088 9.43936 10.1643 9.34048C10.2405 9.2416 10.2539 9.10802 10.199 8.99592L9.26726 7.09521L10.3054 5.25075C10.3666 5.14199 10.3608 5.00791 10.2904 4.90486C10.22 4.80182 10.0972 4.74767 9.97361 4.76518L7.87653 5.06236L6.44196 3.50517Z" fill="#FF8000" style="fill:#FF8000;fill:color(display-p3 1.0000 0.5000 0.0000);fill-opacity:1;"/>
<path fill-rule="evenodd" clip-rule="evenodd" d="M5.51416 5.75642L5.87781 3.67062C5.89925 3.54764 5.98864 3.44751 6.1084 3.4123C6.22816 3.3771 6.35752 3.41293 6.4421 3.50474L7.87667 5.06192L9.97374 4.76474C10.0973 4.74723 10.2201 4.80138 10.2905 4.90442C10.361 5.00747 10.3668 5.14155 10.3056 5.25032L9.2674 7.09478L10.1991 8.99549C10.2541 9.10758 10.2406 9.24116 10.1644 9.34004C10.0882 9.43892 9.96244 9.48596 9.84004 9.46137L7.76404 9.04436L6.24396 10.5185C6.15434 10.6054 6.02315 10.6339 5.90555 10.592C5.78795 10.5501 5.70435 10.445 5.68989 10.321L5.44479 8.21849L3.57362 7.22927C3.46328 7.17094 3.39562 7.05504 3.39907 6.93028C3.40252 6.80552 3.47648 6.69353 3.58987 6.64138L5.51416 5.75642ZM4.37355 8.95179L4.54868 10.4541C4.61378 11.0125 4.99027 11.4855 5.51985 11.6743M4.37355 8.95179L3.03664 8.24501C2.53975 7.98232 2.23504 7.46037 2.25057 6.89853C2.2661 6.3367 2.59918 5.83238 3.10982 5.59754L4.48593 4.96468L4.74595 3.47328C4.8425 2.9195 5.24505 2.46854 5.78436 2.31C6.32368 2.15146 6.90623 2.31283 7.28711 2.72626L8.31286 3.83969L9.81254 3.62717C10.369 3.54831 10.922 3.79215 11.2391 4.2562C11.5563 4.72025 11.5825 5.32407 11.3068 5.81386L10.5651 7.1317L11.2308 8.48978C11.4782 8.99459 11.4176 9.59612 11.0744 10.0414C10.7312 10.4867 10.165 10.6985 9.61378 10.5878L8.13015 10.2898L7.04382 11.3433C6.64024 11.7347 6.04943 11.863 5.51985 11.6743" fill="white" style="fill:white;fill-opacity:1;"/>
</svg>
