<svg width="24" height="24" viewBox="0 0 24 24" fill="none" xmlns="http://www.w3.org/2000/svg">
<path d="M17.0159 15.1875H19.4375C19.8685 15.1875 20.2818 15.0163 20.5866 14.7115C20.8913 14.4068 21.0625 13.9935 21.0625 13.5625V4.5625C21.0625 4.13152 20.8913 3.7182 20.5866 3.41345C20.2818 3.10871 19.8685 2.9375 19.4375 2.9375H5.93751C5.61501 2.9375 5.30239 3.03337 5.03775 3.20932L5.78486 3.95643C5.83436 3.94396 5.8856 3.9375 5.93751 3.9375H19.4375C19.6033 3.9375 19.7622 4.00335 19.8794 4.12056C19.9967 4.23777 20.0625 4.39674 20.0625 4.5625V13.5625C20.0625 13.7283 19.9967 13.8872 19.8794 14.0044C19.7622 14.1217 19.6033 14.1875 19.4375 14.1875H16.0159L17.0159 15.1875Z" fill="white" style="fill:white;fill-opacity:1;"/>
<path d="M14.762 16.4692L15.7304 17.4375H14.9375C14.6614 17.4375 14.4375 17.2136 14.4375 16.9375C14.4375 16.7231 14.5725 16.5402 14.762 16.4692Z" fill="white" style="fill:white;fill-opacity:1;"/>
<path d="M11.7398 13.4469C11.655 13.5519 11.5643 13.6529 11.4679 13.7492C11.064 14.1531 10.5795 14.4578 10.0522 14.6477C11.1071 14.8902 12.0824 15.4248 12.8601 16.2024C13.9501 17.2925 14.5625 18.7709 14.5625 20.3125C14.5625 20.7267 14.2267 21.0625 13.8125 21.0625C13.3983 21.0625 13.0625 20.7267 13.0625 20.3125C13.0625 19.1688 12.6082 18.0719 11.7994 17.2631C10.9907 16.4544 9.89375 16 8.75001 16C7.60626 16 6.50936 16.4544 5.70061 17.2631C4.89186 18.0719 4.43751 19.1688 4.43751 20.3125C4.43751 20.7267 4.10172 21.0625 3.68751 21.0625C3.2733 21.0625 2.93751 20.7267 2.93751 20.3125C2.93751 18.7709 3.5499 17.2925 4.63995 16.2024C5.41762 15.4248 6.39295 14.8902 7.44786 14.6477C6.92052 14.4578 6.43597 14.1531 6.03207 13.7492C5.31122 13.0283 4.90626 12.0507 4.90626 11.0312C4.90626 10.0118 5.31122 9.03415 6.03207 8.31331C6.1284 8.21697 6.22933 8.12628 6.33433 8.04143L7.40484 9.11195C7.29413 9.18954 7.18962 9.27707 7.09273 9.37397C6.65319 9.81351 6.40626 10.4096 6.40626 11.0312C6.40626 11.6529 6.65319 12.249 7.09273 12.6885C7.53227 13.1281 8.12841 13.375 8.75001 13.375C9.37161 13.375 9.96775 13.1281 10.4073 12.6885C10.5042 12.5916 10.5917 12.4871 10.6693 12.3764L11.7398 13.4469Z" fill="white" style="fill:white;fill-opacity:1;"/>
<path d="M12.5839 10.7554C12.5178 9.83682 12.1235 8.96886 11.4679 8.31331C10.8124 7.65776 9.94444 7.26345 9.02583 7.1974L12.5839 10.7554Z" fill="white" style="fill:white;fill-opacity:1;"/>
<path d="M5.00465 6.71175L4.31251 6.01961V6.25C4.31251 6.52614 4.53637 6.75 4.81251 6.75C4.88059 6.75 4.94549 6.73639 5.00465 6.71175Z" fill="white" style="fill:white;fill-opacity:1;"/>
<path fill-rule="evenodd" clip-rule="evenodd" d="M14.375 5.1875C13.7948 5.1875 13.2384 5.41797 12.8282 5.8282C12.418 6.23844 12.1875 6.79484 12.1875 7.375C12.1875 7.95516 12.418 8.51156 12.8282 8.9218C13.1218 9.21542 13.4903 9.41695 13.8888 9.50779C13.8798 9.54539 13.875 9.58464 13.875 9.625C13.875 9.90114 14.0989 10.125 14.375 10.125C14.9883 10.125 15.5765 10.3686 16.0102 10.8023C16.4439 11.236 16.6875 11.8242 16.6875 12.4375C16.6875 12.7136 16.9114 12.9375 17.1875 12.9375C17.4637 12.9375 17.6875 12.7136 17.6875 12.4375C17.6875 11.559 17.3385 10.7164 16.7173 10.0952C16.3504 9.72826 15.9062 9.4563 15.423 9.29514C15.6046 9.19601 15.7728 9.07075 15.9218 8.9218C16.332 8.51156 16.5625 7.95516 16.5625 7.375C16.5625 6.79484 16.332 6.23844 15.9218 5.8282C15.5116 5.41797 14.9552 5.1875 14.375 5.1875ZM13.5353 6.53531C13.758 6.31261 14.0601 6.1875 14.375 6.1875C14.69 6.1875 14.992 6.31261 15.2147 6.53531C15.4374 6.75801 15.5625 7.06006 15.5625 7.375C15.5625 7.68994 15.4374 7.99199 15.2147 8.21469C14.992 8.43739 14.69 8.5625 14.375 8.5625C14.0601 8.5625 13.758 8.43739 13.5353 8.21469C13.3126 7.99199 13.1875 7.68994 13.1875 7.375C13.1875 7.06006 13.3126 6.75801 13.5353 6.53531Z" fill="white" style="fill:white;fill-opacity:1;"/>
<path d="M2.53034 3.53033C2.23745 3.23744 2.23745 2.76256 2.53034 2.46967C2.82323 2.17678 3.29811 2.17678 3.591 2.46967L21.7599 20.6385C22.0528 20.9314 22.0528 21.4063 21.7599 21.6992C21.467 21.9921 20.9921 21.9921 20.6992 21.6992L2.53034 3.53033Z" fill="white" style="fill:white;fill-opacity:1;"/>
</svg>
