<svg width="24" height="24" viewBox="0 0 24 24" fill="none" xmlns="http://www.w3.org/2000/svg">
<path fill-rule="evenodd" clip-rule="evenodd" d="M11.9956 21.0879C16.979 21.0879 21.0923 16.9746 21.0923 12C21.0923 7.02539 16.9702 2.91211 11.9868 2.91211C7.01221 2.91211 2.90771 7.02539 2.90771 12C2.90771 16.9746 7.021 21.0879 11.9956 21.0879ZM6.93078 17.2285C5.57425 15.9079 4.73584 14.0567 4.73584 12C4.73584 7.96582 7.96143 4.73145 11.9868 4.73145C16.021 4.73145 19.2642 7.96582 19.2729 12C19.2774 14.0548 18.4359 15.9044 17.076 17.2247C16.8073 16.6971 16.4555 16.2098 16.029 15.7833C14.9616 14.7159 13.5139 14.1163 12.0044 14.1163C10.4948 14.1163 9.04715 14.7159 7.97976 15.7833C7.55223 16.2108 7.19975 16.6994 6.93078 17.2285ZM8.14211 18.1792C9.25622 18.8757 10.5758 19.2773 11.9956 19.2773C13.4189 19.2773 14.7448 18.8737 15.8644 18.174C15.6561 17.6818 15.3536 17.2292 14.9683 16.844C14.1822 16.0579 13.1161 15.6163 12.0044 15.6163C10.8927 15.6163 9.82651 16.0579 9.04042 16.844C8.65381 17.2306 8.35052 17.6849 8.14211 18.1792ZM9.62488 7.4692C10.256 6.83812 11.1119 6.48358 12.0044 6.48358C12.8968 6.48358 13.7528 6.83812 14.3839 7.4692C15.0149 8.10028 15.3695 8.9562 15.3695 9.84868C15.3695 10.7412 15.0149 11.5971 14.3839 12.2282C13.7528 12.8592 12.8968 13.2138 12.0044 13.2138C11.1119 13.2138 10.256 12.8592 9.62488 12.2282C8.9938 11.5971 8.63927 10.7412 8.63927 9.84868C8.63927 8.9562 8.9938 8.10028 9.62488 7.4692ZM12.0044 7.98358C11.5097 7.98358 11.0353 8.18008 10.6855 8.52986C10.3358 8.87963 10.1393 9.35403 10.1393 9.84868C10.1393 10.3433 10.3358 10.8177 10.6855 11.1675C11.0353 11.5173 11.5097 11.7138 12.0044 11.7138C12.499 11.7138 12.9734 11.5173 13.3232 11.1675C13.673 10.8177 13.8695 10.3433 13.8695 9.84868C13.8695 9.35403 13.673 8.87963 13.3232 8.52986C12.9734 8.18008 12.499 7.98358 12.0044 7.98358Z" fill="white" style="fill:white;fill-opacity:1;"/>
</svg>
