<svg width="24" height="24" viewBox="0 0 24 24" fill="none" xmlns="http://www.w3.org/2000/svg">
<path fill-rule="evenodd" clip-rule="evenodd" d="M9.75004 2C7.67898 2 6.00005 3.67892 6.00005 5.74998C6.00005 7.82104 7.67898 9.49997 9.75004 9.49997C11.8211 9.49997 13.5 7.82104 13.5 5.74998C13.5 3.67892 11.8211 2 9.75004 2ZM7.50005 5.74998C7.50005 4.50735 8.5074 3.49999 9.75004 3.49999C10.9927 3.49999 12 4.50735 12 5.74998C12 6.99262 10.9927 7.99997 9.75004 7.99997C8.5074 7.99997 7.50005 6.99262 7.50005 5.74998Z" fill="white" style="fill:white;fill-opacity:1;"/>
<path d="M6.74998 11C5.75543 11 4.8016 11.3951 4.09834 12.0984C3.39509 12.8016 3 13.7555 3 14.75V16.25C3 16.6642 3.33579 17 3.75 17C4.16421 17 4.49999 16.6642 4.49999 16.25V14.75C4.49999 14.1533 4.73705 13.581 5.159 13.159C5.58096 12.7371 6.15325 12.5 6.74998 12.5H11.2189C11.3981 12.2576 11.596 12.0274 11.8117 11.8117C12.1192 11.5042 12.4561 11.2329 12.8159 11.0006C12.7939 11.0002 12.7719 11 12.75 11H6.74998Z" fill="white" style="fill:white;fill-opacity:1;"/>
<path d="M15.75 14.15C16.0814 14.15 16.35 14.4187 16.35 14.75V16.139H17.7383C18.0696 16.139 18.3383 16.4077 18.3383 16.739C18.3383 17.0704 18.0696 17.339 17.7383 17.339H15.75C15.4187 17.339 15.15 17.0704 15.15 16.739V14.75C15.15 14.4187 15.4187 14.15 15.75 14.15Z" fill="white" style="fill:white;fill-opacity:1;"/>
<path fill-rule="evenodd" clip-rule="evenodd" d="M12.5188 12.5188C13.4752 11.5623 14.7724 11.025 16.125 11.025C17.4776 11.025 18.7748 11.5623 19.7313 12.5188C20.6877 13.4752 21.225 14.7724 21.225 16.125C21.225 17.4776 20.6877 18.7748 19.7313 19.7313C18.7748 20.6877 17.4776 21.225 16.125 21.225C14.7724 21.225 13.4752 20.6877 12.5188 19.7313C11.5623 18.7748 11.025 17.4776 11.025 16.125C11.025 14.7724 11.5623 13.4752 12.5188 12.5188ZM16.125 12.225C15.0907 12.225 14.0987 12.6359 13.3673 13.3673C12.6359 14.0987 12.225 15.0907 12.225 16.125C12.225 17.1594 12.6359 18.1514 13.3673 18.8827C14.0987 19.6141 15.0907 20.025 16.125 20.025C17.1594 20.025 18.1514 19.6141 18.8827 18.8827C19.6141 18.1514 20.025 17.1594 20.025 16.125C20.025 15.0907 19.6141 14.0987 18.8827 13.3673C18.1514 12.6359 17.1594 12.225 16.125 12.225Z" fill="white" style="fill:white;fill-opacity:1;"/>
</svg>
