<svg width="24" height="24" viewBox="0 0 24 24" fill="none" xmlns="http://www.w3.org/2000/svg">
<path fill-rule="evenodd" clip-rule="evenodd" d="M9.79997 8C9.79997 6.67452 10.8745 5.6 12.2 5.6C13.5254 5.6 14.6 6.67452 14.6 8C14.6 9.32548 13.5254 10.4 12.2 10.4C10.8745 10.4 9.79997 9.32548 9.79997 8ZM12.2 4C9.99083 4 8.19997 5.79086 8.19997 8C8.19997 10.2091 9.99083 12 12.2 12C14.4091 12 16.2 10.2091 16.2 8C16.2 5.79086 14.4091 4 12.2 4ZM9 13.6001C7.93913 13.6001 6.92172 14.0215 6.17157 14.7716C5.42143 15.5218 5 16.5392 5 17.6001V19.2001C5 19.6419 5.35817 20.0001 5.8 20.0001C6.24183 20.0001 6.6 19.6419 6.6 19.2001V17.6001C6.6 16.9635 6.85286 16.3531 7.30294 15.903C7.75303 15.4529 8.36348 15.2001 9 15.2001H15.4C16.0365 15.2001 16.647 15.4529 17.0971 15.903C17.5471 16.3531 17.8 16.9635 17.8 17.6001V19.2001C17.8 19.6419 18.1582 20.0001 18.6 20.0001C19.0418 20.0001 19.4 19.6419 19.4 19.2001V17.6001C19.4 16.5392 18.9786 15.5218 18.2284 14.7716C17.4783 14.0215 16.4609 13.6001 15.4 13.6001H9Z" fill="white" style="fill:white;fill-opacity:1;"/>
</svg>
