<svg width="24" height="24" viewBox="0 0 24 24" fill="none" xmlns="http://www.w3.org/2000/svg">
<path d="M15.6667 19V17.3333C15.6667 16.4493 15.3155 15.6014 14.6904 14.9763C14.0652 14.3512 13.2174 14 12.3333 14H7.33333C6.44928 14 5.60143 14.3512 4.97631 14.9763C4.35119 15.6014 4 16.4493 4 17.3333V19" stroke="white" style="stroke:white;stroke-opacity:1;" stroke-width="1.5" stroke-linecap="round" stroke-linejoin="round"/>
<path d="M9.83358 10.6667C11.6745 10.6667 13.1669 9.17428 13.1669 7.33333C13.1669 5.49238 11.6745 4 9.83358 4C7.99263 4 6.50024 5.49238 6.50024 7.33333C6.50024 9.17428 7.99263 10.6667 9.83358 10.6667Z" stroke="white" style="stroke:white;stroke-opacity:1;" stroke-width="1.5" stroke-linecap="round" stroke-linejoin="round"/>
<path d="M16.4998 8.16699L20.6664 12.3337" stroke="white" style="stroke:white;stroke-opacity:1;" stroke-width="1.5" stroke-linecap="round" stroke-linejoin="round"/>
<path d="M20.6664 8.16699L16.4998 12.3337" stroke="white" style="stroke:white;stroke-opacity:1;" stroke-width="1.5" stroke-linecap="round" stroke-linejoin="round"/>
</svg>
