<svg width="24" height="24" viewBox="0 0 24 24" fill="none" xmlns="http://www.w3.org/2000/svg">
<path fill-rule="evenodd" clip-rule="evenodd" d="M9.62052 7.68715C10.2516 7.05607 11.1075 6.70154 12 6.70154C12.8925 6.70154 13.7484 7.05607 14.3795 7.68715C15.0106 8.31823 15.3651 9.17416 15.3651 10.0666C15.3651 10.9591 15.0106 11.815 14.3795 12.4461C13.7484 13.0772 12.8925 13.4317 12 13.4317C11.1075 13.4317 10.2516 13.0772 9.62052 12.4461C8.98944 11.815 8.6349 10.9591 8.6349 10.0666C8.6349 9.17416 8.98944 8.31823 9.62052 7.68715ZM12 8.20154C11.5053 8.20154 11.031 8.39804 10.6812 8.74781C10.3314 9.09759 10.1349 9.57198 10.1349 10.0666C10.1349 10.5613 10.3314 11.0357 10.6812 11.3855C11.031 11.7352 11.5053 11.9317 12 11.9317C12.4947 11.9317 12.9691 11.7352 13.3188 11.3855C13.6686 11.0357 13.8651 10.5613 13.8651 10.0666C13.8651 9.57198 13.6686 9.09759 13.3188 8.74781C12.9691 8.39804 12.4947 8.20154 12 8.20154Z" fill="white" style="fill:white;fill-opacity:1;"/>
<path fill-rule="evenodd" clip-rule="evenodd" d="M12 15.8342C10.8883 15.8342 9.82215 16.2758 9.03606 17.0619C8.39455 17.7034 7.98242 18.5315 7.85255 19.4187L6.36837 19.2014C6.54471 17.9968 7.10427 16.8724 7.9754 16.0013C9.04279 14.9339 10.4905 14.3342 12 14.3342C13.5095 14.3342 14.9572 14.9339 16.0246 16.0013C16.8957 16.8724 17.4553 17.9968 17.6316 19.2014L16.1475 19.4187C16.0176 18.5315 15.6055 17.7034 14.9639 17.0619C14.1779 16.2758 13.1117 15.8342 12 15.8342Z" fill="white" style="fill:white;fill-opacity:1;"/>
<path fill-rule="evenodd" clip-rule="evenodd" d="M19.9075 5.4248H4.09247C3.81632 5.4248 3.59247 5.64866 3.59247 5.9248V18.0743C3.59247 18.3505 3.81633 18.5743 4.09247 18.5743H19.9075C20.1837 18.5743 20.4075 18.3505 20.4075 18.0743V5.9248C20.4075 5.64866 20.1837 5.4248 19.9075 5.4248ZM4.09247 3.9248C2.9879 3.9248 2.09247 4.82023 2.09247 5.9248V18.0743C2.09247 19.1789 2.9879 20.0743 4.09247 20.0743H19.9075C21.0121 20.0743 21.9075 19.1789 21.9075 18.0743V5.9248C21.9075 4.82024 21.0121 3.9248 19.9075 3.9248H4.09247Z" fill="white" style="fill:white;fill-opacity:1;"/>
</svg>
