<svg width="24" height="24" viewBox="0 0 24 24" fill="none" xmlns="http://www.w3.org/2000/svg">
<path d="M12.5785 3.23966C12.3445 3.00567 11.9926 2.93567 11.6869 3.0623C11.3811 3.18894 11.1818 3.48728 11.1818 3.8182V7.50001C11.1818 7.95188 11.5481 8.31819 12 8.31819C12.4518 8.31819 12.8182 7.95188 12.8182 7.50001V5.79346L14.9338 7.9091L13.4669 9.37601C13.1474 9.69553 13.1474 10.2136 13.4669 10.5331C13.7864 10.8526 14.3044 10.8526 14.624 10.5331L16.6694 8.48764C16.9889 8.16812 16.9889 7.65008 16.6694 7.33056L12.5785 3.23966Z" fill="white" style="fill:white;fill-opacity:1;"/>
<path fill-rule="evenodd" clip-rule="evenodd" d="M3.23964 3.23964C3.55916 2.92012 4.0772 2.92012 4.39672 3.23964L20.7603 19.6032C21.0798 19.9228 21.0798 20.4408 20.7603 20.7603C20.4408 21.0798 19.9228 21.0798 19.6032 20.7603L16.0909 17.248L12.5785 20.7603C12.3445 20.9943 11.9926 21.0643 11.6869 20.9377C11.3811 20.8111 11.1818 20.5127 11.1818 20.1818V13.9753L8.48762 16.6694C8.1681 16.989 7.65006 16.989 7.33054 16.6694C7.01102 16.3499 7.01102 15.8319 7.33054 15.5124L10.8429 12L3.23964 4.39672C2.92012 4.0772 2.92012 3.55916 3.23964 3.23964ZM14.9338 16.0909L12.8182 18.2065V13.9752L14.9338 16.0909Z" fill="white" style="fill:white;fill-opacity:1;"/>
</svg>
