<svg width="24" height="24" viewBox="0 0 24 24" fill="none" xmlns="http://www.w3.org/2000/svg">
<path fill-rule="evenodd" clip-rule="evenodd" d="M18.879 8.60091C18.9032 8.60385 18.9274 8.60799 18.9513 8.6133C19.9961 8.84544 20.9305 9.42697 21.6003 10.2619C22.27 11.0968 22.635 12.1351 22.635 13.2054V13.9874C22.635 14.5359 22.4171 15.0619 22.0293 15.4497C21.6415 15.8375 21.1155 16.0554 20.567 16.0554H17.272C16.7235 16.0554 16.1975 15.8375 15.8097 15.4497C15.4219 15.0619 15.204 14.5359 15.204 13.9874C15.204 13.8368 15.1442 13.6923 15.0376 13.5858C14.9311 13.4793 14.7867 13.4194 14.636 13.4194H9.36403C9.21339 13.4194 9.06892 13.4793 8.9624 13.5858C8.85588 13.6923 8.79603 13.8368 8.79603 13.9874C8.79603 14.5359 8.57816 15.0619 8.19033 15.4497C7.80251 15.8375 7.2765 16.0554 6.72804 16.0554H3.43305C2.88458 16.0554 2.35858 15.8375 1.97075 15.4497C1.58293 15.0619 1.36505 14.5359 1.36505 13.9874V13.2057M18.879 8.60091C14.3349 7.72638 9.66576 7.72547 5.12131 8.59824C5.09697 8.60119 5.07277 8.60533 5.0488 8.61066C4.00342 8.84292 3.06858 9.42491 2.39878 10.2605C1.72908 11.0959 1.36443 12.135 1.36505 13.2057M5.22113 9.34281V9.38631L5.28579 9.67733L5.22113 9.34281ZM5.36312 10.0774C4.65554 10.2372 4.02301 10.6325 3.56914 11.1987C3.11293 11.7678 2.86455 12.4755 2.86505 13.2049L2.86505 13.9874C2.86505 14.1381 2.92489 14.2825 3.03141 14.3891C3.13793 14.4956 3.28241 14.5554 3.43305 14.5554H6.72804C6.87868 14.5554 7.02315 14.4956 7.12967 14.3891C7.23619 14.2825 7.29603 14.1381 7.29603 13.9874C7.29603 13.439 7.51391 12.913 7.90174 12.5251C8.28956 12.1373 8.81557 11.9194 9.36403 11.9194H14.636C15.1845 11.9194 15.7105 12.1373 16.0983 12.5251C16.4861 12.913 16.704 13.439 16.704 13.9874C16.704 14.1381 16.7639 14.2825 16.8704 14.3891C16.9769 14.4956 17.1214 14.5554 17.272 14.5554H20.567C20.7176 14.5554 20.8621 14.4956 20.9686 14.3891C21.0752 14.2825 21.135 14.1381 21.135 13.9874V13.2054C21.135 12.4764 20.8864 11.7691 20.4302 11.2005C19.983 10.6429 19.3624 10.2512 18.6675 10.0871C18.6571 10.0856 18.6467 10.0838 18.6363 10.0818C14.2528 9.23273 9.74725 9.23185 5.36346 10.0792L5.36312 10.0774Z" fill="white" style="fill:white;fill-opacity:1;"/>
</svg>
