<svg width="24" height="24" viewBox="0 0 24 24" fill="none" xmlns="http://www.w3.org/2000/svg">
<path d="M6.18182 5.45455C5.98893 5.45455 5.80395 5.53117 5.66756 5.66756C5.53117 5.80395 5.45455 5.98893 5.45455 6.18182V9.09091C5.45455 9.28379 5.53117 9.46878 5.66756 9.60517C5.80395 9.74156 5.98893 9.81818 6.18182 9.81818H7.63636C8.03803 9.81818 8.36364 10.1438 8.36364 10.5455C8.36364 10.9471 8.03803 11.2727 7.63636 11.2727H6.18182C5.60316 11.2727 5.04821 11.0429 4.63904 10.6337C4.22987 10.2245 4 9.66956 4 9.09091V6.18182C4 5.60316 4.22987 5.04821 4.63904 4.63904C5.04821 4.22987 5.60316 4 6.18182 4H17.8182C18.3968 4 18.9518 4.22987 19.361 4.63904C19.7701 5.04821 20 5.60316 20 6.18182V9.09091C20 9.66956 19.7701 10.2245 19.361 10.6337C18.9518 11.0429 18.3968 11.2727 17.8182 11.2727H16.3636C15.962 11.2727 15.6364 10.9471 15.6364 10.5455C15.6364 10.1438 15.962 9.81818 16.3636 9.81818H17.8182C18.0111 9.81818 18.1961 9.74156 18.3324 9.60517C18.4688 9.46878 18.5455 9.28379 18.5455 9.09091V6.18182C18.5455 5.98893 18.4688 5.80395 18.3324 5.66756C18.1961 5.53117 18.0111 5.45455 17.8182 5.45455H6.18182Z" fill="white" style="fill:white;fill-opacity:1;"/>
<path d="M4.63904 13.3661C5.04821 12.957 5.60316 12.7271 6.18182 12.7271H7.63636C8.03803 12.7271 8.36364 13.0527 8.36364 13.4544C8.36364 13.856 8.03803 14.1816 7.63636 14.1816H6.18182C5.98893 14.1816 5.80395 14.2583 5.66756 14.3946C5.53117 14.531 5.45455 14.716 5.45455 14.9089V17.818C5.45455 18.0109 5.53117 18.1959 5.66756 18.3323C5.80395 18.4686 5.98893 18.5453 6.18182 18.5453H17.8182C18.0111 18.5453 18.1961 18.4686 18.3324 18.3323C18.4688 18.1959 18.5455 18.0109 18.5455 17.818V14.9089C18.5455 14.716 18.4688 14.531 18.3324 14.3946C18.1961 14.2583 18.0111 14.1816 17.8182 14.1816H16.3636C15.962 14.1816 15.6364 13.856 15.6364 13.4544C15.6364 13.0527 15.962 12.7271 16.3636 12.7271H17.8182C18.3968 12.7271 18.9518 12.957 19.361 13.3661C19.7701 13.7753 20 14.3302 20 14.9089V17.818C20 18.3966 19.7701 18.9516 19.361 19.3608C18.9518 19.7699 18.3968 19.9998 17.8182 19.9998H6.18182C5.60316 19.9998 5.04821 19.7699 4.63904 19.3608C4.22987 18.9516 4 18.3966 4 17.818V14.9089C4 14.3302 4.22987 13.7753 4.63904 13.3661Z" fill="white" style="fill:white;fill-opacity:1;"/>
<path d="M7.63637 6.90885C7.23471 6.90885 6.9091 7.23447 6.9091 7.63613C6.9091 8.03779 7.23471 8.3634 7.63637 8.3634H7.64364C8.04531 8.3634 8.37092 8.03779 8.37092 7.63613C8.37092 7.23447 8.04531 6.90885 7.64364 6.90885H7.63637Z" fill="white" style="fill:white;fill-opacity:1;"/>
<path d="M6.9091 16.3637C6.9091 15.9621 7.23471 15.6365 7.63637 15.6365H7.64364C8.04531 15.6365 8.37092 15.9621 8.37092 16.3637C8.37092 16.7654 8.04531 17.091 7.64364 17.091H7.63637C7.23471 17.091 6.9091 16.7654 6.9091 16.3637Z" fill="white" style="fill:white;fill-opacity:1;"/>
<path d="M13.3324 8.03962C13.5552 7.70542 13.4649 7.25388 13.1307 7.03108C12.7965 6.80827 12.3449 6.89858 12.1221 7.23279L9.21305 11.5964C9.06427 11.8196 9.0504 12.1065 9.17696 12.343C9.30352 12.5795 9.54996 12.7271 9.81818 12.7271H12.8229L10.6676 15.9601C10.4448 16.2943 10.5351 16.7458 10.8693 16.9686C11.2035 17.1914 11.655 17.1011 11.8778 16.7669L14.7869 12.4033C14.9357 12.1801 14.9496 11.8931 14.823 11.6567C14.6965 11.4202 14.45 11.2726 14.1818 11.2726H11.1771L13.3324 8.03962Z" fill="white" style="fill:white;fill-opacity:1;"/>
</svg>
