<svg width="24" height="24" viewBox="0 0 24 24" fill="none" xmlns="http://www.w3.org/2000/svg">
<path fill-rule="evenodd" clip-rule="evenodd" d="M9.86094 11.5684V16.7469C9.8654 16.8113 9.86765 16.8761 9.86765 16.941C9.86765 17.686 9.57172 18.4004 9.04496 18.9271C8.51821 19.4539 7.80377 19.7498 7.05882 19.7498C6.31388 19.7498 5.59944 19.4539 5.07269 18.9271C4.54593 18.4004 4.25 17.686 4.25 16.941C4.25 16.1961 4.54593 15.4816 5.07269 14.9549C5.59944 14.4281 6.31388 14.1322 7.05882 14.1322C7.51653 14.1322 7.96272 14.2439 8.36094 14.4522V10.0684L9.86094 11.5684ZM14.6599 12.8318C14.7481 12.709 14.8467 12.5927 14.955 12.4844C15.4818 11.9576 16.1962 11.6617 16.9412 11.6617C17.4014 11.6617 17.8501 11.7746 18.25 11.9852L18.2499 9.2546L12.5161 10.6881L11.2792 9.45112L18.2499 7.70844L18.2499 4.98608L9.86094 7.40594V8.03287L8.50322 6.67515C8.5395 6.60342 8.58244 6.53477 8.63172 6.47017C8.80546 6.24239 9.04849 6.07727 9.32416 5.99962L18.0752 3.47533C18.2713 3.42063 18.4773 3.412 18.6772 3.45011C18.8771 3.48823 19.0655 3.57206 19.2277 3.69506C19.3898 3.81806 19.5213 3.97688 19.6119 4.15913C19.7025 4.34137 19.7497 4.5421 19.7499 4.74562L19.7499 8.27513C19.7503 8.28813 19.7503 8.30108 19.7499 8.31399L19.75 14.4705C19.75 15.2154 19.4541 15.9299 18.9273 16.4566C18.819 16.565 18.7027 16.6635 18.5799 16.7518L17.4878 15.6597C17.6274 15.5956 17.7559 15.5067 17.8667 15.396C18.1121 15.1505 18.25 14.8176 18.25 14.4705C18.25 14.1234 18.1121 13.7905 17.8667 13.545C17.6212 13.2996 17.2883 13.1617 16.9412 13.1617C16.5941 13.1617 16.2612 13.2996 16.0157 13.545C15.905 13.6558 15.8161 13.7843 15.752 13.9239L14.6599 12.8318ZM7.9843 16.0155C8.19836 16.2296 8.33061 16.5101 8.36094 16.8086V16.941C8.36094 16.9681 8.36238 16.9949 8.36519 17.0213C8.34567 17.3391 8.21077 17.64 7.9843 17.8665C7.73885 18.1119 7.40595 18.2498 7.05882 18.2498C6.7117 18.2498 6.3788 18.1119 6.13335 17.8665C5.88789 17.621 5.75 17.2881 5.75 16.941C5.75 16.5939 5.88789 16.261 6.13335 16.0155C6.3788 15.7701 6.7117 15.6322 7.05882 15.6322C7.40595 15.6322 7.73885 15.7701 7.9843 16.0155Z" fill="white" style="fill:white;fill-opacity:1;"/>
<rect x="2" y="3" width="1.5" height="27.1947" rx="0.75" transform="rotate(-45 2 3)" fill="white" style="fill:white;fill-opacity:1;"/>
</svg>
